<?xml version="1.0" encoding="UTF-8"?>
<svg version="1.1" xmlns="http://www.w3.org/2000/svg" width="512" height="512">
<path d="M0 0 C1.64745493 -0.00461529 3.29490573 -0.0109724 4.942348 -0.01890898 C9.44559967 -0.03553928 13.94851035 -0.02738474 18.45176291 -0.0149641 C23.31756076 -0.00589004 28.18330119 -0.01989501 33.04908752 -0.03088379 C42.57175522 -0.04864847 52.09429663 -0.04483816 61.61696923 -0.03323323 C69.35785146 -0.02419111 77.09869835 -0.02297828 84.83958435 -0.02732849 C85.94228714 -0.02794142 87.04498994 -0.02855436 88.18110797 -0.02918586 C90.42139106 -0.03046479 92.66167414 -0.03176165 94.90195721 -0.03307623 C115.89758075 -0.04447602 136.89313437 -0.03137773 157.88874644 -0.00987476 C175.89481942 0.00799566 193.90078924 0.00489138 211.90686035 -0.0135498 C232.82855378 -0.03496711 253.75018597 -0.04337744 274.67188883 -0.03110075 C276.90382289 -0.02982658 279.13575696 -0.0285691 281.36769104 -0.02732849 C283.01482199 -0.02640284 283.01482199 -0.02640284 284.69522831 -0.02545848 C292.42471777 -0.02200817 300.1541683 -0.02782707 307.88365173 -0.0372467 C317.30632212 -0.0484776 326.72885925 -0.04540364 336.15151441 -0.02412373 C340.95696047 -0.01362806 345.76218455 -0.00946621 350.56762886 -0.02272034 C354.97069355 -0.03468076 359.37333147 -0.02802177 363.77635771 -0.00681013 C365.36503892 -0.0023595 366.95375653 -0.00457557 368.54241413 -0.01431328 C383.62755735 -0.09965078 395.11406113 3.36349794 406.2911377 13.75793457 C417.4304922 25.49035656 421.96961416 41.23570539 421.82827759 57.07789612 C421.82842546 57.9866389 421.82857334 58.89538168 421.8287257 59.83166212 C421.82701129 62.84762748 421.81120138 65.86334994 421.79553223 68.87927246 C421.79173011 71.05330764 421.78892334 73.22734476 421.78703308 75.40138245 C421.78160439 80.06882855 421.77063722 84.73621728 421.75577164 89.40364265 C421.73378377 96.78742433 421.73339271 104.1711088 421.73764038 111.55491638 C421.73883359 114.08661364 421.7400026 116.61831092 421.74114799 119.1500082 C421.74172825 120.41740459 421.7423085 121.68480098 421.74290633 122.99060333 C421.74892621 140.17037443 421.7364757 157.34997119 421.68273926 174.52966309 C421.64661501 186.13405611 421.63884909 197.73809714 421.66323745 209.34252542 C421.67492155 215.47815064 421.67184863 221.61298737 421.63373184 227.7485218 C421.59800538 233.51666536 421.59936297 239.2836119 421.62896156 245.05177879 C421.63317942 247.1653132 421.62376346 249.27892662 421.59953499 251.39232635 C420.99595646 264.14934512 420.99595646 264.14934512 426.53915405 275.08555603 C427.24971388 275.68278693 427.9602737 276.28001783 428.69236565 276.89534664 C432.37088272 279.9990033 433.30709869 284.10173235 433.8770752 288.72668457 C434.14036393 294.64055468 433.1585339 300.51278788 429.2208252 305.12902832 C428.74902832 305.62531738 428.27723145 306.12160645 427.7911377 306.63293457 C427.0692627 307.58168457 426.3473877 308.53043457 425.6036377 309.50793457 C425.9344755 312.43321683 425.9344755 312.43321683 427.6036377 315.50793457 C428.32286872 317.25348401 429.03052513 319.00383225 429.7286377 320.75793457 C430.25844238 322.03410645 430.25844238 322.03410645 430.7989502 323.33605957 C431.6036377 325.50793457 431.6036377 325.50793457 431.6036377 327.50793457 C433.3361377 327.41512207 433.3361377 327.41512207 435.1036377 327.32043457 C441.94657328 327.33254596 447.68464931 329.72558475 452.6036377 334.50793457 C458.0240606 341.88573241 457.85112342 348.15555132 457.89880371 356.9666748 C457.91029084 358.44366053 457.93069097 359.92060582 457.96032715 361.39733887 C458.14700976 370.70539629 458.27220039 378.09783283 451.85754395 385.53137207 C445.05357776 390.9682596 440.2566902 391.81037136 431.6036377 391.50793457 C431.42187988 392.12539551 431.24012207 392.74285645 431.05285645 393.37902832 C430.80148926 394.22594238 430.55012207 395.07285645 430.2911377 395.94543457 C430.02816895 396.85809082 429.7652002 397.77074707 429.4942627 398.71105957 C428.6036377 401.50793457 428.6036377 401.50793457 427.5255127 403.92980957 C426.53635402 406.20644462 425.80743624 408.02992949 425.6036377 410.50793457 C426.83223104 412.64016723 428.27274647 414.11495663 430.02941895 415.83215332 C433.38061296 419.3995534 433.54460893 423.76417209 433.9161377 428.44543457 C433.5372702 438.31493278 428.20493604 443.74995984 421.6036377 450.50793457 C420.8302002 451.33164551 420.0567627 452.15535645 419.2598877 453.00402832 C412.59193608 459.95742307 407.15800292 463.86534974 397.4161377 464.82043457 C390.08280978 464.21934212 384.7479463 461.65224317 379.6036377 456.50793457 C375.56621728 456.93442264 372.11353257 458.45827855 368.4161377 460.07043457 C362.81610228 462.50793457 362.81610228 462.50793457 360.6036377 462.50793457 C360.65004395 463.13699707 360.6964502 463.76605957 360.7442627 464.41418457 C361.01054815 470.72895383 360.39464391 475.34241148 356.6036377 480.50793457 C352.15763521 485.24893248 347.84324921 488.22932377 341.22546387 488.79846191 C337.81478967 488.83891243 334.40493148 488.879302 330.99401855 488.87854004 C328.80775331 488.88290142 326.62352919 488.91922321 324.43762207 488.95715332 C315.88909496 489.02775532 309.07189722 488.84680434 302.5802002 482.54309082 C297.97543093 475.82225707 296.27451015 470.61136768 295.6036377 462.50793457 C293.52144721 461.69251026 291.43784009 460.88070268 289.3536377 460.07043457 C287.61340332 459.39174316 287.61340332 459.39174316 285.8380127 458.69934082 C284.77066895 458.30617676 283.7033252 457.9130127 282.6036377 457.50793457 C281.88305176 457.2320752 281.16246582 456.95621582 280.42004395 456.67199707 C278.49640585 456.31757168 278.49640585 456.31757168 276.70910645 457.65246582 C276.07617676 458.20289551 275.44324707 458.7533252 274.7911377 459.32043457 C269.18195519 463.7973932 263.76268629 465.12509393 256.6036377 464.50793457 C247.99232456 463.00471283 243.10375202 457.82008802 237.2286377 451.69543457 C236.34047363 450.80533691 235.45230957 449.91523926 234.53723145 448.99816895 C228.33869393 442.67303498 224.17639026 437.83974122 224.1661377 428.63293457 C224.29711686 422.43107123 225.19742589 418.66591244 228.6036377 413.50793457 C229.44475098 412.8176416 229.44475098 412.8176416 230.30285645 412.11340332 C230.73211426 411.58359863 231.16137207 411.05379395 231.6036377 410.50793457 C231.10656139 406.32714267 229.57679254 402.59363532 228.0411377 398.69543457 C227.58609863 397.53398926 227.13105957 396.37254395 226.66223145 395.17590332 C226.31289551 394.29547363 225.96355957 393.41504395 225.6036377 392.50793457 C224.49974197 392.50650955 223.39584625 392.50508453 222.25849915 392.50361633 C211.85554041 392.48694719 201.45297289 392.44417605 191.05022144 392.375844 C185.70200301 392.34155246 180.35407089 392.31646063 175.0057373 392.31237793 C169.84428315 392.30809967 164.68347512 392.27967587 159.52222252 392.23450279 C157.553095 392.22151272 155.58389021 392.21722544 153.61472511 392.22178078 C150.85616916 392.22667604 148.0995094 392.20064282 145.34118652 392.1673584 C144.1198275 392.18029686 144.1198275 392.18029686 142.87379456 392.1934967 C138.73272016 392.10972827 137.04094663 391.83459954 133.62004089 389.27922058 C131.6036377 386.50793457 131.6036377 386.50793457 130.6036377 381.50793457 C123.0136377 381.50793457 115.4236377 381.50793457 107.6036377 381.50793457 C107.2736377 383.48793457 106.9436377 385.46793457 106.6036377 387.50793457 C104.42638164 390.09342613 102.80361714 391.29489474 99.4473877 391.89074707 C95.49386333 392.08842329 93.12499442 391.79033613 89.6036377 389.88293457 C87.6036377 387.50793457 87.6036377 387.50793457 86.6036377 381.50793457 C78.6836377 381.50793457 70.7636377 381.50793457 62.6036377 381.50793457 C62.2736377 383.48793457 61.9436377 385.46793457 61.6036377 387.50793457 C58.91362894 390.4817077 57.27843092 391.40402706 53.30502319 392.01586914 C52.05246735 392.01905151 50.7999115 392.02223389 49.50939941 392.0255127 C48.46679207 392.03602661 48.46679207 392.03602661 47.40312195 392.04675293 C45.11277884 392.0643072 42.82368022 392.05271288 40.5333252 392.03918457 C38.93014287 392.04188208 37.32696215 392.04576666 35.7237854 392.05078125 C32.36293976 392.05667434 29.00251971 392.04812667 25.64172363 392.02941895 C21.36149209 392.00673954 17.08227005 392.01968268 12.80207634 392.0437088 C9.48860279 392.05826696 6.17536241 392.05351349 2.86188126 392.04319763 C1.28563438 392.04055212 -0.29063452 392.04372245 -1.86685562 392.05311584 C-16.40067675 392.12067218 -27.23430695 389.29593751 -38.3963623 379.50793457 C-50.40335357 367.35552991 -54.70838231 352.67822682 -54.66378784 336.05439758 C-54.66831895 334.81125107 -54.67285007 333.56810456 -54.67751849 332.28728694 C-54.68795925 328.85290999 -54.68949339 325.41874313 -54.68712974 321.98436534 C-54.68672042 318.2739144 -54.69777172 314.56349431 -54.70724487 310.85305786 C-54.72383149 303.58930393 -54.72935338 296.32558247 -54.73046963 289.06181119 C-54.73142129 283.15440455 -54.73553751 277.24700859 -54.74187088 271.33960533 C-54.75947757 254.57477255 -54.76871075 237.80996535 -54.76720993 221.04512326 C-54.76713002 220.14202824 -54.76705011 219.23893322 -54.76696777 218.30847168 C-54.76684513 216.95216649 -54.76684513 216.95216649 -54.76672001 215.5684612 C-54.76590746 200.92132571 -54.78503874 186.27429314 -54.81324451 171.62718741 C-54.84200684 156.57170883 -54.85578293 141.51628039 -54.85405695 126.46077365 C-54.85339417 118.01469143 -54.85883741 109.56871708 -54.88041306 101.12265968 C-54.89866908 93.93024546 -54.9029361 86.737988 -54.88939421 79.54556058 C-54.88288651 75.88007739 -54.88266695 72.21489457 -54.90010071 68.54944038 C-54.9188563 64.56486553 -54.9062197 60.5809791 -54.89083862 56.59638977 C-54.90112575 55.45297444 -54.91141288 54.3095591 -54.92201173 53.13149482 C-54.79727762 38.43904498 -49.46594476 24.16134737 -39.3651123 13.35168457 C-27.61778696 2.35022115 -15.65808033 -0.09597652 0 0 Z " fill="#020202" transform="translate(54.3963623046875,11.4920654296875)"/>
<path d="M0 0 C143.55 0 287.1 0 435 0 C435 33.33 435 66.66 435 101 C432.03 101.33 429.06 101.66 426 102 C423.29233489 102.98460019 423.29233489 102.98460019 421.125 104.375 C420.40570313 104.79523438 419.68640625 105.21546875 418.9453125 105.6484375 C416.94522034 106.91140044 416.94522034 106.91140044 415.5546875 108.7265625 C414 110 414 110 411.80078125 109.87890625 C408.1818644 108.74326289 404.69251809 107.38311033 401.1875 105.9375 C400.49462891 105.65583984 399.80175781 105.37417969 399.08789062 105.08398438 C397.39032376 104.39325027 395.69493688 103.69716272 394 103 C393.98582031 102.29875 393.97164063 101.5975 393.95703125 100.875 C393.53836531 92.5469423 391.56256826 87.38443985 385.5 81.625 C378.93564876 77.35817169 372.83135315 77.65973522 365.18994141 77.68432617 C363.13780285 77.68748032 361.08711635 77.66401991 359.03515625 77.63867188 C350.66231268 77.63454732 344.94616795 77.78800283 338.3125 83.1875 C333.20674424 89.39720296 331.46323263 95.04503235 331 103 C328.42249905 104.20183475 325.83928838 105.38656886 323.25 106.5625 C322.52039063 106.90474609 321.79078125 107.24699219 321.0390625 107.59960938 C319.97558594 108.07817383 319.97558594 108.07817383 318.890625 108.56640625 C318.24125977 108.86490479 317.59189453 109.16340332 316.92285156 109.47094727 C314.5709229 110.11805613 313.27831631 109.80544428 311 109 C309.25390625 107.87890625 309.25390625 107.87890625 307.5625 106.5625 C301.86938411 102.39797971 297.0285441 101.03063798 290 102 C282.26367083 104.78727092 276.72371594 109.49786357 271.0625 115.3125 C270.32193359 116.03373047 269.58136719 116.75496094 268.81835938 117.49804688 C262.99464618 123.37446336 259.60407982 128.88994466 259.5 137.4375 C259.6719611 143.94487009 262.19962907 149.06190591 266.66796875 153.75 C267.10753906 154.1625 267.54710937 154.575 268 155 C266.58632741 159.34671293 265.02739359 163.6135639 263.375 167.875 C262.92898438 169.02742187 262.48296875 170.17984375 262.0234375 171.3671875 C261.68570312 172.23601562 261.34796875 173.10484375 261 174 C260.29875 174.01417969 259.5975 174.02835938 258.875 174.04296875 C250.41642952 174.4681958 244.84797434 176.61560974 239.125 182.9375 C235.76840647 187.77494362 234.76626455 192.22411297 234.5859375 198.0546875 C234.52792969 199.71757812 234.52792969 199.71757812 234.46875 201.4140625 C234.42234375 203.12722656 234.42234375 203.12722656 234.375 204.875 C234.31699219 206.62296875 234.31699219 206.62296875 234.2578125 208.40625 C234.16389681 211.27067864 234.07822017 214.13510692 234 217 C233.23436234 217.00142502 232.46872467 217.00285004 231.67988586 217.00431824 C224.45547252 217.02216655 217.2317712 217.06383283 210.00767231 217.13209057 C206.29385149 217.16634532 202.58044134 217.19146804 198.86645508 217.19555664 C195.28045516 217.1998431 191.69538136 217.2283321 188.10967064 217.27343178 C186.74343452 217.28639611 185.3770875 217.29071815 184.0107975 217.28615379 C175.76633128 216.87062004 175.76633128 216.87062004 168.68432617 220.29418945 C166.76568449 223.06804682 166.76568449 223.06804682 166 227 C158.08 227 150.16 227 142 227 C141.67 228.98 141.34 230.96 141 233 C138.82274395 235.58549156 137.19997944 236.78696017 133.84375 237.3828125 C129.89022564 237.58048872 127.52135673 237.28240156 124 235.375 C122 233 122 233 121 227 C112.75 227 104.5 227 96 227 C95.34 225.02 94.68 223.04 94 221 C91.69867033 218.52388167 90.40945787 218.0505479 87.04269409 217.63491821 C85.89149078 217.63889618 84.74028748 217.64287415 83.55419922 217.64697266 C82.24538788 217.64331696 80.93657654 217.63966125 79.58810425 217.63589478 C78.89064968 217.64069477 78.19319511 217.64549477 77.47460556 217.65044022 C75.27851682 217.66422679 73.08332717 217.65771146 70.88723755 217.64559937 C64.64481699 217.61471807 58.40260548 217.61939915 52.16015625 217.63964844 C48.33625336 217.65064042 44.51302269 217.63721406 40.6892128 217.60975266 C39.24053482 217.60435222 37.79178792 217.60827243 36.34316635 217.62215042 C26.57719203 217.71455821 18.35697699 216.95995636 10.8991394 210.05484009 C-37.39316674 159.22559917 0 70.11247082 0 0 Z " fill="#FEFEFE" transform="translate(20,166)"/>
<path d="M0 0 C1.60916809 -0.0046119 3.21833196 -0.01096676 4.82748705 -0.01890898 C9.23876569 -0.03558595 13.64969756 -0.02736338 18.06097734 -0.0149641 C22.82249495 -0.00590918 27.58395319 -0.01988559 32.34545898 -0.03088379 C41.66934393 -0.04866926 50.99310008 -0.04482877 60.31699007 -0.03323323 C67.8953947 -0.02419876 75.47376324 -0.02297497 83.05217171 -0.02732849 C84.67023439 -0.02824789 84.67023439 -0.02824789 86.32098522 -0.02918586 C88.51239137 -0.03046477 90.70379752 -0.03176162 92.89520366 -0.03307623 C113.44390516 -0.04448225 133.99253529 -0.03136824 154.54122508 -0.00987476 C172.16989891 0.00799369 189.79846736 0.00489422 207.42713928 -0.0135498 C227.90088767 -0.03496048 248.37457349 -0.04338094 268.84833151 -0.03110075 C271.03197037 -0.02982656 273.21560924 -0.02856908 275.39924812 -0.02732849 C277.01081316 -0.02640284 277.01081316 -0.02640284 278.65493507 -0.02545848 C286.22302516 -0.02200599 293.79107553 -0.02783182 301.35915947 -0.0372467 C310.58396673 -0.04847035 319.80863787 -0.04541899 329.03342956 -0.02412373 C333.73937053 -0.0136179 338.44508461 -0.00948353 343.15102386 -0.02272034 C347.4609693 -0.03465984 351.77047802 -0.02805607 356.08038396 -0.00681013 C357.63749083 -0.00235063 359.19463476 -0.00459569 360.75171768 -0.01431328 C371.07388994 -0.07377935 379.87664885 0.69165192 387.88246155 7.89465332 C411.48699675 34.89928777 397.2926178 90.13101324 397.2926178 113.50793457 C253.7426178 113.50793457 110.1926178 113.50793457 -37.7073822 113.50793457 C-37.7073822 18.73462561 -37.7073822 18.73462561 -28.3948822 8.94543457 C-27.69749939 8.18102051 -27.00011658 7.41660645 -26.28160095 6.62902832 C-18.02207637 -0.1766194 -10.22227095 -0.06369675 0 0 Z " fill="#89A7BC" transform="translate(57.70738220214844,31.4920654296875)"/>
<path d="M0 0 C0.91644287 0.00523682 1.83288574 0.01047363 2.77709961 0.01586914 C3.76645508 0.0190918 4.75581055 0.02231445 5.77514648 0.02563477 C6.81606445 0.03401367 7.85698242 0.04239258 8.92944336 0.05102539 C10.49662109 0.05779297 10.49662109 0.05779297 12.09545898 0.06469727 C14.68600996 0.07652627 17.27644895 0.0930085 19.86694336 0.11352539 C19.92301758 1.75901367 19.92301758 1.75901367 19.98022461 3.43774414 C20.04590989 4.89220396 20.11235634 6.34662955 20.17944336 7.80102539 C20.20200195 8.52225586 20.22456055 9.24348633 20.24780273 9.98657227 C20.46943727 14.39911441 20.76911245 17.72738151 23.86694336 21.11352539 C26.52439926 22.39255795 29.27895838 23.1465019 32.11694336 23.92602539 C38.54851689 25.83923549 44.14380408 28.15972658 49.92944336 31.55102539 C56.44505507 35.27092567 56.44505507 35.27092567 63.74194336 35.21508789 C67.62635442 33.20147775 70.58234305 30.16735598 73.60522461 27.04711914 C75.86694336 25.11352539 75.86694336 25.11352539 79.86694336 25.11352539 C82.43651859 26.8590111 84.50709236 29.1509018 86.67944336 31.36352539 C87.28981445 31.95004883 87.90018555 32.53657227 88.52905273 33.14086914 C89.10075195 33.71450195 89.67245117 34.28813477 90.26147461 34.87915039 C91.04808472 35.66467285 91.04808472 35.66467285 91.85058594 36.46606445 C92.86694336 38.11352539 92.86694336 38.11352539 92.64086914 40.19067383 C91.58663292 42.80996862 89.99295659 44.20300319 87.92944336 46.11352539 C84.11353302 49.58988671 84.11353302 49.58988671 81.86694336 54.11352539 C82.10972558 59.77844378 83.96205109 63.76709184 86.61694336 68.61352539 C90.13098517 75.2552443 92.55646616 81.77234875 94.56616211 89.00415039 C96.13712241 92.7593588 97.32478294 94.11353005 100.86694336 96.11352539 C103.72961672 96.5293485 106.25658054 96.76244136 109.11694336 96.80102539 C116.77696149 97.02354352 116.77696149 97.02354352 117.86694336 98.11352539 C117.96593859 99.66308098 117.9977386 101.21706212 117.99975586 102.76977539 C118.00104492 103.70950195 118.00233398 104.64922852 118.00366211 105.61743164 C117.99979492 106.60614258 117.99592773 107.59485352 117.99194336 108.61352539 C117.99581055 109.60223633 117.99967773 110.59094727 118.00366211 111.60961914 C118.00172852 113.01920898 118.00172852 113.01920898 117.99975586 114.45727539 C117.99862793 115.32545898 117.9975 116.19364258 117.99633789 117.08813477 C117.86694336 119.11352539 117.86694336 119.11352539 116.86694336 120.11352539 C113.34361621 120.24961957 109.82653839 120.3614856 106.30053711 120.36743164 C102.31968917 120.49806396 100.33172303 120.78678655 96.99975586 123.12915039 C94.35932291 126.82382214 93.21807748 130.28124563 91.99194336 134.61352539 C89.80821108 141.82752339 87.12426417 147.82006754 83.08959961 154.21899414 C81.49151413 158.00232111 81.8225479 160.17556675 82.86694336 164.11352539 C84.31219357 166.47988505 84.31219357 166.47988505 86.24194336 168.36352539 C87.15073242 169.33032227 87.15073242 169.33032227 88.07788086 170.31665039 C89.81507379 172.11823938 89.81507379 172.11823938 91.65600586 173.59790039 C92.05561523 174.09805664 92.45522461 174.59821289 92.86694336 175.11352539 C92.22118964 180.01075466 88.90580926 182.58921483 85.55444336 185.92602539 C84.97243164 186.53639648 84.39041992 187.14676758 83.79077148 187.77563477 C83.22165039 188.34733398 82.6525293 188.9190332 82.06616211 189.50805664 C81.54884521 190.03246338 81.03152832 190.55687012 80.49853516 191.09716797 C78.86694336 192.11352539 78.86694336 192.11352539 76.81005859 191.90332031 C73.96307482 190.7461407 72.34148358 188.83243746 70.24194336 186.61352539 C66.44683013 182.38400312 66.44683013 182.38400312 61.22241211 180.81665039 C56.88434144 181.20046107 53.95621038 182.80086801 50.17944336 184.86352539 C43.87605958 188.16840189 37.61139919 190.82041041 30.86694336 193.11352539 C25.59589365 195.00653507 25.59589365 195.00653507 21.86694336 199.11352539 C21.59089723 202.01058682 21.40263083 204.83600802 21.30444336 207.73852539 C20.98748287 215.99298588 20.98748287 215.99298588 19.86694336 217.11352539 C18.31738777 217.21252062 16.76340663 217.24432063 15.21069336 217.24633789 C13.80110352 217.24827148 13.80110352 217.24827148 12.36303711 217.25024414 C11.37432617 217.24637695 10.38561523 217.24250977 9.36694336 217.23852539 C8.37823242 217.24239258 7.38952148 217.24625977 6.37084961 217.25024414 C5.43112305 217.24895508 4.49139648 217.24766602 3.52319336 217.24633789 C2.65500977 217.24520996 1.78682617 217.24408203 0.89233398 217.24291992 C-1.13305664 217.11352539 -1.13305664 217.11352539 -2.13305664 216.11352539 C-2.30300477 212.80520172 -2.43017316 209.50395432 -2.47485352 206.19165039 C-2.67078096 201.23423036 -3.50945464 198.53724899 -7.13305664 195.11352539 C-8.93643447 194.10979123 -8.93643447 194.10979123 -10.94555664 193.67602539 C-15.26672389 192.41181613 -19.45082029 190.90040995 -23.63305664 189.23852539 C-24.60915894 188.85374023 -24.60915894 188.85374023 -25.60498047 188.46118164 C-29.31685853 186.9620008 -32.72607503 185.27038566 -36.13305664 183.17602539 C-39.04804895 181.50331018 -40.20407903 181.10854136 -43.69555664 180.86352539 C-49.052135 182.81137207 -52.99915391 186.54161105 -56.61743164 190.90258789 C-57.11758789 191.30219727 -57.61774414 191.70180664 -58.13305664 192.11352539 C-63.03028591 191.46777167 -65.60874608 188.15239129 -68.94555664 184.80102539 C-69.55592773 184.21901367 -70.16629883 183.63700195 -70.79516602 183.03735352 C-71.65271484 182.18367188 -71.65271484 182.18367188 -72.52758789 181.31274414 C-73.05199463 180.79542725 -73.57640137 180.27811035 -74.11669922 179.74511719 C-75.13305664 178.11352539 -75.13305664 178.11352539 -74.89111328 176.0090332 C-73.9396292 173.62986334 -72.78578206 172.72034791 -70.75805664 171.17602539 C-67.78005057 168.73002451 -65.64040431 166.7488933 -64.13305664 163.11352539 C-63.5938102 157.31662611 -65.0453191 153.56237987 -67.82055664 148.61352539 C-71.38069526 141.96751591 -73.81586719 135.47885577 -75.83227539 128.22290039 C-77.40323569 124.46769198 -78.59089622 123.11352073 -82.13305664 121.11352539 C-84.99573 120.69770228 -87.52269382 120.46460942 -90.38305664 120.42602539 C-98.04307477 120.20350726 -98.04307477 120.20350726 -99.13305664 119.11352539 C-99.22006006 117.47879657 -99.24006727 115.84038484 -99.23071289 114.20336914 C-99.22749023 113.21401367 -99.22426758 112.2246582 -99.22094727 111.20532227 C-99.21256836 110.1644043 -99.20418945 109.12348633 -99.19555664 108.05102539 C-99.19104492 107.00624023 -99.1865332 105.96145508 -99.18188477 104.88500977 C-99.17005577 102.29445879 -99.15357353 99.7040198 -99.13305664 97.11352539 C-98.03606445 97.07614258 -96.93907227 97.03875977 -95.80883789 97.00024414 C-94.35437807 96.93455886 -92.89995248 96.86811241 -91.44555664 96.80102539 C-90.72432617 96.7784668 -90.0030957 96.7559082 -89.26000977 96.73266602 C-84.82012296 96.509658 -81.69560909 96.03200056 -78.13305664 93.11352539 C-77.08067246 91.32563287 -77.08067246 91.32563287 -76.63305664 89.23852539 C-73.89271975 79.8080923 -70.4148849 71.03378454 -65.26977539 62.64868164 C-63.89508106 59.5827826 -63.82472548 57.44168825 -64.13305664 54.11352539 C-66.59963811 49.47635223 -69.94122836 46.24902817 -73.84008789 42.82446289 C-75.13305664 41.11352539 -75.13305664 41.11352539 -74.87304688 39.19726562 C-73.63379101 35.70764212 -70.94640507 33.37352863 -68.38305664 30.80102539 C-67.85711914 30.23834961 -67.33118164 29.67567383 -66.78930664 29.09594727 C-62.86999038 25.13297525 -62.86999038 25.13297525 -59.46899414 25.04321289 C-56.8762301 26.23120177 -55.42317523 27.44789287 -53.50805664 29.55102539 C-50.27943569 33.04991552 -48.3397983 34.99913634 -43.38305664 35.46899414 C-38.98722089 35.35167827 -35.81484506 33.70175456 -32.13305664 31.42602539 C-26.08597103 27.9088035 -20.20566911 25.59833455 -13.41235352 23.92529297 C-10.23737266 23.0785505 -8.19575135 22.16881441 -5.71899414 19.98461914 C-3.68255973 16.29797065 -3.50105445 12.97776335 -3.44555664 8.86352539 C-3.19301406 0.16993837 -3.19301406 0.16993837 0 0 Z " fill="#CAF2F9" transform="translate(374.133056640625,262.886474609375)"/>
<path d="M0 0 C0.84626953 -0.00773437 1.69253906 -0.01546875 2.56445312 -0.0234375 C19.07904155 0.02749415 33.19399891 7.77624137 45.0625 18.8125 C56.38856215 30.61938554 61.92302095 45.14817489 62.375 61.4375 C61.73288267 78.65791938 55.09124847 94.57446422 42.78515625 106.6953125 C29.43560108 118.67145664 12.20643212 123.96570708 -5.57421875 123.625 C-21.43102336 121.92034911 -36.82110086 113.99553283 -47.1171875 101.8203125 C-59.62997824 85.5300755 -62.53838952 69.26306183 -61.0625 49.25 C-60.26842428 44.88258356 -59.0079473 41.22627474 -57.0625 37.25 C-56.46115234 35.89648438 -56.46115234 35.89648438 -55.84765625 34.515625 C-48.46710865 19.36945775 -34.85732068 7.86546887 -19.0625 2.25 C-12.67934416 0.41863194 -6.61810145 -0.06076298 0 0 Z " fill="#030303" transform="translate(383.0625,309.75)"/>
<path d="M0 0 C0.96831757 -0.00671722 1.93663513 -0.01343445 2.93429565 -0.02035522 C6.12788055 -0.03931453 9.32125494 -0.04325874 12.51489258 -0.04541016 C14.74441106 -0.05184072 16.97392871 -0.05856928 19.20344543 -0.06558228 C23.87637283 -0.07755076 28.54922633 -0.08126366 33.22216797 -0.08007812 C39.18932808 -0.07987524 45.15601031 -0.10714795 51.12305737 -0.14162254 C55.72923426 -0.16394131 60.33529718 -0.16791409 64.9415226 -0.16685867 C67.1401973 -0.16920826 69.33887545 -0.17799532 71.53749657 -0.19352341 C97.49205485 -0.35963273 97.49205485 -0.35963273 108.44067383 8.52490234 C111.67308295 11.728957 113.97744175 15.35394351 116.22192383 19.29052734 C116.84067383 20.32177734 117.45942383 21.35302734 118.09692383 22.41552734 C121.15450826 30.35419536 120.11573855 40.04872829 117.09692383 47.79052734 C112.51312704 57.3561537 106.17410656 63.19142958 96.20994568 66.83656311 C91.08084986 68.51740973 86.35890345 68.72123734 80.99560547 68.69458008 C80.01548996 68.70144333 79.03537445 68.70830658 78.02555847 68.71537781 C74.81091503 68.73356185 71.59676353 68.72982032 68.38208008 68.72412109 C66.1320327 68.7286868 63.88198672 68.73399353 61.63194275 68.74000549 C56.92563192 68.74892006 52.21949093 68.74653211 47.51318359 68.73657227 C41.50002554 68.725083 35.48745477 68.74530246 29.47437382 68.7744894 C24.83048313 68.79288742 20.18673226 68.79255175 15.54281425 68.78685188 C13.32657484 68.78669912 11.11032569 68.79270596 8.89412117 68.80514336 C5.78825779 68.82011998 2.68346788 68.80932698 -0.42236328 68.79223633 C-1.32604645 68.8019043 -2.22972961 68.81157227 -3.16079712 68.8215332 C-13.71505354 68.70070207 -21.13788062 64.73451024 -28.64916992 57.51708984 C-35.25024262 50.61321564 -37.89319196 43.30221982 -38.21557617 33.85302734 C-37.90385375 23.54220873 -34.2854948 16.89688123 -27.21557617 9.48974609 C-19.21593014 2.27211674 -10.53542482 -0.01054474 0 0 Z " fill="#010102" transform="translate(303.778076171875,54.70947265625)"/>
<path d="M0 0 C8.54318519 6.17951912 13.8682288 14.29218639 17.1875 24.25 C18.41058118 37.44915468 17.61661369 49.72948274 8.9453125 60.33984375 C1.88548917 68.01151844 -6.08771961 74.49282191 -16.85205078 75.42700195 C-31.6339491 75.84718955 -41.49434575 74.52340155 -52.8125 64.25 C-60.45848824 56.8820477 -64.82408358 47.70209064 -65.15600586 37.10717773 C-65.31758229 25.01399568 -62.74037488 15.74418167 -54.8203125 6.28125 C-39.61104004 -9.1055626 -18.38014991 -11.32514288 0 0 Z " fill="#FDFDFD" transform="translate(406.8125,336.75)"/>
<path d="M0 0 C7.2130175 5.21276895 12.1192143 11.87117105 14.44921875 20.4921875 C15.48171482 32.68100475 14.34433482 41.91752643 6.46875 51.41796875 C-0.52531136 58.60142442 -8.84645237 62.54187262 -18.80078125 62.9921875 C-28.29895886 62.73904951 -36.87186668 59.20927686 -43.796875 52.66015625 C-50.94060894 43.82992832 -53.69816716 33.71084825 -52.85449219 22.54394531 C-51.64703296 14.38680112 -46.95586989 7.18652129 -40.80078125 1.8671875 C-27.8267872 -7.2932386 -13.78572942 -8.14899166 0 0 Z " fill="#020202" transform="translate(112.55078125,60.5078125)"/>
<path d="M0 0 C7.70801801 5.47704319 15.2977127 13.3295594 17 23 C18.00867934 35.05454485 15.76383978 44.70957388 7.9140625 54.0625 C1.35932772 60.69749684 -7.24526103 64.07812553 -16.5 64.375 C-27.05615428 64.02214805 -36.08958234 59.44476656 -43.3125 51.75 C-50.0195193 43.11868268 -51.26963126 33.68360537 -50.30908203 23.04052734 C-49.0374228 14.64516569 -44.03585814 7.90094397 -37.54296875 2.69140625 C-25.72299364 -5.17042051 -12.72703775 -6.91322255 0 0 Z " fill="#020202" transform="translate(198,59)"/>
<path d="M0 0 C0.91461502 -0.00846954 1.82923004 -0.01693909 2.77156067 -0.02566528 C5.78486161 -0.04899936 8.79765082 -0.05005824 11.81103516 -0.04882812 C13.91322024 -0.05593214 16.0154034 -0.06363149 18.11758423 -0.07189941 C22.52066438 -0.0853362 26.92356526 -0.08691668 31.32666016 -0.08105469 C36.95796131 -0.07516112 42.58839959 -0.10574026 48.21953392 -0.14617157 C52.56054283 -0.17207248 56.90134467 -0.17492375 61.2424202 -0.17127991 C63.31798088 -0.17296908 65.39355134 -0.18259195 67.4690361 -0.20042419 C70.37707329 -0.22265972 73.28337295 -0.21288832 76.19140625 -0.1953125 C77.04153793 -0.20857574 77.89166962 -0.22183899 78.76756287 -0.23550415 C84.89699931 -0.14980361 88.95014332 1.57078985 93.72509766 5.41992188 C96.68688028 8.84448303 97.26934345 11.89298636 97.07275391 16.43164062 C96.27552021 20.99110075 93.60241061 23.68535616 90.1697998 26.55944824 C85.68018389 28.98427677 82.25406399 28.98389154 77.23486328 28.9375 C76.29752853 28.94450928 75.36019379 28.95151855 74.39445496 28.95874023 C71.30644817 28.97629694 68.21936322 28.96470547 65.13134766 28.95117188 C62.97953109 28.95386745 60.82771572 28.95775042 58.67590332 28.96276855 C54.17021059 28.96866047 49.66483545 28.96011029 45.15917969 28.94140625 C39.38876311 28.91861718 33.61909076 28.93174186 27.84870148 28.95569611 C23.406539 28.97016219 18.96455247 28.9655443 14.52238464 28.95518494 C12.39495251 28.95251991 10.26750431 28.95577951 8.14009094 28.96510315 C5.16474197 28.97528182 2.1905919 28.95974864 -0.78466797 28.9375 C-1.66069168 28.94559692 -2.53671539 28.95369385 -3.43928528 28.96203613 C-8.87091306 28.88693353 -11.94414582 28.00178714 -16.27490234 24.41992188 C-18.83166767 21.67623898 -20.17074372 18.90100665 -20.43505859 15.14257812 C-20.09472939 10.15385002 -19.05754442 6.89586325 -15.27490234 3.41992188 C-10.10918426 0.18422597 -5.90260046 -0.02025121 0 0 Z " fill="#C6EEF5" transform="translate(306.27490234375,74.580078125)"/>
<path d="M0 0 C3.9295493 0.92685276 5.41241975 2.29808529 8.00390625 5.47265625 C9.15211854 8.74670157 9.00536668 11.16370709 8.00390625 14.47265625 C5.4740598 18.55691084 2.28274484 21.98585978 -0.99609375 25.47265625 C-2.12569457 26.69597359 -3.25456866 27.91996228 -4.3828125 29.14453125 C-6.10169621 31.00543577 -7.82474402 32.86113468 -9.56518555 34.7019043 C-11.05623709 36.27974738 -12.52692219 37.87448689 -13.99609375 39.47265625 C-14.65867187 40.16488281 -15.32125 40.85710937 -16.00390625 41.5703125 C-17.23790748 43.46611965 -17.23790748 43.46611965 -16.59375 45.77734375 C-14.3566265 49.55146408 -11.48638895 52.4680813 -8.43359375 55.59765625 C-7.1673464 56.93437756 -5.90302968 58.27293031 -4.640625 59.61328125 C-4.0213916 60.26876953 -3.4021582 60.92425781 -2.76416016 61.59960938 C-2.18069824 62.21771484 -1.59723633 62.83582031 -0.99609375 63.47265625 C-0.48868652 64.00826172 0.0187207 64.54386719 0.54150391 65.09570312 C8.50202299 73.61903062 8.50202299 73.61903062 8.87890625 79.34765625 C8.50040794 82.49427653 7.82726526 83.75186298 6.06640625 86.53515625 C1.93994533 89.14577438 -1.23609528 89.38804057 -5.99609375 88.47265625 C-10.10364563 86.12548375 -12.92549661 82.38204768 -15.9765625 78.8125 C-18.27015282 76.15512939 -20.62786682 73.56369057 -22.99609375 70.97265625 C-40.60408877 51.62790907 -40.60408877 51.62790907 -41.30859375 44.16015625 C-40.76618076 37.75968297 -36.42863458 33.65689695 -32.18359375 29.09765625 C-29.23001404 25.8979449 -26.2883405 22.69845099 -23.43359375 19.41015625 C-20.016745 15.48441514 -16.56537415 11.59221861 -13.0546875 7.75 C-11.86839158 6.43764607 -10.70150469 5.10585594 -9.59375 3.7265625 C-6.84201196 0.45597824 -4.26421965 -0.31556844 0 0 Z " fill="#030303" transform="translate(97.99609375,229.52734375)"/>
<path d="M0 0 C7.75635557 4.82879403 13.93012867 13.24052078 20 20 C20.67417969 20.74765625 21.34835938 21.4953125 22.04296875 22.265625 C35.82982029 37.78766381 35.82982029 37.78766381 36.25 43.25 C35.81516594 49.77251085 32.63283851 53.73354679 28.25 58.375 C27.35925781 59.33019531 26.46851563 60.28539062 25.55078125 61.26953125 C24.70902344 62.17058594 23.86726563 63.07164062 23 64 C21.80510427 65.34764528 20.61666796 66.70107188 19.4375 68.0625 C8.08856089 81.10170664 8.08856089 81.10170664 2 87 C1.505 87.495 1.505 87.495 1 88 C-3.68420312 88.67746739 -7.01410797 88.62372761 -11.0625 86.0625 C-13.25812086 82.59200251 -13.98658093 80.57103018 -13.71875 76.5 C-12.13639251 70.99614785 -7.85384353 67.06801394 -4 63 C-3.41653809 62.38189453 -2.83307617 61.76378906 -2.23193359 61.12695312 C-1.6127002 60.47146484 -0.9934668 59.81597656 -0.35546875 59.140625 C0.27085449 58.47562988 0.89717773 57.81063477 1.54248047 57.12548828 C2.78598059 55.81278022 4.03867323 54.50870688 5.30126953 53.21435547 C8.39041463 49.99474356 10.73748614 47.39789597 12 43 C10.93072266 41.83984375 10.93072266 41.83984375 9.83984375 40.65625 C-0.92508236 28.95909184 -0.92508236 28.95909184 -6 23 C-6.65355469 22.28328125 -7.30710938 21.5665625 -7.98046875 20.828125 C-11.17403779 17.13097921 -13.46529035 14.2349386 -13.8125 9.25 C-13.49462122 5.61982435 -12.92720434 4.91300031 -10.4375 1.9375 C-6.33192394 -0.37655196 -4.6277476 -0.95746502 0 0 Z " fill="#030303" transform="translate(212,230)"/>
<path d="M0 0 C5.57894737 3.15789474 5.57894737 3.15789474 7 6 C7.50038545 11.96955755 6.71874514 17.5028434 5.3125 23.28515625 C5.0452562 24.43511581 5.0452562 24.43511581 4.77261353 25.60830688 C4.19164506 28.09548726 3.59622228 30.57893629 3 33.0625 C2.59101463 34.79713596 2.18265632 36.53191987 1.77490234 38.2668457 C-1.72536717 53.09628484 -5.38785586 67.8865544 -9.15380859 82.65063477 C-9.72497528 84.91140678 -10.28494254 87.17503367 -10.83447266 89.44116211 C-11.09534668 90.51503174 -11.3562207 91.58890137 -11.625 92.6953125 C-11.851875 93.64293457 -12.07875 94.59055664 -12.3125 95.56689453 C-13.27036744 98.95684727 -14.1749017 100.84400393 -17 103 C-20.06467835 103.95447768 -22.80054718 104.29709205 -26 104 C-29.63317916 101.91285453 -31.44849231 99.84380941 -33 96 C-33.14394539 90.17775158 -31.46055887 84.42854415 -29.875 78.875 C-27.51365774 70.26387237 -25.50374673 61.58933343 -23.5625 52.875 C-22.96560008 50.20425756 -22.36779955 47.53371747 -21.76953125 44.86328125 C-21.62193359 44.20443436 -21.47433594 43.54558746 -21.32226562 42.86677551 C-19.83819243 36.25579757 -18.31132274 29.65563245 -16.75 23.0625 C-16.51611572 22.05751465 -16.28223145 21.0525293 -16.04125977 20.01708984 C-12.64204126 5.77517974 -12.64204126 5.77517974 -8.6875 1.5 C-5.38187285 -0.3450012 -3.73535093 -0.60985321 0 0 Z " fill="#040404" transform="translate(165,222)"/>
<path d="M0 0 C3.48579191 1.98927391 6.19581306 4.39162612 8 8 C8.43011819 12.21019538 8.4699635 15.88692855 6.8125 19.8125 C3.41869763 23.90846838 0.10400191 26.79769212 -5.25 27.3125 C-10.47216101 26.87731992 -13.39025982 24.83177331 -16.8125 20.9375 C-19.23959201 16.97750777 -19.38595477 13.55426632 -19 9 C-14.49558148 0.63465133 -9.26469748 -1.65954384 0 0 Z " fill="#C8F0F7" transform="translate(99,76)"/>
<path d="M0 0 C4.4125235 2.1661479 7.09058512 4.43862 9 9 C9.57057837 14.23030176 8.84948106 17.57839146 6 22 C2.52528497 25.78130754 -0.73167426 26.81937274 -5.71875 27.16015625 C-9.77872352 26.87512386 -11.77962702 25.51189093 -15 23 C-17.90417134 18.9716333 -18.63640523 15.13179349 -18.49609375 10.25390625 C-17.61580235 6.25447212 -15.02579848 3.63385567 -12 1 C-8.28763586 -0.85618207 -4.05156912 -0.44809981 0 0 Z " fill="#D76FA5" transform="translate(186,76)"/>
<path d="M0 0 C3.26250137 1.89818262 5.38735287 3.29284844 6.6953125 6.9375 C7.32800358 10.49133923 7.20586882 12.52650171 5.75 15.875 C3.74449166 18.31026013 2.0965319 19.82340497 -1.0859375 20.3359375 C-5.21467052 20.40639369 -7.41215089 20.3674057 -11 18.125 C-13.5948069 15.36801767 -13.96110169 14.51540257 -14.25 10.6875 C-13.984656 6.77367606 -13.36680088 5.06807521 -11 2 C-7.28877404 -0.47415064 -4.30127435 -0.77098314 0 0 Z " fill="#030303" transform="translate(155,383)"/>
</svg>
