<?xml version="1.0" encoding="UTF-8"?>
<svg version="1.1" xmlns="http://www.w3.org/2000/svg" width="512" height="512">
<path d="M0 0 C5.82485779 3.51996782 10.54466582 8.98962934 12.5625 15.5 C13.36748575 23.33457059 13.68829143 31.12123733 8.5625 37.5 C4.89148574 41.35155594 1.82050152 44.33406555 -3.4375 45.5 C-5.34507538 58.15584272 -5.8295624 71.20478262 1.97070312 81.90795898 C3.91587464 84.3524236 5.98345438 86.62761627 8.15625 88.87109375 C8.72732294 89.4655555 9.29839588 90.06001724 9.88677406 90.67249298 C21.89541788 102.62535166 34.31403824 104.35850796 50.75719643 104.47528648 C57.17573649 104.44038965 63.57508989 104.17979173 69.98577881 103.87854004 C74.35627984 103.70643639 78.72335161 103.67017024 83.09678936 103.63811111 C88.38243529 103.59141658 93.66517065 103.46115454 98.94921875 103.328125 C99.92867651 103.3111985 100.90813427 103.294272 101.91727257 103.27683258 C115.8644328 102.96482625 124.95210453 100.16390419 136.5625 92.5 C137.5525 92.17 138.5425 91.84 139.5625 91.5 C142.75848324 72.29379997 142.75848324 72.29379997 137.12207031 54.30322266 C134.06085997 50.17591853 130.57291673 46.55651298 126.875 43 C126.28472015 42.41697113 125.69444031 41.83394226 125.08627319 41.23324585 C117.90313577 34.29288952 112.31575643 30.20855882 101.90307617 30.31445312 C101.13068604 30.37568359 100.3582959 30.43691406 99.5625 30.5 C99.113302 31.67151611 99.113302 31.67151611 98.6550293 32.86669922 C96.40666903 38.28587549 92.36334484 42.32393807 87.5 45.5 C80.75968602 47.83318561 71.67306544 47.87756782 65.125 45 C59.30014221 41.48003218 54.58033418 36.01037066 52.5625 29.5 C51.75735895 21.66391792 51.43789608 13.88077423 56.5625 7.5 C61.36698639 2.45478778 65.72427055 -1.10562995 72.83203125 -1.8359375 C81.38135727 -1.93019688 87.25559845 -1.60501554 93.5625 4.40625 C96.61644498 7.70648086 98.58353018 10.0851508 99.5625 14.5 C100.15675781 14.46334229 100.75101563 14.42668457 101.36328125 14.38891602 C104.09581169 14.24203719 106.82751138 14.15196224 109.5625 14.0625 C110.49707031 14.00384766 111.43164062 13.94519531 112.39453125 13.88476562 C117.23115709 13.76638667 120.61539994 13.96175005 124.37890625 17.1640625 C125.79444472 18.58880685 127.18543556 20.03803585 128.5625 21.5 C129.60239767 22.52925513 130.646892 23.55387754 131.69482422 24.57495117 C134.70254771 27.51131978 137.67963441 30.47648424 140.64672852 33.45385742 C142.51659753 35.32914563 144.39182899 37.19895465 146.26757812 39.06835938 C147.45865461 40.26009565 148.6494214 41.45214155 149.83984375 42.64453125 C150.68034523 43.48199638 150.68034523 43.48199638 151.53782654 44.33638 C155.47349549 48.29615377 156.68354393 49.99854779 156.7043457 55.52880859 C156.71489738 57.10086563 156.71489738 57.10086563 156.72566223 58.7046814 C156.72982651 59.84112091 156.73399078 60.97756042 156.73828125 62.1484375 C156.76147633 64.53907134 156.78559353 66.92969637 156.81054688 69.3203125 C156.8457047 73.10162263 156.87502696 76.8826086 156.88842773 80.6640625 C156.90386789 84.30508942 156.94405258 87.94516158 156.98828125 91.5859375 C156.98541862 93.28452408 156.98541862 93.28452408 156.98249817 95.01742554 C156.99898911 96.07176788 157.01548004 97.12611023 157.0324707 98.21240234 C157.03833694 99.13902679 157.04420319 100.06565125 157.05024719 101.02035522 C157.71932451 104.25913506 158.98702329 105.48757544 161.5625 107.5 C164.27707144 107.550788 164.27707144 107.550788 167.0625 106.75 C170.46177719 105.94687407 173.02332555 105.5 176.5625 105.5 C176.67207031 104.84515625 176.78164062 104.1903125 176.89453125 103.515625 C177.79837201 98.31302941 178.80793527 93.14470044 180 88 C180.33837891 86.53046875 180.33837891 86.53046875 180.68359375 85.03125 C181.60801395 82.36891981 182.34594382 81.1991782 184.5625 79.5 C187.5625 78.5 187.5625 78.5 196.5625 78.5 C196.5625 67.61 196.5625 56.72 196.5625 45.5 C194.9125 44.84 193.2625 44.18 191.5625 43.5 C186.44111193 39.94504381 181.72061695 35.86402132 180.5625 29.5 C179.81833136 21.60616048 179.39132694 13.93875866 184.5625 7.5 C189.36698639 2.45478778 193.72427055 -1.10562995 200.83203125 -1.8359375 C209.34826573 -1.92983204 215.23845494 -1.6177288 221.52734375 4.37109375 C227.9091668 11.27494731 229.04292252 16.70167929 228.8671875 26.0546875 C228.16700827 33.97209883 224.448306 38.10572493 218.5625 43.15234375 C216.5625 44.5 216.5625 44.5 212.5625 45.5 C212.5625 56.39 212.5625 67.28 212.5625 78.5 C215.5325 78.5 218.5025 78.5 221.5625 78.5 C224.4375 79.5 224.4375 79.5 226.5625 81.5 C229.99265754 88.62417336 232.5625 97.58092363 232.5625 105.5 C234.4851486 105.73611474 236.40802124 105.97056089 238.33203125 106.1953125 C240.34134498 106.46978968 242.33051388 106.88306967 244.3125 107.3125 C247.587252 107.85585122 247.587252 107.85585122 249.7384491 105.83624268 C251.91795556 103.04473286 252.04440878 101.80582031 251.99731445 98.30761719 C251.99300163 96.75515289 251.99300163 96.75515289 251.98860168 95.17132568 C251.95750557 93.5009726 251.95750557 93.5009726 251.92578125 91.796875 C251.92564678 89.4309895 251.92632337 87.06510384 251.92773438 84.69921875 C251.90687864 80.97512093 251.87502171 77.2516801 251.8269043 73.52783203 C251.78799353 69.92942166 251.79204717 66.33294105 251.80078125 62.734375 C251.7605761 61.0761673 251.7605761 61.0761673 251.71955872 59.38446045 C251.75386205 53.92416718 252.06851491 50.37560257 255.70263672 46.15112305 C256.9670232 44.91099826 258.25344902 43.69288231 259.5625 42.5 C260.64778894 41.38102282 261.72847001 40.25755364 262.80395508 39.12915039 C263.89399245 38.03267351 264.98674905 36.93889404 266.08203125 35.84765625 C266.66667648 35.26205429 267.25132172 34.67645233 267.85368347 34.07310486 C269.07334827 32.85276666 270.2942481 31.6336616 271.51635742 30.41577148 C273.39164563 28.54590247 275.26145465 26.67067101 277.13085938 24.79492188 C278.32259565 23.60384539 279.51464155 22.4130786 280.70703125 21.22265625 C281.54449638 20.38215477 281.54449638 20.38215477 282.39888 19.52467346 C287.39229813 14.56165238 287.39229813 14.56165238 290.71728516 14.38647461 C291.58659668 14.39171143 292.4559082 14.39694824 293.3515625 14.40234375 C294.29257812 14.40556641 295.23359375 14.40878906 296.203125 14.41210938 C297.18796875 14.42048828 298.1728125 14.42886719 299.1875 14.4375 C300.67636719 14.44426758 300.67636719 14.44426758 302.1953125 14.45117188 C304.6511016 14.46297855 307.10677104 14.479446 309.5625 14.5 C309.83835937 13.74847656 310.11421875 12.99695312 310.3984375 12.22265625 C312.89715644 6.37833712 317.25774137 1.75269085 323.09375 -0.83984375 C329.73785749 -2.61651173 337.61780805 -2.78676607 344 0 C349.82485779 3.51996782 354.54466582 8.98962934 356.5625 15.5 C357.36764105 23.33608208 357.68710392 31.11922577 352.5625 37.5 C347.75801361 42.54521222 343.40072945 46.10562995 336.29296875 46.8359375 C327.74364273 46.93019688 321.86940155 46.60501554 315.5625 40.59375 C312.50855502 37.29351914 310.54146982 34.9148492 309.5625 30.5 C301.39724012 29.85270705 295.67097022 31.23899509 289.38671875 36.34375 C286.9162261 38.47571375 284.57126384 40.70725048 282.25 43 C281.64320404 43.58359283 281.03640808 44.16718567 280.41122437 44.76846313 C271.98654269 53.08504042 267.79756992 60.22124604 267.69262695 72.19921875 C267.87616496 78.69355933 268.50630932 85.0888323 269.5625 91.5 C270.68269531 92.05429688 271.80289062 92.60859375 272.95703125 93.1796875 C274.42974038 93.91135191 275.90239372 94.64312861 277.375 95.375 C278.11298828 95.73980469 278.85097656 96.10460937 279.61132812 96.48046875 C280.67963867 97.01220703 280.67963867 97.01220703 281.76953125 97.5546875 C282.4241333 97.87937012 283.07873535 98.20405273 283.75317383 98.53857422 C285.5625 99.5 285.5625 99.5 288.5625 101.5 C291.49494085 101.82379444 294.34501949 102.03278577 297.28710938 102.15551758 C298.18052032 102.19917953 299.07393127 102.24284149 299.99441528 102.28782654 C308.31222617 102.67079169 316.6359302 102.89045349 324.96050262 103.06319141 C330.53832474 103.18076595 336.1034667 103.34863643 341.67480469 103.64672852 C370.38026246 105.79997109 370.38026246 105.79997109 395.59418297 94.24823856 C397.47083637 92.52053161 399.25639341 90.7415084 401.01953125 88.8984375 C401.84892212 88.03849906 401.84892212 88.03849906 402.69506836 87.16118813 C410.80212006 78.39446765 413.54942126 70.23710927 413.75 58.3125 C413.55693958 53.99731329 413.20626118 49.77104501 412.5625 45.5 C411.78148926 45.20053467 411.00047852 44.90106934 410.19580078 44.5925293 C404.77662451 42.34416903 400.73856193 38.30084484 397.5625 33.4375 C395.22931439 26.69718602 395.18493218 17.61056544 398.0625 11.0625 C401.58246782 5.23764221 407.05212934 0.51783418 413.5625 -1.5 C421.39858208 -2.30514105 429.18172577 -2.62460392 435.5625 2.5 C440.60771222 7.30448639 444.16812995 11.66177055 444.8984375 18.76953125 C444.99269688 27.31885727 444.66751554 33.19309845 438.65625 39.5 C435.35601914 42.55394498 432.9773492 44.52103018 428.5625 45.5 C428.59915771 46.57894531 428.63581543 47.65789062 428.67358398 48.76953125 C428.80102349 52.80215229 428.88090803 56.83459851 428.94702148 60.86865234 C428.98205827 62.60886642 429.02970509 64.34887688 429.09057617 66.08837891 C429.64712767 82.41077148 429.64712767 82.41077148 425.8984375 86.81640625 C424.47474987 88.06928022 423.02525692 89.29296982 421.5625 90.5 C419.94902026 92.0916475 418.37464802 93.71763205 416.79780579 95.34555054 C414.42808806 97.78542947 412.01780052 100.18338795 409.60864258 102.58422852 C407.73335437 104.45409753 405.86354535 106.32932899 403.99414062 108.20507812 C402.80240435 109.39615461 401.61035845 110.5869214 400.41796875 111.77734375 C399.85965866 112.33767807 399.30134857 112.89801239 398.72612 113.47532654 C394.39301227 117.78205681 392.61429815 118.61355686 386.47521973 118.62442017 C385.62214233 118.62082489 384.76906494 118.61722961 383.89013672 118.61352539 C382.99251617 118.61367142 382.09489563 118.61381744 381.17007446 118.6139679 C378.19408782 118.61326953 375.21816325 118.60548067 372.2421875 118.59765625 C370.18238357 118.5957918 368.12257919 118.59436802 366.06277466 118.59336853 C360.63432598 118.58954548 355.20590395 118.57971699 349.77746582 118.56866455 C344.24097046 118.55844588 338.70447081 118.55386993 333.16796875 118.54882812 C322.29946744 118.53809455 311.43098594 118.52102065 300.5625 118.5 C300.41756104 119.58676025 300.27262207 120.67352051 300.12329102 121.79321289 C299.57998685 125.38441322 298.69239745 128.51416538 297.5 131.9375 C297.13777344 132.98808594 296.77554687 134.03867188 296.40234375 135.12109375 C296.12519531 135.90613281 295.84804688 136.69117188 295.5625 137.5 C296.15546875 137.768125 296.7484375 138.03625 297.359375 138.3125 C299.57154989 139.50487795 301.05206473 140.72178256 302.8125 142.5 C303.33328125 143.015625 303.8540625 143.53125 304.390625 144.0625 C305.5625 145.5 305.5625 145.5 305.5625 147.5 C306.10140869 147.31824219 306.64031738 147.13648438 307.19555664 146.94921875 C309.66855955 146.12196786 312.14659482 145.31091518 314.625 144.5 C315.47255859 144.21382812 316.32011719 143.92765625 317.19335938 143.6328125 C322.11015545 142.03817593 326.32642707 140.98110989 331.5625 141.5 C334.71719651 143.78715497 336.16133581 145.6291821 337.79516602 149.17578125 C339.43099816 152.48303687 340.93367246 154.89511874 343.5625 157.5 C348.71897382 159.00865777 353.69348513 158.86399163 359 158.6875 C360.41339564 158.68053267 361.82682498 158.67853423 363.24023438 158.68164062 C366.68325836 158.67847042 370.12097784 158.60777608 373.5625 158.5 C373.86196533 157.71898926 374.16143066 156.93797852 374.4699707 156.13330078 C376.71833097 150.71412451 380.76165516 146.67606193 385.625 143.5 C392.36531398 141.16681439 401.45193456 141.12243218 408 144 C413.82485779 147.51996782 418.54466582 152.98962934 420.5625 159.5 C421.36764105 167.33608208 421.68710392 175.11922577 416.5625 181.5 C411.75801361 186.54521222 407.40072945 190.10562995 400.29296875 190.8359375 C391.74364273 190.93019688 385.86940155 190.60501554 379.5625 184.59375 C376.38284459 181.15767077 374.72068909 179.13275636 373.5625 174.5 C366.3025 174.5 359.0425 174.5 351.5625 174.5 C351.2325 176.48 350.9025 178.46 350.5625 180.5 C348.18786045 183.26276166 345.61153194 185.45912842 342.81640625 187.7890625 C340.01120263 190.22376753 337.68279268 192.44263296 335.5625 195.5 C335.29048603 199.53220715 336.33633201 202.70009325 337.5625 206.5 C337.5625 207.82 337.5625 209.14 337.5625 210.5 C338.21734375 210.60957031 338.8721875 210.71914062 339.546875 210.83203125 C344.74947059 211.73587201 349.91779956 212.74543527 355.0625 213.9375 C356.0421875 214.16308594 357.021875 214.38867188 358.03125 214.62109375 C360.69358019 215.54551395 361.8633218 216.28344382 363.5625 218.5 C364.5625 221.5 364.5625 221.5 364.5625 230.5 C375.4525 230.5 386.3425 230.5 397.5625 230.5 C398.2225 228.85 398.8825 227.2 399.5625 225.5 C403.03538383 220.18007285 407.35376787 216.16024641 413.5625 214.5 C420.52888754 213.71058459 427.64259918 213.366818 433.81640625 217.09765625 C440.10902728 222.15146151 443.73470473 227.36102364 445.3125 235.25 C445.93286947 241.22810579 444.67051117 246.40709002 441.875 251.6875 C437.02071288 257.59136272 432.14418266 262.02924169 424.29296875 262.8359375 C415.74364273 262.93019688 409.86940155 262.60501554 403.5625 256.59375 C400.38284459 253.15767077 398.72068909 251.13275636 397.5625 246.5 C386.6725 246.5 375.7825 246.5 364.5625 246.5 C364.5625 249.47 364.5625 252.44 364.5625 255.5 C363.5625 258.375 363.5625 258.375 361.5625 260.5 C354.43832664 263.93015754 345.48157637 266.5 337.5625 266.5 C337.418125 267.675625 337.27375 268.85125 337.125 270.0625 C336.79206747 272.77352203 336.37491465 275.28679165 335.73828125 277.95703125 C335.19288051 281.56825192 335.19288051 281.56825192 337.4765625 284.1953125 C338.37117188 284.99710937 339.26578125 285.79890625 340.1875 286.625 C341.50621094 287.83542969 341.50621094 287.83542969 342.8515625 289.0703125 C344.67043672 290.70048507 346.49873721 292.32019654 348.3359375 293.9296875 C350.5625 296.5 350.5625 296.5 351.5625 302.5 C358.8225 302.5 366.0825 302.5 373.5625 302.5 C374.2225 300.85 374.8825 299.2 375.5625 297.5 C379.03538383 292.18007285 383.35376787 288.16024641 389.5625 286.5 C396.52888754 285.71058459 403.64259918 285.366818 409.81640625 289.09765625 C414.69842264 293.01855979 418.68926295 297.45615969 420.5625 303.5 C421.36764105 311.33608208 421.68710392 319.11922577 416.5625 325.5 C411.75801361 330.54521222 407.40072945 334.10562995 400.29296875 334.8359375 C391.74364273 334.93019688 385.86940155 334.60501554 379.5625 328.59375 C376.50855502 325.29351914 374.54146982 322.9148492 373.5625 318.5 C369.41632641 318.37015678 365.2772927 318.31388232 361.12963867 318.32299805 C359.72217607 318.31605996 358.31466086 318.28970602 356.90795898 318.24291992 C352.29436617 318.09736524 348.03579871 318.19122251 343.5625 319.5 C340.25382822 322.77853273 338.49393551 326.30738102 336.5625 330.5 C334.99417849 332.77678169 333.8494298 333.84197589 331.5625 335.5 C325.40735832 336.10996899 320.36771205 334.43898415 314.625 332.5 C313.75037109 332.21382813 312.87574219 331.92765625 311.97460938 331.6328125 C309.8340404 330.93098661 307.6970385 330.21991611 305.5625 329.5 C305.26214844 330.12487305 304.96179688 330.74974609 304.65234375 331.39355469 C303.51687836 333.58817732 302.31193159 335.01806273 300.5625 336.75 C300.046875 337.27078125 299.53125 337.7915625 299 338.328125 C297.5625 339.5 297.5625 339.5 295.5625 339.5 C295.9234375 340.53640625 296.284375 341.5728125 296.65625 342.640625 C297.1253193 344.01030736 297.59405166 345.38010514 298.0625 346.75 C298.42021484 347.77287109 298.42021484 347.77287109 298.78515625 348.81640625 C299.95671287 352.26413003 300.5625 354.81702904 300.5625 358.5 C301.69731812 358.48445572 302.83213623 358.46891144 304.00134277 358.45289612 C314.71202727 358.31080464 325.42251978 358.20597023 336.13393402 358.1373148 C341.64047115 358.10083079 347.14624556 358.0513682 352.65234375 357.97192383 C357.96921754 357.89569246 363.28535919 357.85397337 368.60273743 357.8358593 C370.62815371 357.82295596 372.65353129 357.79775773 374.67863464 357.7598896 C392.55207118 357.43905405 392.55207118 357.43905405 397.45336914 361.63525391 C398.52897398 362.89093545 399.56816061 364.17903404 400.5625 365.5 C401.67045586 366.59653811 402.79407212 367.67749605 403.93334961 368.74145508 C405.02982649 369.83149245 406.12360596 370.92424905 407.21484375 372.01953125 C407.80044571 372.60417648 408.38604767 373.18882172 408.98939514 373.79118347 C410.20973334 375.01084827 411.4288384 376.2317481 412.64672852 377.45385742 C414.51659753 379.32914563 416.39182899 381.19895465 418.26757812 383.06835938 C419.45865461 384.26009565 420.6494214 385.45214155 421.83984375 386.64453125 C422.40017807 387.20284134 422.96051239 387.76115143 423.53782654 388.33638 C427.77066766 392.59514603 428.67641171 394.33553429 428.67579651 400.36782837 C428.66805458 401.56633926 428.66805458 401.56633926 428.66015625 402.7890625 C428.65803383 404.01669815 428.65803383 404.01669815 428.65586853 405.26913452 C428.6502629 407.88779325 428.63770948 410.50636704 428.625 413.125 C428.61998572 414.89843627 428.61542269 416.67187387 428.61132812 418.4453125 C428.60029164 422.79690782 428.58302325 427.1484395 428.5625 431.5 C429.34351074 431.79946533 430.12452148 432.09893066 430.92919922 432.4074707 C436.34837549 434.65583097 440.38643807 438.69915516 443.5625 443.5625 C445.89568561 450.30281398 445.94006782 459.38943456 443.0625 465.9375 C439.54253218 471.76235779 434.07287066 476.48216582 427.5625 478.5 C419.72641792 479.30514105 411.94327423 479.62460392 405.5625 474.5 C400.51728778 469.69551361 396.95687005 465.33822945 396.2265625 458.23046875 C396.13230312 449.68114273 396.45748446 443.80690155 402.46875 437.5 C405.76898086 434.44605502 408.1476508 432.47896982 412.5625 431.5 C414.47007538 418.84415728 414.9545624 405.79521738 407.15429688 395.09204102 C405.20912536 392.6475764 403.14154562 390.37238373 400.96875 388.12890625 C400.39767706 387.5344445 399.82660412 386.93998276 399.23822594 386.32750702 C387.22958212 374.37464834 374.81096176 372.64149204 358.36780357 372.52471352 C351.94926351 372.55961035 345.54991011 372.82020827 339.13922119 373.12145996 C334.76872016 373.29356361 330.40164839 373.32982976 326.02821064 373.36188889 C320.74256471 373.40858342 315.45982935 373.53884546 310.17578125 373.671875 C309.19632349 373.6888015 308.21686573 373.705728 307.20772743 373.72316742 C293.2605672 374.03517375 284.17289547 376.83609581 272.5625 384.5 C271.5725 384.83 270.5825 385.16 269.5625 385.5 C266.36651676 404.70620003 266.36651676 404.70620003 272.00292969 422.69677734 C275.06414003 426.82408147 278.55208327 430.44348702 282.25 434 C283.13541977 434.8745433 283.13541977 434.8745433 284.03872681 435.76675415 C291.22186423 442.70711048 296.80924357 446.79144118 307.22192383 446.68554688 C307.99431396 446.62431641 308.7667041 446.56308594 309.5625 446.5 C310.01955322 445.32062866 310.01955322 445.32062866 310.48583984 444.11743164 C312.87841258 438.30092999 317.3384143 433.71685346 323.09375 431.16015625 C329.73785749 429.38348827 337.61780805 429.21323393 344 432 C349.82485779 435.51996782 354.54466582 440.98962934 356.5625 447.5 C357.36764105 455.33608208 357.68710392 463.11922577 352.5625 469.5 C347.75801361 474.54521222 343.40072945 478.10562995 336.29296875 478.8359375 C327.74364273 478.93019688 321.86940155 478.60501554 315.5625 472.59375 C312.50855502 469.29351914 310.54146982 466.9148492 309.5625 462.5 C308.96824219 462.53665771 308.37398438 462.57331543 307.76171875 462.61108398 C305.02918831 462.75796281 302.29748862 462.84803776 299.5625 462.9375 C298.16064453 463.02547852 298.16064453 463.02547852 296.73046875 463.11523438 C291.89384291 463.23361333 288.50960006 463.03824995 284.74609375 459.8359375 C283.33055528 458.41119315 281.93956444 456.96196415 280.5625 455.5 C279.52260233 454.47074487 278.478108 453.44612246 277.43017578 452.42504883 C274.42245229 449.48868022 271.44536559 446.52351576 268.47827148 443.54614258 C266.60840247 441.67085437 264.73317101 439.80104535 262.85742188 437.93164062 C261.66634539 436.73990435 260.4755786 435.54785845 259.28515625 434.35546875 C258.72482193 433.79715866 258.16448761 433.23884857 257.58717346 432.66362 C253.65150451 428.70384623 252.44145607 427.00145221 252.4206543 421.47119141 C252.41361984 420.42315338 252.40658539 419.37511536 252.39933777 418.2953186 C252.39517349 417.15887909 252.39100922 416.02243958 252.38671875 414.8515625 C252.36352367 412.46092866 252.33940647 410.07030363 252.31445312 407.6796875 C252.2792953 403.89837737 252.24997304 400.1173914 252.23657227 396.3359375 C252.22113211 392.69491058 252.18094742 389.05483842 252.13671875 385.4140625 C252.13958138 383.71547592 252.13958138 383.71547592 252.14250183 381.98257446 C252.12601089 380.92823212 252.10951996 379.87388977 252.0925293 378.78759766 C252.08372993 377.39766098 252.08372993 377.39766098 252.07475281 375.97964478 C251.40567549 372.74086494 250.13797671 371.51242456 247.5625 369.5 C244.84792856 369.449212 244.84792856 369.449212 242.0625 370.25 C238.66322281 371.05312593 236.10167445 371.5 232.5625 371.5 C232.39814453 372.48226562 232.39814453 372.48226562 232.23046875 373.484375 C231.32662799 378.68697059 230.31706473 383.85529956 229.125 389 C228.89941406 389.9796875 228.67382812 390.959375 228.44140625 391.96875 C227.51698605 394.63108019 226.77905618 395.8008218 224.5625 397.5 C221.5625 398.5 221.5625 398.5 212.5625 398.5 C212.5625 409.39 212.5625 420.28 212.5625 431.5 C214.2125 432.16 215.8625 432.82 217.5625 433.5 C222.88242715 436.97288383 226.90225359 441.29126787 228.5625 447.5 C229.35191541 454.46638754 229.695682 461.58009918 225.96484375 467.75390625 C222.04394021 472.63592264 217.60634031 476.62676295 211.5625 478.5 C203.72641792 479.30514105 195.94327423 479.62460392 189.5625 474.5 C184.51728778 469.69551361 180.95687005 465.33822945 180.2265625 458.23046875 C180.13230312 449.68114273 180.45748446 443.80690155 186.46875 437.5 C189.90482923 434.32034459 191.92974364 432.65818909 196.5625 431.5 C196.5625 420.61 196.5625 409.72 196.5625 398.5 C193.5925 398.5 190.6225 398.5 187.5625 398.5 C184.6875 397.5 184.6875 397.5 182.5625 395.5 C179.13234246 388.37582664 176.5625 379.41907637 176.5625 371.5 C174.6398514 371.26388526 172.71697876 371.02943911 170.79296875 370.8046875 C168.78365502 370.53021032 166.79448612 370.11693033 164.8125 369.6875 C161.537748 369.14414878 161.537748 369.14414878 159.3865509 371.16375732 C157.20704444 373.95526714 157.08059122 375.19417969 157.12768555 378.69238281 C157.13199837 380.24484711 157.13199837 380.24484711 157.13639832 381.82867432 C157.15712906 382.94224304 157.1778598 384.05581177 157.19921875 385.203125 C157.19935322 387.5690105 157.19867663 389.93489616 157.19726562 392.30078125 C157.21812136 396.02487907 157.24997829 399.7483199 157.2980957 403.47216797 C157.33700647 407.07057834 157.33295283 410.66705895 157.32421875 414.265625 C157.3644239 415.9238327 157.3644239 415.9238327 157.40544128 417.61553955 C157.37113795 423.07583282 157.05648509 426.62439743 153.42236328 430.84887695 C152.1579768 432.08900174 150.87155098 433.30711769 149.5625 434.5 C148.47721106 435.61897718 147.39652999 436.74244636 146.32104492 437.87084961 C145.23100755 438.96732649 144.13825095 440.06110596 143.04296875 441.15234375 C142.45832352 441.73794571 141.87367828 442.32354767 141.27131653 442.92689514 C140.05165173 444.14723334 138.8307519 445.3663384 137.60864258 446.58422852 C135.73335437 448.45409753 133.86354535 450.32932899 131.99414062 452.20507812 C130.80240435 453.39615461 129.61035845 454.5869214 128.41796875 455.77734375 C127.85965866 456.33767807 127.30134857 456.89801239 126.72612 457.47532654 C121.73270187 462.43834762 121.73270187 462.43834762 118.40771484 462.61352539 C117.53840332 462.60828857 116.6690918 462.60305176 115.7734375 462.59765625 C114.83242187 462.59443359 113.89140625 462.59121094 112.921875 462.58789062 C111.93703125 462.57951172 110.9521875 462.57113281 109.9375 462.5625 C108.94492188 462.55798828 107.95234375 462.55347656 106.9296875 462.54882812 C104.4738984 462.53702145 102.01822896 462.520554 99.5625 462.5 C99.16611328 463.60988281 99.16611328 463.60988281 98.76171875 464.7421875 C96.38986251 470.19668427 92.44594875 474.26999265 87.5 477.5 C80.75968602 479.83318561 71.67306544 479.87756782 65.125 477 C59.30014221 473.48003218 54.58033418 468.01037066 52.5625 461.5 C51.75735895 453.66391792 51.43789608 445.88077423 56.5625 439.5 C61.36698639 434.45478778 65.72427055 430.89437005 72.83203125 430.1640625 C81.38135727 430.06980312 87.25559845 430.39498446 93.5625 436.40625 C96.61644498 439.70648086 98.58353018 442.0851508 99.5625 446.5 C107.72775988 447.14729295 113.45402978 445.76100491 119.73828125 440.65625 C122.2087739 438.52428625 124.55373616 436.29274952 126.875 434 C127.78519394 433.12461075 127.78519394 433.12461075 128.71377563 432.23153687 C137.13845731 423.91495958 141.32743008 416.77875396 141.43237305 404.80078125 C141.24883504 398.30644067 140.61869068 391.9111677 139.5625 385.5 C138.44230469 384.94570313 137.32210937 384.39140625 136.16796875 383.8203125 C134.69525962 383.08864809 133.22260628 382.35687139 131.75 381.625 C131.01201172 381.26019531 130.27402344 380.89539063 129.51367188 380.51953125 C128.80146484 380.16503906 128.08925781 379.81054688 127.35546875 379.4453125 C126.7008667 379.12062988 126.04626465 378.79594727 125.37182617 378.46142578 C123.5625 377.5 123.5625 377.5 120.5625 375.5 C117.63005915 375.17620556 114.77998051 374.96721423 111.83789062 374.84448242 C110.94447968 374.80082047 110.05106873 374.75715851 109.13058472 374.71217346 C100.81277383 374.32920831 92.4890698 374.10954651 84.16449738 373.93680859 C78.58667526 373.81923405 73.0215333 373.65136357 67.45019531 373.35327148 C38.74473754 371.20002891 38.74473754 371.20002891 13.53081703 382.75176144 C11.65416363 384.47946839 9.86860659 386.2584916 8.10546875 388.1015625 C7.5525415 388.67485479 6.99961426 389.24814709 6.42993164 389.83881187 C-1.67712006 398.60553235 -4.42442126 406.76289073 -4.625 418.6875 C-4.43193958 423.00268671 -4.08126118 427.22895499 -3.4375 431.5 C-2.65648926 431.79946533 -1.87547852 432.09893066 -1.07080078 432.4074707 C4.34837549 434.65583097 8.38643807 438.69915516 11.5625 443.5625 C13.89568561 450.30281398 13.94006782 459.38943456 11.0625 465.9375 C7.54253218 471.76235779 2.07287066 476.48216582 -4.4375 478.5 C-12.27358208 479.30514105 -20.05672577 479.62460392 -26.4375 474.5 C-31.48271222 469.69551361 -35.04312995 465.33822945 -35.7734375 458.23046875 C-35.86769688 449.68114273 -35.54251554 443.80690155 -29.53125 437.5 C-26.23101914 434.44605502 -23.8523492 432.47896982 -19.4375 431.5 C-19.49248657 429.88158203 -19.49248657 429.88158203 -19.54858398 428.23046875 C-19.67602349 424.19784771 -19.75590803 420.16540149 -19.82202148 416.13134766 C-19.85705827 414.39113358 -19.90470509 412.65112312 -19.96557617 410.91162109 C-20.52212767 394.58922852 -20.52212767 394.58922852 -16.7734375 390.18359375 C-15.34974987 388.93071978 -13.90025692 387.70703018 -12.4375 386.5 C-10.82402026 384.9083525 -9.24964802 383.28236795 -7.67280579 381.65444946 C-5.30308806 379.21457053 -2.89280052 376.81661205 -0.48364258 374.41577148 C1.39164563 372.54590247 3.26145465 370.67067101 5.13085938 368.79492188 C6.32259565 367.60384539 7.51464155 366.4130786 8.70703125 365.22265625 C9.54449638 364.38215477 9.54449638 364.38215477 10.39888 363.52467346 C14.73198773 359.21794319 16.51070185 358.38644314 22.64978027 358.37557983 C23.50285767 358.37917511 24.35593506 358.38277039 25.23486328 358.38647461 C26.13248383 358.38632858 27.03010437 358.38618256 27.95492554 358.3860321 C30.93091218 358.38673047 33.90683675 358.39451933 36.8828125 358.40234375 C38.94261643 358.4042082 41.00242081 358.40563198 43.06222534 358.40663147 C48.49067402 358.41045452 53.91909605 358.42028301 59.34753418 358.43133545 C64.88402954 358.44155412 70.42052919 358.44613007 75.95703125 358.45117188 C86.82553256 358.46190545 97.69401406 358.47897935 108.5625 358.5 C108.70743896 357.41323975 108.85237793 356.32647949 109.00170898 355.20678711 C109.54501315 351.61558678 110.43260255 348.48583462 111.625 345.0625 C111.98722656 344.01191406 112.34945312 342.96132813 112.72265625 341.87890625 C112.99980469 341.09386719 113.27695313 340.30882812 113.5625 339.5 C112.96953125 339.231875 112.3765625 338.96375 111.765625 338.6875 C109.55345011 337.49512205 108.07293527 336.27821744 106.3125 334.5 C105.53132813 333.7265625 105.53132813 333.7265625 104.734375 332.9375 C103.5625 331.5 103.5625 331.5 103.5625 329.5 C102.75413696 329.77263672 102.75413696 329.77263672 101.92944336 330.05078125 C99.45644045 330.87803214 96.97840518 331.68908482 94.5 332.5 C93.65244141 332.78617187 92.80488281 333.07234375 91.93164062 333.3671875 C87.01484455 334.96182407 82.79857293 336.01889011 77.5625 335.5 C74.40780349 333.21284503 72.96366419 331.3708179 71.32983398 327.82421875 C69.69400184 324.51696313 68.19132754 322.10488126 65.5625 319.5 C60.40602618 317.99134223 55.43151487 318.13600837 50.125 318.3125 C48.71160436 318.31946733 47.29817502 318.32146577 45.88476562 318.31835938 C42.44174164 318.32152958 39.00402216 318.39222392 35.5625 318.5 C35.10544678 319.67937134 35.10544678 319.67937134 34.63916016 320.88256836 C32.24658742 326.69907001 27.7865857 331.28314654 22.03125 333.83984375 C15.38714251 335.61651173 7.50719195 335.78676607 1.125 333 C-4.69985779 329.48003218 -9.41966582 324.01037066 -11.4375 317.5 C-12.24264105 309.66391792 -12.56210392 301.88077423 -7.4375 295.5 C-2.63301361 290.45478778 1.72427055 286.89437005 8.83203125 286.1640625 C17.38135727 286.06980312 23.25559845 286.39498446 29.5625 292.40625 C32.74215541 295.84232923 34.40431091 297.86724364 35.5625 302.5 C42.8225 302.5 50.0825 302.5 57.5625 302.5 C57.8925 300.52 58.2225 298.54 58.5625 296.5 C60.93713955 293.73723834 63.51346806 291.54087158 66.30859375 289.2109375 C69.11379737 286.77623247 71.44220732 284.55736704 73.5625 281.5 C73.83451397 277.46779285 72.78866799 274.29990675 71.5625 270.5 C71.5625 269.18 71.5625 267.86 71.5625 266.5 C70.58023438 266.33564453 70.58023438 266.33564453 69.578125 266.16796875 C64.37552941 265.26412799 59.20720044 264.25456473 54.0625 263.0625 C52.59296875 262.72412109 52.59296875 262.72412109 51.09375 262.37890625 C48.43141981 261.45448605 47.2616782 260.71655618 45.5625 258.5 C44.5625 255.5 44.5625 255.5 44.5625 246.5 C33.6725 246.5 22.7825 246.5 11.5625 246.5 C10.9025 248.15 10.2425 249.8 9.5625 251.5 C6.08961617 256.81992715 1.77123213 260.83975359 -4.4375 262.5 C-11.40388754 263.28941541 -18.51759918 263.633182 -24.69140625 259.90234375 C-29.57342264 255.98144021 -33.56426295 251.54384031 -35.4375 245.5 C-36.24264105 237.66391792 -36.56210392 229.88077423 -31.4375 223.5 C-26.63301361 218.45478778 -22.27572945 214.89437005 -15.16796875 214.1640625 C-6.61864273 214.06980312 -0.74440155 214.39498446 5.5625 220.40625 C8.74215541 223.84232923 10.40431091 225.86724364 11.5625 230.5 C22.4525 230.5 33.3425 230.5 44.5625 230.5 C44.5625 227.53 44.5625 224.56 44.5625 221.5 C45.5625 218.625 45.5625 218.625 47.5625 216.5 C54.68667336 213.06984246 63.64342363 210.5 71.5625 210.5 C71.706875 209.324375 71.85125 208.14875 72 206.9375 C72.33293253 204.22647797 72.75008535 201.71320835 73.38671875 199.04296875 C73.93211949 195.43174808 73.93211949 195.43174808 71.6484375 192.8046875 C70.75382812 192.00289062 69.85921875 191.20109375 68.9375 190.375 C67.61878906 189.16457031 67.61878906 189.16457031 66.2734375 187.9296875 C64.45456328 186.29951493 62.62626279 184.67980346 60.7890625 183.0703125 C58.5625 180.5 58.5625 180.5 57.5625 174.5 C50.3025 174.5 43.0425 174.5 35.5625 174.5 C34.9025 176.15 34.2425 177.8 33.5625 179.5 C30.00754381 184.62138807 25.92652132 189.34188305 19.5625 190.5 C11.66866048 191.24416864 4.00125866 191.67117306 -2.4375 186.5 C-7.48271222 181.69551361 -11.04312995 177.33822945 -11.7734375 170.23046875 C-11.86733204 161.71423427 -11.5552288 155.82404506 -5.56640625 149.53515625 C1.33744731 143.1533332 6.76417929 142.01957748 16.1171875 142.1953125 C24.03459883 142.89549173 28.16822493 146.614194 33.21484375 152.5 C34.59818686 154.55296137 35.03292537 156.11178324 35.5625 158.5 C39.70867359 158.62984322 43.8477073 158.68611768 47.99536133 158.67700195 C49.40282393 158.68394004 50.81033914 158.71029398 52.21704102 158.75708008 C56.83063383 158.90263476 61.08920129 158.80877749 65.5625 157.5 C68.87117178 154.22146727 70.63106449 150.69261898 72.5625 146.5 C74.13082151 144.22321831 75.2755702 143.15802411 77.5625 141.5 C83.71764168 140.89003101 88.75728795 142.56101585 94.5 144.5 C95.37462891 144.78617188 96.24925781 145.07234375 97.15039062 145.3671875 C99.2909596 146.06901339 101.4279615 146.78008389 103.5625 147.5 C103.86285156 146.87512695 104.16320312 146.25025391 104.47265625 145.60644531 C105.60812164 143.41182268 106.81306841 141.98193727 108.5625 140.25 C109.3359375 139.46882813 109.3359375 139.46882813 110.125 138.671875 C111.5625 137.5 111.5625 137.5 113.5625 137.5 C113.2015625 136.46359375 112.840625 135.4271875 112.46875 134.359375 C111.9996807 132.98969264 111.53094834 131.61989486 111.0625 130.25 C110.82402344 129.56808594 110.58554688 128.88617188 110.33984375 128.18359375 C109.16828713 124.73586997 108.5625 122.18297096 108.5625 118.5 C107.42768188 118.51554428 106.29286377 118.53108856 105.12365723 118.54710388 C94.41297273 118.68919536 83.70248022 118.79402977 72.99106598 118.8626852 C67.48452885 118.89916921 61.97875444 118.9486318 56.47265625 119.02807617 C51.15578246 119.10430754 45.83964081 119.14602663 40.52226257 119.1641407 C38.49684629 119.17704404 36.47146871 119.20224227 34.44636536 119.2401104 C16.57292882 119.56094595 16.57292882 119.56094595 11.67163086 115.36474609 C10.59602602 114.10906455 9.55683939 112.82096596 8.5625 111.5 C7.45454414 110.40346189 6.33092788 109.32250395 5.19165039 108.25854492 C4.09517351 107.16850755 3.00139404 106.07575095 1.91015625 104.98046875 C1.32455429 104.39582352 0.73895233 103.81117828 0.13560486 103.20881653 C-1.08473334 101.98915173 -2.3038384 100.7682519 -3.52172852 99.54614258 C-5.39159753 97.67085437 -7.26682899 95.80104535 -9.14257812 93.93164062 C-10.33365461 92.73990435 -11.5244214 91.54785845 -12.71484375 90.35546875 C-13.55534523 89.51800362 -13.55534523 89.51800362 -14.41282654 88.66362 C-18.64566766 84.40485397 -19.55141171 82.66446571 -19.55079651 76.63217163 C-19.54563522 75.83316437 -19.54047394 75.0341571 -19.53515625 74.2109375 C-19.5337413 73.39251373 -19.53232635 72.57408997 -19.53086853 71.73086548 C-19.5252629 69.11220675 -19.51270948 66.49363296 -19.5 63.875 C-19.49498572 62.10156373 -19.49042269 60.32812613 -19.48632812 58.5546875 C-19.47529164 54.20309218 -19.45802325 49.8515605 -19.4375 45.5 C-20.21851074 45.20053467 -20.99952148 44.90106934 -21.80419922 44.5925293 C-27.22337549 42.34416903 -31.26143807 38.30084484 -34.4375 33.4375 C-36.77068561 26.69718602 -36.81506782 17.61056544 -33.9375 11.0625 C-26.91173661 -0.56376327 -12.74096817 -5.64599766 0 0 Z " fill="#1A1A1A" transform="translate(51.4375,17.5)"/>
<path d="M0 0 C5.94 0 11.88 0 18 0 C18.39832031 1.63710937 18.79664063 3.27421875 19.20703125 4.9609375 C19.74157478 7.09911161 20.27676454 9.23712423 20.8125 11.375 C21.07353516 12.45523438 21.33457031 13.53546875 21.60351562 14.6484375 C21.86455078 15.6796875 22.12558594 16.7109375 22.39453125 17.7734375 C22.63018799 18.72653809 22.86584473 19.67963867 23.10864258 20.66162109 C23.86700607 23.33015686 23.86700607 23.33015686 27 25 C29.38288322 25.53989406 31.78183636 26.01041628 34.1875 26.4375 C38.4270259 27.21673538 42.50599559 28.0174232 46.5 29.6875 C50.49599851 31.18599944 52.78164249 31.75327813 57 31 C62.92590667 27.11994206 67.50852916 21.40380085 72 16 C76.14298667 16.59834725 79.18194377 18.00664285 82.8125 20.0625 C83.78832031 20.61035156 84.76414062 21.15820312 85.76953125 21.72265625 C86.50558594 22.14417969 87.24164063 22.56570312 88 23 C87.10411718 28.04856317 86.11227809 32.91690883 84.375 37.75 C83.15171432 41.33157868 82.3069819 44.18840043 83 48 C84.612361 49.71925786 86.29214382 51.37556692 88 53 C89.06679354 54.06080219 90.13047455 55.12474151 91.19140625 56.19140625 C91.74376953 56.74376953 92.29613281 57.29613281 92.86523438 57.86523438 C94.55729167 59.55729167 96.24934896 61.24934896 97.94140625 62.94140625 C98.47064697 63.46621582 98.9998877 63.99102539 99.54516602 64.53173828 C100.79213263 65.79021407 101.99471022 67.09240497 103.1875 68.40234375 C105.02709621 70.37883957 105.02709621 70.37883957 108.4375 70 C113.44632532 69.11331529 118.24645384 67.39162131 123.046875 65.7421875 C127.37166358 64.65526974 127.37166358 64.65526974 130 66 C131.95703125 68.328125 131.95703125 68.328125 133.8125 71.25 C134.43769531 72.20390625 135.06289063 73.1578125 135.70703125 74.140625 C137 77 137 77 137.10546875 79.46875 C135.43320427 83.29782202 132.61964954 85.54762842 129.5 88.25 C128.89285156 88.79140625 128.28570312 89.3328125 127.66015625 89.890625 C126.11373953 91.26827909 124.55760187 92.63500481 123 94 C121.65853151 95.12301993 121.65853151 95.12301993 121.78515625 98.03125 C122.02857824 102.52791812 123.05594571 106.24496503 124.4375 110.5 C125.7583832 114.63654739 126.93990143 118.44594845 127.41015625 122.78125 C127.79456053 125.97098641 127.79456053 125.97098641 129.390625 128.265625 C133.49595136 130.99431497 137.97220673 131.73845655 142.75 132.75 C143.73355469 132.97042969 144.71710938 133.19085938 145.73046875 133.41796875 C148.15075587 133.95842121 150.57502835 134.48097098 153 135 C153 140.94 153 146.88 153 153 C151.53046875 153.31453125 150.0609375 153.6290625 148.546875 153.953125 C146.6144111 154.38464607 144.68212866 154.81698034 142.75 155.25 C141.78191406 155.45496094 140.81382812 155.65992188 139.81640625 155.87109375 C132.90595878 157.27542666 132.90595878 157.27542666 128 162 C126.98289644 164.90941006 126.98289644 164.90941006 126.4375 168.125 C125.58485392 172.30390275 124.64254355 176.32271778 123.3125 180.375 C122.09161219 184.46662402 121.20556194 187.71003449 122 192 C125.89334305 197.92260064 131.5920664 202.50509415 137 207 C136.40165275 211.14298667 134.99335715 214.18194377 132.9375 217.8125 C132.38964844 218.78832031 131.84179688 219.76414062 131.27734375 220.76953125 C130.64505859 221.87361328 130.64505859 221.87361328 130 223 C124.25523834 222.16679029 118.88141811 220.53059554 113.33984375 218.83984375 C109.18686116 217.74454029 109.18686116 217.74454029 105 218 C102.46053277 220.12064644 102.46053277 220.12064644 100 223 C98.9428904 224.07045273 97.87873348 225.13397979 96.80859375 226.19140625 C96.25623047 226.74376953 95.70386719 227.29613281 95.13476562 227.86523438 C93.44270833 229.55729167 91.75065104 231.24934896 90.05859375 232.94140625 C89.53378418 233.47064697 89.00897461 233.9998877 88.46826172 234.54516602 C87.20978593 235.79213263 85.90759503 236.99471022 84.59765625 238.1875 C82.62116043 240.02709621 82.62116043 240.02709621 83 243.4375 C83.88668471 248.44632532 85.60837869 253.24645384 87.2578125 258.046875 C88.34473026 262.37166358 88.34473026 262.37166358 87 265 C84.671875 266.95703125 84.671875 266.95703125 81.75 268.8125 C80.79609375 269.43769531 79.8421875 270.06289063 78.859375 270.70703125 C76 272 76 272 73.52734375 272.10546875 C69.7110805 270.43622223 67.49272029 267.62084983 64.8125 264.5 C60.44571382 258.98457641 60.44571382 258.98457641 54.125 256.6875 C49.49739022 256.73550425 45.45068913 258.44359662 41.140625 259.9921875 C37.25425603 261.2393059 33.41984521 261.83097081 29.375 262.3125 C26.05862262 263.27250398 25.02649275 264.1560984 23 267 C21.80278151 270.52564342 21.02054683 274.11049892 20.25 277.75 C20.02957031 278.73355469 19.80914062 279.71710938 19.58203125 280.73046875 C19.04157879 283.15075587 18.51902902 285.57502835 18 288 C12.06 288 6.12 288 0 288 C-0.31453125 286.53046875 -0.6290625 285.0609375 -0.953125 283.546875 C-1.38464607 281.6144111 -1.81698034 279.68212866 -2.25 277.75 C-2.45496094 276.78191406 -2.65992188 275.81382812 -2.87109375 274.81640625 C-3.7534094 270.93956475 -4.49854004 267.74934719 -6.72265625 264.42578125 C-9.81606823 262.4890825 -12.59184774 262.02028156 -16.1875 261.4375 C-21.28503809 260.55944046 -26.07052077 259.50260094 -30.875 257.55078125 C-34.09405947 256.71642944 -36.68713816 256.65242105 -40 257 C-42.83559852 258.95449953 -42.83559852 258.95449953 -45.1875 261.6875 C-46.00605469 262.55761719 -46.82460937 263.42773438 -47.66796875 264.32421875 C-49.85259954 266.83087217 -51.94905776 269.38328059 -54 272 C-57.94388172 271.41125507 -60.82350283 270.21364728 -64.25 268.1875 C-65.12140625 267.68605469 -65.9928125 267.18460937 -66.890625 266.66796875 C-69.33975457 264.73134222 -69.56697684 264.01215469 -70 261 C-69.27265929 258.28744701 -68.48541843 255.70595044 -67.5625 253.0625 C-65.09177186 246.66401109 -65.09177186 246.66401109 -65 240 C-67.12064644 237.46053277 -67.12064644 237.46053277 -70 235 C-71.07045273 233.9428904 -72.13397979 232.87873348 -73.19140625 231.80859375 C-73.74376953 231.25623047 -74.29613281 230.70386719 -74.86523438 230.13476562 C-76.55729167 228.44270833 -78.24934896 226.75065104 -79.94140625 225.05859375 C-80.4712915 224.53378418 -81.00117676 224.00897461 -81.54711914 223.46826172 C-82.78791822 222.21432698 -83.97792108 220.91046836 -85.15625 219.59765625 C-87.08934636 217.57024184 -87.08934636 217.57024184 -90.9375 218 C-96.17177849 218.82738179 -101.16098881 220.49318895 -106.1796875 222.16015625 C-109 223 -109 223 -112 223 C-115.96 216.07 -115.96 216.07 -120 209 C-117.2459448 205.557431 -115.2548665 203.19543632 -112 200.5 C-106.18510587 195.72186929 -106.18510587 195.72186929 -103.5 188.9375 C-104.07871064 184.3801537 -105.44356372 180.45771776 -106.984375 176.14453125 C-108.24917137 172.22852711 -108.92270371 168.34325276 -109.5078125 164.27734375 C-109.91154168 161.73573818 -109.91154168 161.73573818 -112 159 C-115.02094547 157.81870087 -115.02094547 157.81870087 -118.5625 156.9375 C-119.81417969 156.60105469 -121.06585938 156.26460937 -122.35546875 155.91796875 C-126.55739987 154.85960454 -130.75681802 153.87789972 -135 153 C-135 147.06 -135 141.12 -135 135 C-133.36289063 134.60167969 -131.72578125 134.20335937 -130.0390625 133.79296875 C-127.90088839 133.25842522 -125.76287577 132.72323546 -123.625 132.1875 C-122.54476562 131.92646484 -121.46453125 131.66542969 -120.3515625 131.39648438 C-119.3203125 131.13544922 -118.2890625 130.87441406 -117.2265625 130.60546875 C-116.27346191 130.36981201 -115.32036133 130.13415527 -114.33837891 129.89135742 C-111.66984314 129.13299393 -111.66984314 129.13299393 -110 126 C-109.45912831 123.63828801 -108.98891548 121.26003575 -108.5625 118.875 C-107.62199111 113.77757607 -106.50613464 108.93817758 -104.55078125 104.125 C-103.71725458 100.90912407 -103.65604046 98.30925287 -104 95 C-105.92030904 92.19822254 -105.92030904 92.19822254 -108.625 89.875 C-109.98625 88.6065625 -109.98625 88.6065625 -111.375 87.3125 C-114.21076463 84.8143264 -117.03368716 82.34182593 -120 80 C-119.59007813 79.25234375 -119.18015625 78.5046875 -118.7578125 77.734375 C-118.21898437 76.74953125 -117.68015625 75.7646875 -117.125 74.75 C-116.59132812 73.77546875 -116.05765625 72.8009375 -115.5078125 71.796875 C-114.29580534 69.54869592 -113.12452433 67.2927195 -112 65 C-106.49608273 65.78745804 -101.47769326 67.40091452 -96.21875 69.16015625 C-92.84271957 70.04103798 -90.45787853 70.51589317 -87 70 C-84.39829285 67.90026909 -84.39829285 67.90026909 -82 65 C-80.94424398 63.92821225 -79.87998735 62.86474975 -78.80859375 61.80859375 C-78.25623047 61.25623047 -77.70386719 60.70386719 -77.13476562 60.13476562 C-75.44270833 58.44270833 -73.75065104 56.75065104 -72.05859375 55.05859375 C-71.53378418 54.52862793 -71.00897461 53.99866211 -70.46826172 53.45263672 C-69.21489322 52.21260636 -67.91082733 51.02417212 -66.59765625 49.84765625 C-64.56394817 47.90281663 -64.56394817 47.90281663 -65 44 C-65.78151226 39.03945379 -67.4331063 34.40097395 -69.16015625 29.69921875 C-70 27 -70 27 -70 23 C-67.55078125 21.04296875 -67.55078125 21.04296875 -64.3125 19.1875 C-63.25675781 18.56230469 -62.20101562 17.93710938 -61.11328125 17.29296875 C-58 16 -58 16 -55.49609375 15.89453125 C-51.69571093 17.57764289 -49.43884335 20.3959676 -46.75 23.5 C-46.20859375 24.10714844 -45.6671875 24.71429688 -45.109375 25.33984375 C-43.73172091 26.88626047 -42.36499519 28.44239813 -41 30 C-39.88010921 31.33520488 -39.88010921 31.33520488 -37 31.25 C-33.23907589 31.19692244 -30.24717326 30.14278297 -26.7421875 28.86328125 C-22.00913357 27.37324575 -17.12784229 26.56341279 -12.2578125 25.6484375 C-9.00830328 25.07218446 -9.00830328 25.07218446 -6 24 C-5.0666204 21.88308225 -5.0666204 21.88308225 -4.5 19.25 C-4.25636719 18.26902344 -4.01273438 17.28804687 -3.76171875 16.27734375 C-3.51035156 15.19582031 -3.25898438 14.11429688 -3 13 C-2.71769531 11.80503906 -2.43539062 10.61007813 -2.14453125 9.37890625 C-1.41591694 6.25578482 -0.70637377 3.12822672 0 0 Z " fill="#70D0DD" transform="translate(247,112)"/>
<path d="M0 0 C0.98613281 0.19464844 1.97226562 0.38929688 2.98828125 0.58984375 C17.15876609 3.76178009 32.48375861 8.39596275 41 21 C42.9182226 24.21509983 43.25409244 26.59627082 43.26742554 30.32452393 C43.28022049 31.9435688 43.28022049 31.9435688 43.29327393 33.59532166 C43.29191437 35.36426537 43.29191437 35.36426537 43.29052734 37.16894531 C43.29724457 38.41488968 43.30396179 39.66083405 43.31088257 40.9445343 C43.32662977 44.36008946 43.33323794 47.77540143 43.33451414 51.19097614 C43.33593685 53.32715455 43.3402088 55.46330758 43.34550858 57.59947968 C43.36401081 65.05868646 43.37217928 72.51782181 43.37060547 79.97705078 C43.36940522 86.91852014 43.3904838 93.85967797 43.4220928 100.80106854 C43.44829547 106.76896789 43.45897104 112.73676578 43.45769465 118.70472217 C43.45718602 122.26530836 43.46281334 125.82561789 43.48405075 129.38614655 C43.50711787 133.36204541 43.49788776 137.3375218 43.48583984 141.31347656 C43.49707886 142.48467545 43.50831787 143.65587433 43.51989746 144.86256409 C43.45980499 152.67512669 42.35043353 157.99849969 37.2109375 164.13671875 C32.1742249 168.39113344 27.04706969 171.38751974 21 174 C20.24976563 174.34804688 19.49953125 174.69609375 18.7265625 175.0546875 C-8.686953 186.49916484 -46.07071294 185.16324067 -74 176 C-74.92039063 175.70222656 -75.84078125 175.40445313 -76.7890625 175.09765625 C-86.12834876 171.72915207 -95.72945459 165.90614394 -100.10786533 156.66061115 C-101.06804216 153.79707801 -101.2591849 151.56909813 -101.27415466 148.55522156 C-101.28412979 147.47448364 -101.29410492 146.39374573 -101.30438232 145.28025818 C-101.305047 144.10455765 -101.30571167 142.92885712 -101.30639648 141.7175293 C-101.31472 140.4714389 -101.32304352 139.22534851 -101.33161926 137.9414978 C-101.3515708 134.53013969 -101.36235707 131.11902549 -101.36744571 127.70762992 C-101.37109477 125.57362358 -101.37733768 123.43964052 -101.3844471 121.30564308 C-101.4089265 113.85292154 -101.42199011 106.40026945 -101.42553711 98.94750977 C-101.4291707 92.01334132 -101.45905681 85.07961594 -101.50094169 78.14558285 C-101.53569524 72.18190909 -101.55108642 66.2183818 -101.55178314 60.2546075 C-101.55257428 56.69731549 -101.56123655 53.14047507 -101.58978081 49.58328819 C-101.62093482 45.61223774 -101.61187749 41.64181851 -101.59936523 37.6706543 C-101.61419952 36.50102646 -101.62903381 35.33139862 -101.64431763 34.12632751 C-101.57216646 26.07739833 -99.92953018 21.178808 -94.41493893 15.31438732 C-72.48395792 -6.05175881 -27.55272206 -5.6673775 0 0 Z " fill="#1B1B1B" transform="translate(285,170)"/>
<path d="M0 0 C1.26158936 0.00563965 2.52317871 0.0112793 3.82299805 0.01708984 C21.80884609 0.24895795 40.87014994 2.32809386 55.8125 13.3125 C57 15.25 57 15.25 56.8125 17.3125 C46.72196684 28.7815213 29.25539577 30.97040472 14.8125 32.3125 C-8.39740035 33.68169439 -31.72337856 32.76803365 -52.32421875 20.97265625 C-54.67081579 18.88187272 -54.88105427 17.38215127 -55.1875 14.3125 C-38.49551489 2.61675533 -20.10697534 -0.09518417 0 0 Z " fill="#815FF0" transform="translate(255.1875,183.6875)"/>
<path d="M0 0 C0.79019531 0.31453125 1.58039063 0.6290625 2.39453125 0.953125 C16.77758815 6.41046773 31.58833264 9.6126029 47 10 C47.67853027 10.02046387 48.35706055 10.04092773 49.05615234 10.06201172 C70.90196079 10.65562116 91.40302346 7.29836844 112 0 C112.14584064 3.22868746 112.23424106 6.45652365 112.3125 9.6875 C112.35439453 10.59951172 112.39628906 11.51152344 112.43945312 12.45117188 C112.52070618 16.92008987 112.54585378 19.2424272 109.875 22.94921875 C100.01142557 29.98505649 88.75998966 32.27022374 77 34 C75.97390625 34.18433594 74.9478125 34.36867188 73.890625 34.55859375 C50.23617733 37.24228109 20.98556745 36.66446249 1 22 C-0.20029908 19.59940183 -0.11459743 18.10639351 -0.09765625 15.4296875 C-0.09443359 14.53378906 -0.09121094 13.63789063 -0.08789062 12.71484375 C-0.07951172 11.77769531 -0.07113281 10.84054687 -0.0625 9.875 C-0.05798828 8.93011719 -0.05347656 7.98523438 -0.04882812 7.01171875 C-0.03702357 4.67441613 -0.02055759 2.33723939 0 0 Z " fill="#F2D83F" transform="translate(200,301)"/>
<path d="M0 0 C0.79019531 0.31453125 1.58039063 0.6290625 2.39453125 0.953125 C16.77758815 6.41046773 31.58833264 9.6126029 47 10 C47.67853027 10.02046387 48.35706055 10.04092773 49.05615234 10.06201172 C70.90196079 10.65562116 91.40302346 7.29836844 112 0 C112.14584064 3.22868746 112.23424106 6.45652365 112.3125 9.6875 C112.35439453 10.59951172 112.39628906 11.51152344 112.43945312 12.45117188 C112.52070618 16.92008987 112.54585378 19.2424272 109.875 22.94921875 C100.01142557 29.98505649 88.75998966 32.27022374 77 34 C75.97390625 34.18433594 74.9478125 34.36867188 73.890625 34.55859375 C50.23617733 37.24228109 20.98556745 36.66446249 1 22 C-0.20029908 19.59940183 -0.11459743 18.10639351 -0.09765625 15.4296875 C-0.09443359 14.53378906 -0.09121094 13.63789063 -0.08789062 12.71484375 C-0.07951172 11.77769531 -0.07113281 10.84054687 -0.0625 9.875 C-0.05798828 8.93011719 -0.05347656 7.98523438 -0.04882812 7.01171875 C-0.03702357 4.67441613 -0.02055759 2.33723939 0 0 Z " fill="#F2D83F" transform="translate(200,261)"/>
<path d="M0 0 C0.79019531 0.31453125 1.58039063 0.6290625 2.39453125 0.953125 C16.77758815 6.41046773 31.58833264 9.6126029 47 10 C47.67853027 10.02046387 48.35706055 10.04092773 49.05615234 10.06201172 C70.90196079 10.65562116 91.40302346 7.29836844 112 0 C112.14584064 3.22868746 112.23424106 6.45652365 112.3125 9.6875 C112.35439453 10.59951172 112.39628906 11.51152344 112.43945312 12.45117188 C112.52070618 16.92008987 112.54585378 19.2424272 109.875 22.94921875 C100.01142557 29.98505649 88.75998966 32.27022374 77 34 C75.97390625 34.18433594 74.9478125 34.36867187 73.890625 34.55859375 C50.23617733 37.24228109 20.98556745 36.66446249 1 22 C-0.20029908 19.59940183 -0.11459743 18.10639351 -0.09765625 15.4296875 C-0.09443359 14.53378906 -0.09121094 13.63789063 -0.08789062 12.71484375 C-0.07951172 11.77769531 -0.07113281 10.84054688 -0.0625 9.875 C-0.05798828 8.93011719 -0.05347656 7.98523438 -0.04882812 7.01171875 C-0.03702357 4.67441613 -0.02055759 2.33723939 0 0 Z " fill="#F2D83F" transform="translate(200,221)"/>
<path d="M0 0 C4.0743356 0.84881992 5.54405875 2.30225596 8 5.625 C8.625 8.625 8.625 8.625 8 11.625 C5.54405875 14.94774404 4.0743356 16.40118008 0 17.25 C-4.0743356 16.40118008 -5.54405875 14.94774404 -8 11.625 C-8.625 8.625 -8.625 8.625 -8 5.625 C-5.54405875 2.30225596 -4.0743356 0.84881992 0 0 Z " fill="#EBD13E" transform="translate(472,463.375)"/>
<path d="M0 0 C4.0743356 0.84881992 5.54405875 2.30225596 8 5.625 C8.625 8.625 8.625 8.625 8 11.625 C5.54405875 14.94774404 4.0743356 16.40118008 0 17.25 C-4.0743356 16.40118008 -5.54405875 14.94774404 -8 11.625 C-8.625 8.625 -8.625 8.625 -8 5.625 C-5.54405875 2.30225596 -4.0743356 0.84881992 0 0 Z " fill="#EBD13E" transform="translate(384,463.375)"/>
<path d="M0 0 C4.0743356 0.84881992 5.54405875 2.30225596 8 5.625 C8.625 8.625 8.625 8.625 8 11.625 C5.54405875 14.94774404 4.0743356 16.40118008 0 17.25 C-4.0743356 16.40118008 -5.54405875 14.94774404 -8 11.625 C-8.625 8.625 -8.625 8.625 -8 5.625 C-5.54405875 2.30225596 -4.0743356 0.84881992 0 0 Z " fill="#EBD13E" transform="translate(256,463.375)"/>
<path d="M0 0 C4.0743356 0.84881992 5.54405875 2.30225596 8 5.625 C8.625 8.625 8.625 8.625 8 11.625 C5.54405875 14.94774404 4.0743356 16.40118008 0 17.25 C-4.0743356 16.40118008 -5.54405875 14.94774404 -8 11.625 C-8.625 8.625 -8.625 8.625 -8 5.625 C-5.54405875 2.30225596 -4.0743356 0.84881992 0 0 Z " fill="#EBD13E" transform="translate(128,463.375)"/>
<path d="M0 0 C4.0743356 0.84881992 5.54405875 2.30225596 8 5.625 C8.625 8.625 8.625 8.625 8 11.625 C5.54405875 14.94774404 4.0743356 16.40118008 0 17.25 C-4.0743356 16.40118008 -5.54405875 14.94774404 -8 11.625 C-8.625 8.625 -8.625 8.625 -8 5.625 C-5.54405875 2.30225596 -4.0743356 0.84881992 0 0 Z " fill="#EBD13E" transform="translate(40,463.375)"/>
<path d="M0 0 C4.0743356 0.84881992 5.54405875 2.30225596 8 5.625 C8.625 8.625 8.625 8.625 8 11.625 C5.54405875 14.94774404 4.0743356 16.40118008 0 17.25 C-4.0743356 16.40118008 -5.54405875 14.94774404 -8 11.625 C-8.625 8.625 -8.625 8.625 -8 5.625 C-5.54405875 2.30225596 -4.0743356 0.84881992 0 0 Z " fill="#EBD13E" transform="translate(448,319.375)"/>
<path d="M0 0 C4.0743356 0.84881992 5.54405875 2.30225596 8 5.625 C8.625 8.625 8.625 8.625 8 11.625 C5.54405875 14.94774404 4.0743356 16.40118008 0 17.25 C-4.0743356 16.40118008 -5.54405875 14.94774404 -8 11.625 C-8.625 8.625 -8.625 8.625 -8 5.625 C-5.54405875 2.30225596 -4.0743356 0.84881992 0 0 Z " fill="#EBD13E" transform="translate(64,319.375)"/>
<path d="M0 0 C4.0743356 0.84881992 5.54405875 2.30225596 8 5.625 C8.625 8.625 8.625 8.625 8 11.625 C5.54405875 14.94774404 4.0743356 16.40118008 0 17.25 C-4.0743356 16.40118008 -5.54405875 14.94774404 -8 11.625 C-8.625 8.625 -8.625 8.625 -8 5.625 C-5.54405875 2.30225596 -4.0743356 0.84881992 0 0 Z " fill="#EBD13E" transform="translate(472,247.375)"/>
<path d="M0 0 C4.0743356 0.84881992 5.54405875 2.30225596 8 5.625 C8.625 8.625 8.625 8.625 8 11.625 C5.54405875 14.94774404 4.0743356 16.40118008 0 17.25 C-4.0743356 16.40118008 -5.54405875 14.94774404 -8 11.625 C-8.625 8.625 -8.625 8.625 -8 5.625 C-5.54405875 2.30225596 -4.0743356 0.84881992 0 0 Z " fill="#EBD13E" transform="translate(40,247.375)"/>
<path d="M0 0 C4.0743356 0.84881992 5.54405875 2.30225596 8 5.625 C8.625 8.625 8.625 8.625 8 11.625 C5.54405875 14.94774404 4.0743356 16.40118008 0 17.25 C-4.0743356 16.40118008 -5.54405875 14.94774404 -8 11.625 C-8.625 8.625 -8.625 8.625 -8 5.625 C-5.54405875 2.30225596 -4.0743356 0.84881992 0 0 Z " fill="#EBD13E" transform="translate(448,175.375)"/>
<path d="M0 0 C4.0743356 0.84881992 5.54405875 2.30225596 8 5.625 C8.625 8.625 8.625 8.625 8 11.625 C5.54405875 14.94774404 4.0743356 16.40118008 0 17.25 C-4.0743356 16.40118008 -5.54405875 14.94774404 -8 11.625 C-8.625 8.625 -8.625 8.625 -8 5.625 C-5.54405875 2.30225596 -4.0743356 0.84881992 0 0 Z " fill="#EBD13E" transform="translate(64,175.375)"/>
<path d="M0 0 C4.0743356 0.84881992 5.54405875 2.30225596 8 5.625 C8.625 8.625 8.625 8.625 8 11.625 C5.54405875 14.94774404 4.0743356 16.40118008 0 17.25 C-4.0743356 16.40118008 -5.54405875 14.94774404 -8 11.625 C-8.625 8.625 -8.625 8.625 -8 5.625 C-5.54405875 2.30225596 -4.0743356 0.84881992 0 0 Z " fill="#EBD13E" transform="translate(472,31.375)"/>
<path d="M0 0 C4.0743356 0.84881992 5.54405875 2.30225596 8 5.625 C8.625 8.625 8.625 8.625 8 11.625 C5.54405875 14.94774404 4.0743356 16.40118008 0 17.25 C-4.0743356 16.40118008 -5.54405875 14.94774404 -8 11.625 C-8.625 8.625 -8.625 8.625 -8 5.625 C-5.54405875 2.30225596 -4.0743356 0.84881992 0 0 Z " fill="#EBD13E" transform="translate(384,31.375)"/>
<path d="M0 0 C4.0743356 0.84881992 5.54405875 2.30225596 8 5.625 C8.625 8.625 8.625 8.625 8 11.625 C5.54405875 14.94774404 4.0743356 16.40118008 0 17.25 C-4.0743356 16.40118008 -5.54405875 14.94774404 -8 11.625 C-8.625 8.625 -8.625 8.625 -8 5.625 C-5.54405875 2.30225596 -4.0743356 0.84881992 0 0 Z " fill="#EBD13E" transform="translate(256,31.375)"/>
<path d="M0 0 C4.0743356 0.84881992 5.54405875 2.30225596 8 5.625 C8.625 8.625 8.625 8.625 8 11.625 C5.54405875 14.94774404 4.0743356 16.40118008 0 17.25 C-4.0743356 16.40118008 -5.54405875 14.94774404 -8 11.625 C-8.625 8.625 -8.625 8.625 -8 5.625 C-5.54405875 2.30225596 -4.0743356 0.84881992 0 0 Z " fill="#EBD13E" transform="translate(128,31.375)"/>
<path d="M0 0 C4.0743356 0.84881992 5.54405875 2.30225596 8 5.625 C8.625 8.625 8.625 8.625 8 11.625 C5.54405875 14.94774404 4.0743356 16.40118008 0 17.25 C-4.0743356 16.40118008 -5.54405875 14.94774404 -8 11.625 C-8.625 8.625 -8.625 8.625 -8 5.625 C-5.54405875 2.30225596 -4.0743356 0.84881992 0 0 Z " fill="#EBD13E" transform="translate(40,31.375)"/>
</svg>
