<?xml version="1.0" encoding="UTF-8"?>
<svg version="1.1" xmlns="http://www.w3.org/2000/svg" width="512" height="512">
<path d="M0 0 C8.78616374 6.32839264 15.45048281 14.73233518 17.58203125 25.4921875 C18.40650823 34.57408615 18.18176486 43.71808658 15.58203125 52.4921875 C16.20464844 52.95625 16.82726562 53.4203125 17.46875 53.8984375 C33.60710391 65.96281364 49.58084833 78.24687366 65.58203125 90.4921875 C68.6860094 92.86743401 71.79021692 95.24238039 74.89453125 97.6171875 C75.60641602 98.16205811 76.31830078 98.70692871 77.05175781 99.26831055 C80.21803487 101.69050484 83.3858663 104.10944242 86.58203125 106.4921875 C88.73496019 105.42070666 90.8810377 104.33837168 93.01953125 103.23828125 C93.86515625 102.80644531 94.71078125 102.37460938 95.58203125 101.9296875 C96.42765625 101.49527344 97.27328125 101.06085938 98.14453125 100.61328125 C106.77814383 96.6423729 119.71702083 97.08730478 128.64453125 100.0546875 C137.74747953 104.04158368 144.10151444 110.32514284 149.58203125 118.4921875 C151.56203125 123.9371875 151.56203125 123.9371875 153.58203125 129.4921875 C166.78203125 129.8221875 179.98203125 130.1521875 193.58203125 130.4921875 C193.42446393 120.64993588 193.42446393 120.64993588 193.22167969 110.80859375 C193.15152028 102.10882693 193.5663805 96.07465973 199.546875 89.25 C200.19785156 88.71117188 200.84882813 88.17234375 201.51953125 87.6171875 C202.16792969 87.06289062 202.81632812 86.50859375 203.484375 85.9375 C209.98560682 81.45806653 216.95344042 81.81755022 224.58203125 82.4921875 C231.24162458 84.17304333 235.76750572 88.95597072 239.58203125 94.4921875 C241.79315206 98.71077326 241.8229873 102.64414609 241.70703125 107.3046875 C241.69800781 107.99755859 241.68898438 108.69042969 241.6796875 109.40429688 C241.65629282 111.10041145 241.62042766 112.79634621 241.58203125 114.4921875 C248.33081673 114.75338342 253.36331801 114.3642671 258.58023071 109.81005859 C260.26214006 108.15673969 261.91448465 106.4729887 263.54150391 104.765625 C264.45687927 103.85024963 265.37225464 102.93487427 266.31536865 101.99176025 C268.80681 99.49921188 271.26307606 96.97448199 273.71423006 94.44239044 C276.29016537 91.79357717 278.89807574 89.17662803 281.5027771 86.55615234 C286.4237839 81.5959075 291.31650911 76.60874082 296.19913995 71.61074638 C302.30224716 65.36599076 308.43951847 59.15514309 314.578125 52.9453125 C316.72512254 50.77318478 318.87191693 48.60085671 321.0184021 46.42822266 C321.79772931 45.63943065 321.79772931 45.63943065 322.5928005 44.83470345 C326.18039784 41.20152986 329.75790891 37.55861399 333.33145142 33.91162109 C334.28614936 32.93855536 335.24091051 31.96555165 336.19573975 30.99261475 C337.96634028 29.18745777 339.73491309 27.38030891 341.50112915 25.57086182 C342.27746704 24.78000183 343.05380493 23.98914185 343.85366821 23.17431641 C344.52942713 22.48334869 345.20518604 21.79238098 345.9014225 21.08047485 C348.726173 18.41089724 350.59080488 18.37175843 354.37109375 18.39453125 C355.31210937 18.39775391 356.253125 18.40097656 357.22265625 18.40429688 C358.69992187 18.41686523 358.69992187 18.41686523 360.20703125 18.4296875 C361.19960938 18.43419922 362.1921875 18.43871094 363.21484375 18.44335938 C365.67063285 18.45516605 368.12630229 18.4716335 370.58203125 18.4921875 C370.84628906 17.75226562 371.11054688 17.01234375 371.3828125 16.25 C373.75466874 10.79550323 377.6985825 6.72219485 382.64453125 3.4921875 C389.38484523 1.15900189 398.47146581 1.11461968 405.01953125 3.9921875 C410.84438904 7.51215532 415.56419707 12.98181684 417.58203125 19.4921875 C418.3871723 27.32826958 418.70663517 35.11141327 413.58203125 41.4921875 C408.77754486 46.53739972 404.4202607 50.09781745 397.3125 50.828125 C388.76317398 50.92238438 382.8889328 50.59720304 376.58203125 44.5859375 C373.52808627 41.28570664 371.56100107 38.9070367 370.58203125 34.4921875 C363.53122515 34.24284208 357.96520854 34.42707706 352.46357727 39.17431641 C350.78137972 40.82509803 349.13127721 42.50901524 347.5090332 44.21875 C346.59351181 45.13412537 345.67799042 46.04950073 344.73472595 46.99261475 C342.24511858 49.48304333 339.79401615 52.00840759 337.3484385 54.54198456 C334.77702692 57.19261356 332.17071372 59.80847223 329.56791687 62.42822266 C324.65194672 67.3865135 319.76693326 72.3741406 314.89290351 77.37362862 C308.79986254 83.62066944 302.66909955 89.83028898 296.53710938 96.0390625 C294.39222372 98.21114137 292.24759401 100.38347235 290.10331726 102.55615234 C289.58431781 103.08201368 289.06531837 103.60787502 288.53059167 104.14967155 C284.94746964 107.78234153 281.37501407 111.42528806 277.80696106 115.07275391 C276.85389174 116.04581056 275.90076813 117.01881405 274.94758606 117.99176025 C273.18017174 119.79689829 271.41480709 121.60404622 269.65182495 123.41351318 C268.87693222 124.20437317 268.10203949 124.99523315 267.30366516 125.81005859 C266.62920506 126.50102631 265.95474497 127.19199402 265.25984669 127.90390015 C262.49944269 130.51700923 260.70585649 130.61322437 257.01171875 130.58984375 C256.20460449 130.58734619 255.39749023 130.58484863 254.56591797 130.58227539 C253.02701904 130.56861938 253.02701904 130.56861938 251.45703125 130.5546875 C246.56890625 130.52375 246.56890625 130.52375 241.58203125 130.4921875 C241.58203125 138.4121875 241.58203125 146.3321875 241.58203125 154.4921875 C255.9221812 156.35370446 271.89879644 158.35047308 284.22304153 149.3276825 C293.2130906 142.02303907 300.98195968 133.36217109 308.67822266 124.7409668 C312.09404885 120.95478448 315.61306687 117.26712261 319.125 113.5703125 C324.75575829 107.6254085 330.32727718 101.63246919 335.79849243 95.5401001 C339.36731264 91.59954681 339.36731264 91.59954681 341.58203125 90.4921875 C343.76028086 90.40659632 345.9411838 90.38505338 348.12109375 90.39453125 C350.07402344 90.39936523 350.07402344 90.39936523 352.06640625 90.40429688 C353.44661524 90.41265284 354.82682357 90.42111779 356.20703125 90.4296875 C357.59505051 90.43470249 358.98307147 90.4392654 360.37109375 90.44335938 C363.77478257 90.45517774 367.17838564 90.47165316 370.58203125 90.4921875 C370.8867334 89.70593994 371.19143555 88.91969238 371.50537109 88.10961914 C373.89794383 82.29311749 378.35794555 77.70904096 384.11328125 75.15234375 C390.75738874 73.37567577 398.6373393 73.20542143 405.01953125 75.9921875 C410.84438904 79.51215532 415.56419707 84.98181684 417.58203125 91.4921875 C418.3871723 99.32826958 418.70663517 107.11141327 413.58203125 113.4921875 C408.77754486 118.53739972 404.4202607 122.09781745 397.3125 122.828125 C388.76317398 122.92238438 382.8889328 122.59720304 376.58203125 116.5859375 C373.52808627 113.28570664 371.56100107 110.9070367 370.58203125 106.4921875 C360.9366791 105.77831563 351.22540731 105.14308505 343.39181232 111.55245972 C340.11835534 114.60569674 337.06807503 117.82365358 334.0390625 121.1171875 C332.68835705 122.50784647 331.33300753 123.89400819 329.97331238 125.27587891 C326.44111358 128.88930585 322.97278002 132.55813906 319.51580811 136.2434082 C315.97046472 140.00184962 312.3693959 143.70603298 308.77148438 147.4140625 C304.73739621 151.57651796 300.70973074 155.74389734 296.72285461 159.95166016 C296.12078186 160.58638245 295.51870911 161.22110474 294.89839172 161.87506104 C293.7738975 163.06250346 292.65169584 164.25212265 291.53219604 165.4442749 C286.82477254 170.41398155 286.82477254 170.41398155 283.67111206 170.61244202 C282.89389801 170.61022141 282.11668396 170.60800079 281.31591797 170.60571289 C279.99477493 170.60559959 279.99477493 170.60559959 278.64694214 170.60548401 C277.69481842 170.60032272 276.7426947 170.59516144 275.76171875 170.58984375 C274.78792267 170.5884288 273.81412659 170.58701385 272.81082153 170.58555603 C269.69286052 170.57994723 266.57497065 170.56739323 263.45703125 170.5546875 C261.3463552 170.54967363 259.23567803 170.54511053 257.125 170.54101562 C251.94396078 170.53082475 246.7630759 170.51125103 241.58203125 170.4921875 C241.58203125 178.4121875 241.58203125 186.3321875 241.58203125 194.4921875 C252.28913926 195.20575292 262.97809187 195.68115734 273.70703125 195.8671875 C274.48929832 195.88084351 275.2715654 195.89449951 276.07753754 195.90856934 C301.3107923 196.43897285 301.3107923 196.43897285 322.93136597 184.7930603 C328.52955888 179.22714508 333.41729845 172.98082436 337.68017578 166.34375 C339.58203125 163.4921875 339.58203125 163.4921875 341.58203125 162.4921875 C343.76028086 162.40659632 345.9411838 162.38505338 348.12109375 162.39453125 C349.42304688 162.39775391 350.725 162.40097656 352.06640625 162.40429688 C353.44661524 162.41265284 354.82682357 162.42111779 356.20703125 162.4296875 C357.59505051 162.43470249 358.98307147 162.4392654 360.37109375 162.44335938 C363.77478257 162.45517774 367.17838564 162.47165316 370.58203125 162.4921875 C370.88149658 161.71117676 371.18096191 160.93016602 371.48950195 160.12548828 C373.73786222 154.70631201 377.78118641 150.66824943 382.64453125 147.4921875 C389.38484523 145.15900189 398.47146581 145.11461968 405.01953125 147.9921875 C410.84438904 151.51215532 415.56419707 156.98181684 417.58203125 163.4921875 C418.3871723 171.32826958 418.70663517 179.11141327 413.58203125 185.4921875 C408.77754486 190.53739972 404.4202607 194.09781745 397.3125 194.828125 C388.76317398 194.92238438 382.8889328 194.59720304 376.58203125 188.5859375 C373.52808627 185.28570664 371.56100107 182.9070367 370.58203125 178.4921875 C361.87376411 177.73000239 352.40017254 176.91766076 345.06884766 182.37109375 C340.82340607 186.08553205 337.10787925 190.25710573 333.39453125 194.4921875 C332.06682307 195.92909129 330.73415581 197.36142927 329.39648438 198.7890625 C326.97533505 201.37921173 324.58951468 203.9945432 322.22973633 206.640625 C318.69321432 210.44943801 318.69321432 210.44943801 314.45626831 210.61244202 C313.09698613 210.61535152 311.73768551 210.61265984 310.37841797 210.60571289 C309.26607285 210.60593193 309.26607285 210.60593193 308.1312561 210.6061554 C305.67471412 210.6054575 303.21824752 210.59767084 300.76171875 210.58984375 C299.06063885 210.58797913 297.35955841 210.58655544 295.65847778 210.58555603 C291.17696658 210.58173428 286.69548768 210.5719069 282.21398926 210.56085205 C277.64266395 210.55063058 273.07133344 210.54605683 268.5 210.54101562 C259.52732726 210.53028434 250.55468699 210.5126903 241.58203125 210.4921875 C241.58203125 218.4121875 241.58203125 226.3321875 241.58203125 234.4921875 C284.15203125 234.4921875 326.72203125 234.4921875 370.58203125 234.4921875 C371.24203125 232.8421875 371.90203125 231.1921875 372.58203125 229.4921875 C376.13698744 224.37079943 380.21800993 219.65030445 386.58203125 218.4921875 C394.47587077 217.74801886 402.14327259 217.32101444 408.58203125 222.4921875 C413.62724347 227.29667389 417.1876612 231.65395805 417.91796875 238.76171875 C418.01186329 247.27795323 417.69976005 253.16814244 411.7109375 259.45703125 C404.80708394 265.8388543 399.38035196 266.97261002 390.02734375 266.796875 C382.10993242 266.09669577 377.97630632 262.3779935 372.9296875 256.4921875 C371.58203125 254.4921875 371.58203125 254.4921875 370.58203125 250.4921875 C328.01203125 250.4921875 285.44203125 250.4921875 241.58203125 250.4921875 C241.58203125 258.4121875 241.58203125 266.3321875 241.58203125 274.4921875 C243.84240234 274.45552979 246.10277344 274.41887207 248.43164062 274.38110352 C255.91920594 274.26485716 263.40681224 274.18769276 270.89504242 274.1295023 C275.43311998 274.0930468 279.97026919 274.04364014 284.5078125 273.96411133 C288.89102735 273.88777256 293.27335223 273.84613946 297.65718079 273.8280468 C299.3253632 273.81516217 300.99349959 273.79000017 302.66130066 273.7520771 C317.36051437 273.43128587 317.36051437 273.43128587 322.33911133 277.66625977 C323.4619844 278.90483678 324.54737906 280.17901889 325.58203125 281.4921875 C326.50548561 282.48855443 327.43132791 283.48271621 328.36010742 284.47412109 C329.19002197 285.43656738 330.01993652 286.39901367 330.875 287.390625 C342.4922832 301.33347161 342.4922832 301.33347161 358.76293945 307.52197266 C362.79818033 307.47933826 366.59845187 307.1561174 370.58203125 306.4921875 C370.85789062 305.74066406 371.13375 304.98914063 371.41796875 304.21484375 C373.91668769 298.37052462 378.27727262 293.74487835 384.11328125 291.15234375 C390.75738874 289.37567577 398.6373393 289.20542143 405.01953125 291.9921875 C410.84438904 295.51215532 415.56419707 300.98181684 417.58203125 307.4921875 C418.3871723 315.32826958 418.70663517 323.11141327 413.58203125 329.4921875 C408.77754486 334.53739972 404.4202607 338.09781745 397.3125 338.828125 C388.76317398 338.92238438 382.8889328 338.59720304 376.58203125 332.5859375 C373.52808627 329.28570664 371.56100107 326.9070367 370.58203125 322.4921875 C369.74542969 322.52884521 368.90882813 322.56550293 368.046875 322.60327148 C364.90849558 322.72339357 361.77129612 322.81071199 358.63134766 322.87670898 C356.61801894 322.92875715 354.60575448 323.0177586 352.59375 323.10742188 C351.31113281 323.12998047 350.02851563 323.15253906 348.70703125 323.17578125 C347.53398437 323.21243896 346.3609375 323.24909668 345.15234375 323.28686523 C337.6553897 321.61819829 333.43184341 315.38161073 328.79882812 309.62890625 C320.48990779 299.51414614 312.67349904 290.66577241 299.07170105 289.21159363 C291.51649884 288.67223745 283.96500454 288.96720804 276.41186523 289.38067627 C272.47041332 289.56932325 268.52716464 289.61557831 264.58203125 289.67578125 C256.90593713 289.81295555 249.25072268 290.11399145 241.58203125 290.4921875 C241.58203125 298.4121875 241.58203125 306.3321875 241.58203125 314.4921875 C244.66546875 314.41097656 247.74890625 314.32976562 250.92578125 314.24609375 C253.93093837 314.19141425 256.9360389 314.1489615 259.94140625 314.10766602 C262.02108797 314.07258432 264.10059852 314.02490436 266.1796875 313.96411133 C269.17881576 313.87864766 272.17565244 313.8393769 275.17578125 313.80859375 C276.09693726 313.77246475 277.01809326 313.73633575 277.96716309 313.69911194 C284.00168732 313.69548758 287.13285754 314.91139185 291.40847778 319.1615448 C292.12575043 319.93065689 292.84302307 320.69976898 293.58203125 321.4921875 C294.92054642 322.87323418 294.92054642 322.87323418 296.28610229 324.28218079 C298.36951295 326.43915962 300.43395658 328.61259346 302.48783875 330.79769897 C306.63716545 335.21021256 310.84614002 339.56462214 315.05550671 343.91977501 C318.23439789 347.21410904 321.39252709 350.52427111 324.51147461 353.87548828 C339.15042098 371.19084057 339.15042098 371.19084057 359.05915833 379.72988892 C363.05045904 379.7141438 366.67364331 379.31346326 370.58203125 378.4921875 C370.88149658 377.71117676 371.18096191 376.93016602 371.48950195 376.12548828 C373.73786222 370.70631201 377.78118641 366.66824943 382.64453125 363.4921875 C389.38484523 361.15900189 398.47146581 361.11461968 405.01953125 363.9921875 C410.84438904 367.51215532 415.56419707 372.98181684 417.58203125 379.4921875 C418.3871723 387.32826958 418.70663517 395.11141327 413.58203125 401.4921875 C408.77754486 406.53739972 404.4202607 410.09781745 397.3125 410.828125 C388.76317398 410.92238438 382.8889328 410.59720304 376.58203125 404.5859375 C373.52808627 401.28570664 371.56100107 398.9070367 370.58203125 394.4921875 C369.74542969 394.52884521 368.90882813 394.56550293 368.046875 394.60327148 C364.90849558 394.72339357 361.77129612 394.81071199 358.63134766 394.87670898 C356.61801894 394.92875715 354.60575448 395.0177586 352.59375 395.10742188 C351.31113281 395.12998047 350.02851563 395.15253906 348.70703125 395.17578125 C347.53398437 395.21243896 346.3609375 395.24909668 345.15234375 395.28686523 C336.51779766 393.36499382 330.75848514 384.53460886 325.06097412 378.18667603 C321.07145071 373.74803957 316.98151337 369.40504924 312.88573837 365.06459999 C309.8015013 361.78775306 306.75708424 358.48731834 303.78417969 355.10888672 C287.71791307 336.61823209 287.71791307 336.61823209 265.17561722 329.35796928 C257.24003493 329.02997247 249.46830611 329.62326504 241.58203125 330.4921875 C241.58203125 338.4121875 241.58203125 346.3321875 241.58203125 354.4921875 C247.80596754 354.21730178 247.80596754 354.21730178 254.02539062 353.86157227 C258.82393585 353.75566459 261.78004945 354.15243912 265.35554504 357.48135376 C266.04380182 358.1186655 266.7320586 358.75597725 267.44117165 359.41260147 C271.13875552 363.00435674 274.76951008 366.65233504 278.36206055 370.34912109 C280.09848145 372.12515184 281.83511955 373.90097027 283.57194519 375.67660522 C284.93607575 377.07367769 284.93607575 377.07367769 286.32776451 378.49897385 C289.19323709 381.43110418 292.06895261 384.35304446 294.94746399 387.27236938 C295.4356672 387.76751553 295.92387041 388.26266167 296.42686766 388.77281225 C298.43595364 390.81007578 300.44537956 392.84700369 302.45496309 394.88377643 C308.13439991 400.64091305 313.80339166 406.40754419 319.44311523 412.20361328 C323.94255755 416.8276499 328.46313082 421.42981423 333.00934345 426.0078913 C335.40745711 428.42441162 337.79386355 430.850293 340.1548214 433.30317307 C342.79418965 436.03465258 345.46903348 438.72608816 348.1550293 441.41162109 C348.91858734 442.21989349 349.68214539 443.02816589 350.46884155 443.8609314 C356.03074172 449.31073171 360.30928987 450.41983205 368.06969929 450.55751991 C368.89876884 450.53596022 369.72783838 450.51440052 370.58203125 450.4921875 C371.03908447 449.31281616 371.03908447 449.31281616 371.50537109 448.10961914 C373.89794383 442.29311749 378.35794555 437.70904096 384.11328125 435.15234375 C390.75738874 433.37567577 398.6373393 433.20542143 405.01953125 435.9921875 C410.84438904 439.51215532 415.56419707 444.98181684 417.58203125 451.4921875 C418.3871723 459.32826958 418.70663517 467.11141327 413.58203125 473.4921875 C408.77754486 478.53739972 404.4202607 482.09781745 397.3125 482.828125 C388.76317398 482.92238438 382.8889328 482.59720304 376.58203125 476.5859375 C373.52808627 473.28570664 371.56100107 470.9070367 370.58203125 466.4921875 C369.98777344 466.52884521 369.39351563 466.56550293 368.78125 466.60327148 C366.04871956 466.75015031 363.31701987 466.84022526 360.58203125 466.9296875 C359.18017578 467.01766602 359.18017578 467.01766602 357.75 467.10742188 C356.82832031 467.12998047 355.90664063 467.15253906 354.95703125 467.17578125 C354.11914062 467.21243896 353.28125 467.24909668 352.41796875 467.28686523 C344.68168887 465.11902854 338.24887167 456.24509926 332.78613281 450.63525391 C331.04641788 448.85925581 329.30652111 447.08343583 327.56646729 445.30776978 C326.19990368 443.91069731 326.19990368 443.91069731 324.80573273 442.48540115 C321.93587633 439.55371532 319.05636066 436.63164513 316.17425537 433.71200562 C315.68550123 433.21685947 315.1967471 432.72171333 314.69318223 432.21156275 C312.68193822 430.17435266 310.67039664 428.13743657 308.65877581 426.10059857 C302.97244993 420.34207432 297.2957267 414.57473722 291.64550781 408.78076172 C287.13793488 404.15863797 282.6109945 399.55650001 278.06063056 394.9764837 C275.66001528 392.55874981 273.27008248 390.1323074 270.90351105 387.68120193 C268.25926947 384.95220804 265.58241386 382.25965995 262.89550781 379.57275391 C262.12835449 378.76448151 261.36120117 377.95620911 260.57080078 377.1234436 C255.25519621 371.90536911 251.33448858 370.57091247 243.87960434 370.42685509 C243.12140522 370.44841478 242.3632061 370.46997448 241.58203125 370.4921875 C241.66453125 371.4821875 241.74703125 372.4721875 241.83203125 373.4921875 C241.78652661 379.13476294 239.53690235 383.41080073 235.7109375 387.484375 C228.76424931 393.81387161 223.3942571 394.97287128 214.02734375 394.796875 C206.1652237 394.10158547 202.03244421 390.44464731 197.02734375 384.58984375 C194.20034998 380.48688252 193.33142715 376.92125488 193.38671875 371.97265625 C193.39171387 371.05121826 193.39670898 370.12978027 193.40185547 369.18041992 C193.42006348 368.02517822 193.43827148 366.86993652 193.45703125 365.6796875 C193.49828125 361.9878125 193.53953125 358.2959375 193.58203125 354.4921875 C180.38203125 354.8221875 167.18203125 355.1521875 153.58203125 355.4921875 C152.26203125 359.1221875 150.94203125 362.7521875 149.58203125 366.4921875 C142.93648556 376.39535363 134.56670493 384.08671262 122.58203125 386.4921875 C111.10924601 387.71892191 100.80923964 387.14644631 91.26953125 380.1171875 C90.38265625 379.5809375 89.49578125 379.0446875 88.58203125 378.4921875 C84.56173508 379.60672505 81.8995471 381.67586678 78.76953125 384.3671875 C74.28730254 388.1243498 69.71570114 391.69428041 65.01953125 395.1796875 C59.06523375 399.60694849 53.1788608 404.1114287 47.33203125 408.6796875 C36.89781894 416.82554012 26.31282995 424.73981914 15.58203125 432.4921875 C15.91203125 433.6059375 16.24203125 434.7196875 16.58203125 435.8671875 C19.31899386 448.40168294 18.96205281 461.86463997 12.07421875 472.91015625 C5.73378049 481.71304379 -2.65227029 488.32880695 -13.41796875 490.4921875 C-25.83514959 491.83023316 -36.80687584 490.76745124 -47.16796875 483.3046875 C-55.25320055 476.492265 -61.48100892 468.18725674 -62.64111328 457.42138672 C-63.53667924 444.51007688 -61.97068219 433.74171896 -53.390625 423.55859375 C-45.24064962 415.02129281 -36.58272755 410.48438296 -24.73120117 410.0222168 C-15.3081459 409.90310922 -7.83849674 411.16916687 -0.10546875 416.8671875 C0.78140625 417.4034375 1.66828125 417.9396875 2.58203125 418.4921875 C6.60232742 417.37764995 9.2645154 415.30850822 12.39453125 412.6171875 C16.87675996 408.8600252 21.44836136 405.29009459 26.14453125 401.8046875 C32.09882875 397.37742651 37.9852017 392.8729463 43.83203125 388.3046875 C54.26624356 380.15883488 64.85123255 372.24455586 75.58203125 364.4921875 C74.92203125 361.5221875 74.26203125 358.5521875 73.58203125 355.4921875 C55.10203125 355.4921875 36.62203125 355.4921875 17.58203125 355.4921875 C16.26203125 359.1221875 14.94203125 362.7521875 13.58203125 366.4921875 C6.93534932 376.39704685 -1.43269274 384.08373132 -13.41796875 386.4921875 C-25.83514959 387.83023316 -36.80687584 386.76745124 -47.16796875 379.3046875 C-55.25320055 372.492265 -61.48100892 364.18725674 -62.64111328 353.42138672 C-63.53667924 340.51007688 -61.97068219 329.74171896 -53.390625 319.55859375 C-45.24064962 311.02129281 -36.58272755 306.48438296 -24.73120117 306.0222168 C-15.3081459 305.90310922 -7.83849674 307.16916687 -0.10546875 312.8671875 C0.78140625 313.4034375 1.66828125 313.9396875 2.58203125 314.4921875 C6.7284074 313.36073045 9.47942851 311.13232776 12.70703125 308.3671875 C17.48817541 304.34061847 22.42455926 300.67812965 27.5625 297.12109375 C28.22894531 296.58355469 28.89539063 296.04601562 29.58203125 295.4921875 C29.58203125 294.8321875 29.58203125 294.1721875 29.58203125 293.4921875 C27.75933965 291.84914744 27.75933965 291.84914744 25.3828125 290.15625 C24.50302734 289.50398438 23.62324219 288.85171875 22.71679688 288.1796875 C21.78544922 287.4990625 20.85410156 286.8184375 19.89453125 286.1171875 C18.0776545 284.77667914 16.26123458 283.43555133 14.4453125 282.09375 C13.22775269 281.20163818 13.22775269 281.20163818 11.9855957 280.29150391 C9.47324508 278.41074981 7.02269173 276.46479469 4.58203125 274.4921875 C2.42910231 275.56366834 0.2830248 276.64600332 -1.85546875 277.74609375 C-2.70109375 278.17792969 -3.54671875 278.60976563 -4.41796875 279.0546875 C-5.26359375 279.48910156 -6.10921875 279.92351562 -6.98046875 280.37109375 C-15.61408133 284.3420021 -28.55295833 283.89707022 -37.48046875 280.9296875 C-48.02844538 276.30989988 -56.23568113 268.10266413 -60.85546875 257.5546875 C-64.15314413 247.40469965 -64.0330167 234.6847183 -59.73828125 224.87890625 C-54.14116767 214.76104709 -45.83761189 206.77370168 -34.70703125 203.15234375 C-24.29028216 201.06157107 -12.76940879 200.97391199 -3.41796875 206.4921875 C-2.30457284 207.27082072 -1.19925499 208.06123974 -0.10546875 208.8671875 C0.78140625 209.4034375 1.66828125 209.9396875 2.58203125 210.4921875 C6.7284074 209.36073045 9.47942851 207.13232776 12.70703125 204.3671875 C17.48817541 200.34061847 22.42455926 196.67812965 27.5625 193.12109375 C28.22894531 192.58355469 28.89539063 192.04601562 29.58203125 191.4921875 C29.58203125 190.8321875 29.58203125 190.1721875 29.58203125 189.4921875 C27.75933965 187.84914744 27.75933965 187.84914744 25.3828125 186.15625 C24.50302734 185.50398437 23.62324219 184.85171875 22.71679688 184.1796875 C21.78544922 183.4990625 20.85410156 182.8184375 19.89453125 182.1171875 C18.0776545 180.77667914 16.26123458 179.43555133 14.4453125 178.09375 C13.63360596 177.49900879 12.82189941 176.90426758 11.9855957 176.29150391 C9.47324508 174.41074981 7.02269173 172.46479469 4.58203125 170.4921875 C2.42910231 171.56366834 0.2830248 172.64600332 -1.85546875 173.74609375 C-2.70109375 174.17792969 -3.54671875 174.60976562 -4.41796875 175.0546875 C-5.68640625 175.70630859 -5.68640625 175.70630859 -6.98046875 176.37109375 C-15.61408133 180.3420021 -28.55295833 179.89707022 -37.48046875 176.9296875 C-48.02844538 172.30989988 -56.23568113 164.10266413 -60.85546875 153.5546875 C-64.15314413 143.40469965 -64.0330167 130.6847183 -59.73828125 120.87890625 C-54.14122752 110.76115528 -45.83583984 102.76930174 -34.703125 99.15234375 C-22.7242094 96.7451657 -10.50675303 97.44813139 0 104 C9.54284397 110.87340521 13.49677034 118.25771999 17.58203125 129.4921875 C36.06203125 129.4921875 54.54203125 129.4921875 73.58203125 129.4921875 C74.24203125 126.5221875 74.90203125 123.5521875 75.58203125 120.4921875 C74.95941406 120.028125 74.33679688 119.5640625 73.6953125 119.0859375 C57.55695859 107.02156136 41.58321417 94.73750134 25.58203125 82.4921875 C22.4780531 80.11694099 19.37384558 77.74199461 16.26953125 75.3671875 C15.55764648 74.82231689 14.84576172 74.27744629 14.11230469 73.71606445 C10.94602763 71.29387016 7.7781962 68.87493258 4.58203125 66.4921875 C2.42910231 67.56366834 0.2830248 68.64600332 -1.85546875 69.74609375 C-3.12390625 70.39384766 -3.12390625 70.39384766 -4.41796875 71.0546875 C-5.68640625 71.70630859 -5.68640625 71.70630859 -6.98046875 72.37109375 C-15.61408133 76.3420021 -28.55295833 75.89707022 -37.48046875 72.9296875 C-48.02844538 68.30989988 -56.23568113 60.10266413 -60.85546875 49.5546875 C-64.15314413 39.40469965 -64.0330167 26.6847183 -59.73828125 16.87890625 C-54.14122752 6.76115528 -45.83583984 -1.23069826 -34.703125 -4.84765625 C-22.7242094 -7.2548343 -10.50675303 -6.55186861 0 0 Z M17.58203125 146.4921875 C15.39535802 150.92100103 15.39535802 150.92100103 14.58203125 155.68359375 C16.07383418 158.38165921 18.07110189 159.65224973 20.58203125 161.4296875 C22.18304688 162.58597656 22.18304688 162.58597656 23.81640625 163.765625 C24.41001953 164.19198242 25.00363281 164.61833984 25.61523438 165.05761719 C29.40532952 167.82209076 33.11232081 170.69664236 36.83203125 173.5546875 C38.31629716 174.69154869 39.8006634 175.82827891 41.28515625 176.96484375 C42.38417577 177.80721185 43.48315895 178.64962736 44.58203125 179.4921875 C47.29503813 178.20885799 49.66182352 176.80183339 52.05078125 174.98828125 C52.69917969 174.49875977 53.34757812 174.00923828 54.015625 173.50488281 C54.69753906 172.98506836 55.37945312 172.46525391 56.08203125 171.9296875 C57.50909044 170.8502285 58.93617404 169.77080177 60.36328125 168.69140625 C61.42482422 167.88582275 61.42482422 167.88582275 62.5078125 167.06396484 C65.52390157 164.77846797 68.55266199 162.5100328 71.58203125 160.2421875 C72.55140625 159.51515625 73.52078125 158.788125 74.51953125 158.0390625 C75.54046875 157.27335938 75.54046875 157.27335938 76.58203125 156.4921875 C76.27404799 155.01207379 75.96051325 153.53311425 75.64453125 152.0546875 C75.47050781 151.23097656 75.29648438 150.40726563 75.1171875 149.55859375 C74.77450131 147.51557546 74.77450131 147.51557546 73.58203125 146.4921875 C71.83274405 146.39853744 70.07966871 146.37474312 68.32788086 146.37866211 C66.64625099 146.37877541 66.64625099 146.37877541 64.9306488 146.37889099 C63.71087845 146.38405228 62.49110809 146.38921356 61.234375 146.39453125 C59.37202965 146.39665367 59.37202965 146.39665367 57.47206116 146.39881897 C54.16597634 146.40348159 50.85995979 146.41247253 47.55389404 146.42352295 C44.18241975 146.43373923 40.81093842 146.43831705 37.43945312 146.44335938 C30.8202935 146.45441355 24.20116632 146.47117014 17.58203125 146.4921875 Z M153.58203125 146.4921875 C151.93203125 150.4521875 150.28203125 154.4121875 148.58203125 158.4921875 C142.96477308 166.97314591 135.42963896 174.19151061 125.390625 177.0546875 C114.22294955 178.79429758 102.40076395 178.96007629 92.828125 172.265625 C92.31378906 171.88664062 91.79945313 171.50765625 91.26953125 171.1171875 C90.38265625 170.5809375 89.49578125 170.0446875 88.58203125 169.4921875 C84.46623305 170.62027173 81.72755957 172.81117007 78.51953125 175.5546875 C72.70077515 180.43800325 66.69160426 184.98197915 60.58203125 189.4921875 C61.77678921 193.07646139 62.8786619 193.72570267 65.87890625 195.92578125 C66.75546875 196.57482422 67.63203125 197.22386719 68.53515625 197.89257812 C69.458125 198.56482422 70.38109375 199.23707031 71.33203125 199.9296875 C73.13977696 201.26110249 74.94708188 202.5931162 76.75390625 203.92578125 C77.59759766 204.54565918 78.44128906 205.16553711 79.31054688 205.80419922 C81.78340908 207.64183564 84.2013153 209.5365994 86.58203125 211.4921875 C88.73496019 210.42070666 90.8810377 209.33837168 93.01953125 208.23828125 C93.86515625 207.80644531 94.71078125 207.37460938 95.58203125 206.9296875 C96.42765625 206.49527344 97.27328125 206.06085938 98.14453125 205.61328125 C106.77814383 201.6423729 119.71702083 202.08730478 128.64453125 205.0546875 C142.27363089 211.04481246 148.20161565 221.04114849 153.58203125 234.4921875 C166.78203125 234.4921875 179.98203125 234.4921875 193.58203125 234.4921875 C193.58203125 205.4521875 193.58203125 176.4121875 193.58203125 146.4921875 C180.38203125 146.4921875 167.18203125 146.4921875 153.58203125 146.4921875 Z M40.87109375 204.23828125 C40.12585449 204.82464355 39.38061523 205.41100586 38.61279297 206.01513672 C37.8188916 206.64693848 37.02499023 207.27874023 36.20703125 207.9296875 C34.57746954 209.21306106 32.94725899 210.49561117 31.31640625 211.77734375 C30.51396484 212.40914551 29.71152344 213.04094727 28.88476562 213.69189453 C24.177464 217.37209409 19.38221171 220.93440669 14.58203125 224.4921875 C14.89001451 225.97230121 15.20354925 227.45126075 15.51953125 228.9296875 C15.69355469 229.75339844 15.86757812 230.57710937 16.046875 231.42578125 C16.38956119 233.46879954 16.38956119 233.46879954 17.58203125 234.4921875 C19.33131845 234.58583756 21.08439379 234.60963188 22.83618164 234.60571289 C24.51781151 234.60559959 24.51781151 234.60559959 26.2334137 234.60548401 C27.45318405 234.60032272 28.67295441 234.59516144 29.9296875 234.58984375 C31.17125107 234.5884288 32.41281464 234.58701385 33.69200134 234.58555603 C36.99808616 234.58089341 40.30410271 234.57190247 43.61016846 234.56085205 C46.98164275 234.55063577 50.35312408 234.54605795 53.72460938 234.54101562 C60.343769 234.52996145 66.96289618 234.51320486 73.58203125 234.4921875 C75.76870448 230.06337397 75.76870448 230.06337397 76.58203125 225.30078125 C75.09022832 222.60271579 73.09296061 221.33212527 70.58203125 219.5546875 C68.97714844 218.39839844 68.97714844 218.39839844 67.33984375 217.21875 C66.7459082 216.79239258 66.15197266 216.36603516 65.54003906 215.92675781 C63.35520971 214.32600254 61.21342351 212.67683564 59.07421875 211.015625 C58.30980469 210.42257568 57.54539063 209.82952637 56.7578125 209.21850586 C55.23491059 208.03447548 53.71404256 206.84782406 52.1953125 205.65844727 C51.49535156 205.11760498 50.79539063 204.5767627 50.07421875 204.01953125 C49.4488623 203.53218506 48.82350586 203.04483887 48.17919922 202.54272461 C44.98688751 200.44298182 43.54956519 202.11380903 40.87109375 204.23828125 Z M17.58203125 250.4921875 C15.39535802 254.92100103 15.39535802 254.92100103 14.58203125 259.68359375 C16.07383418 262.38165921 18.07110189 263.65224973 20.58203125 265.4296875 C22.18304688 266.58597656 22.18304688 266.58597656 23.81640625 267.765625 C24.41001953 268.19198242 25.00363281 268.61833984 25.61523438 269.05761719 C29.40532952 271.82209076 33.11232081 274.69664236 36.83203125 277.5546875 C38.31629716 278.69154869 39.8006634 279.82827891 41.28515625 280.96484375 C42.38417577 281.80721185 43.48315895 282.64962736 44.58203125 283.4921875 C47.29503813 282.20885799 49.66182352 280.80183339 52.05078125 278.98828125 C52.69917969 278.49875977 53.34757812 278.00923828 54.015625 277.50488281 C54.69753906 276.98506836 55.37945312 276.46525391 56.08203125 275.9296875 C57.50909044 274.8502285 58.93617404 273.77080177 60.36328125 272.69140625 C61.42482422 271.88582275 61.42482422 271.88582275 62.5078125 271.06396484 C65.52390157 268.77846797 68.55266199 266.5100328 71.58203125 264.2421875 C72.55140625 263.51515625 73.52078125 262.788125 74.51953125 262.0390625 C75.54046875 261.27335937 75.54046875 261.27335937 76.58203125 260.4921875 C76.27404799 259.01207379 75.96051325 257.53311425 75.64453125 256.0546875 C75.47050781 255.23097656 75.29648438 254.40726562 75.1171875 253.55859375 C74.77450131 251.51557546 74.77450131 251.51557546 73.58203125 250.4921875 C71.83274405 250.39853744 70.07966871 250.37474312 68.32788086 250.37866211 C66.64625099 250.37877541 66.64625099 250.37877541 64.9306488 250.37889099 C63.71087845 250.38405228 62.49110809 250.38921356 61.234375 250.39453125 C59.37202965 250.39665367 59.37202965 250.39665367 57.47206116 250.39881897 C54.16597634 250.40348159 50.85995979 250.41247253 47.55389404 250.42352295 C44.18241975 250.43373923 40.81093842 250.43831705 37.43945312 250.44335938 C30.8202935 250.45441355 24.20116632 250.47117014 17.58203125 250.4921875 Z M153.58203125 250.4921875 C151.93203125 254.4521875 150.28203125 258.4121875 148.58203125 262.4921875 C142.96477308 270.97314591 135.42963896 278.19151061 125.390625 281.0546875 C114.22294955 282.79429758 102.40076395 282.96007629 92.828125 276.265625 C92.31378906 275.88664062 91.79945313 275.50765625 91.26953125 275.1171875 C90.38265625 274.5809375 89.49578125 274.0446875 88.58203125 273.4921875 C84.46623305 274.62027173 81.72755957 276.81117007 78.51953125 279.5546875 C72.70077515 284.43800325 66.69160426 288.98197915 60.58203125 293.4921875 C61.77678921 297.07646139 62.8786619 297.72570267 65.87890625 299.92578125 C66.75546875 300.57482422 67.63203125 301.22386719 68.53515625 301.89257812 C69.458125 302.56482422 70.38109375 303.23707031 71.33203125 303.9296875 C73.13977696 305.26110249 74.94708188 306.5931162 76.75390625 307.92578125 C77.59759766 308.54565918 78.44128906 309.16553711 79.31054688 309.80419922 C81.78340908 311.64183564 84.2013153 313.5365994 86.58203125 315.4921875 C88.73496019 314.42070666 90.8810377 313.33837168 93.01953125 312.23828125 C93.86515625 311.80644531 94.71078125 311.37460937 95.58203125 310.9296875 C96.42765625 310.49527344 97.27328125 310.06085938 98.14453125 309.61328125 C106.77814383 305.6423729 119.71702083 306.08730478 128.64453125 309.0546875 C142.27363089 315.04481246 148.20161565 325.04114849 153.58203125 338.4921875 C166.78203125 338.4921875 179.98203125 338.4921875 193.58203125 338.4921875 C193.58203125 309.4521875 193.58203125 280.4121875 193.58203125 250.4921875 C180.38203125 250.4921875 167.18203125 250.4921875 153.58203125 250.4921875 Z M40.87109375 308.23828125 C40.12585449 308.82464355 39.38061523 309.41100586 38.61279297 310.01513672 C37.8188916 310.64693848 37.02499023 311.27874023 36.20703125 311.9296875 C34.57746954 313.21306106 32.94725899 314.49561117 31.31640625 315.77734375 C30.51396484 316.40914551 29.71152344 317.04094727 28.88476562 317.69189453 C24.177464 321.37209409 19.38221171 324.93440669 14.58203125 328.4921875 C14.89001451 329.97230121 15.20354925 331.45126075 15.51953125 332.9296875 C15.69355469 333.75339844 15.86757812 334.57710938 16.046875 335.42578125 C16.38956119 337.46879954 16.38956119 337.46879954 17.58203125 338.4921875 C19.33131845 338.58583756 21.08439379 338.60963188 22.83618164 338.60571289 C24.51781151 338.60559959 24.51781151 338.60559959 26.2334137 338.60548401 C27.45318405 338.60032272 28.67295441 338.59516144 29.9296875 338.58984375 C31.17125107 338.5884288 32.41281464 338.58701385 33.69200134 338.58555603 C36.99808616 338.58089341 40.30410271 338.57190247 43.61016846 338.56085205 C46.98164275 338.55063577 50.35312408 338.54605795 53.72460938 338.54101562 C60.343769 338.52996145 66.96289618 338.51320486 73.58203125 338.4921875 C75.76870448 334.06337397 75.76870448 334.06337397 76.58203125 329.30078125 C75.09022832 326.60271579 73.09296061 325.33212527 70.58203125 323.5546875 C68.97714844 322.39839844 68.97714844 322.39839844 67.33984375 321.21875 C66.7459082 320.79239258 66.15197266 320.36603516 65.54003906 319.92675781 C63.35520971 318.32600254 61.21342351 316.67683564 59.07421875 315.015625 C58.30980469 314.42257568 57.54539063 313.82952637 56.7578125 313.21850586 C55.23491059 312.03447548 53.71404256 310.84782406 52.1953125 309.65844727 C51.49535156 309.11760498 50.79539063 308.5767627 50.07421875 308.01953125 C49.4488623 307.53218506 48.82350586 307.04483887 48.17919922 306.54272461 C44.98688751 304.44298182 43.54956519 306.11380903 40.87109375 308.23828125 Z " fill="#171526" transform="translate(78.41796875,13.5078125)"/>
<path d="M0 0 C4.19382116 0.87371274 5.4256617 2.19303062 8 5.625 C8.74094352 9.21504262 8.66593496 12.75004618 8.62145996 16.40490723 C8.63104319 18.05373705 8.63104319 18.05373705 8.64082003 19.73587656 C8.6561046 23.42649942 8.63558422 27.1160548 8.61523438 30.80664062 C8.61873453 33.44950707 8.62419504 36.09230297 8.63204956 38.7351532 C8.64657815 45.17257001 8.6343403 51.60967151 8.61293632 58.04705846 C8.58892771 65.54289174 8.5906406 73.03865273 8.59324223 80.53451592 C8.59693274 93.90865554 8.57610406 107.28264658 8.54199219 120.65673828 C8.50890061 133.63561763 8.49473385 146.61434103 8.50097656 159.59326172 C8.50774027 173.72488089 8.50528091 187.85643473 8.48561716 201.98804426 C8.48405793 203.10891723 8.48405793 203.10891723 8.4824672 204.2524341 C8.4803763 205.75326067 8.47826533 207.25408721 8.47613403 208.75491372 C8.46923777 213.98043891 8.46856924 219.20594398 8.47001648 224.43147278 C8.47145605 230.79928263 8.46176787 237.16696529 8.43807012 243.53473294 C8.42620823 246.78397753 8.42068768 250.03300885 8.42490768 253.28227806 C8.42860914 256.80342061 8.41392052 260.32401353 8.39440918 263.84509277 C8.40240107 265.3881282 8.40240107 265.3881282 8.41055441 266.96233606 C8.32672977 275.69874487 8.32672977 275.69874487 5 279.625 C2.19084526 281.02957737 0.11189466 280.87395157 -3 280.625 C-6.1359157 278.84515595 -6.84102736 278.10191793 -8 274.625 C-8.09421793 273.10848754 -8.13266026 271.58818057 -8.13701439 270.06875038 C-8.1446262 268.65886579 -8.1446262 268.65886579 -8.15239179 267.22049868 C-8.15288955 266.18598271 -8.15338731 265.15146674 -8.15390015 264.08560181 C-8.1582824 262.98809078 -8.16266465 261.89057975 -8.1671797 260.75981081 C-8.18058919 257.06334222 -8.18675135 253.36689749 -8.19287109 249.67041016 C-8.2007702 247.02786579 -8.20903378 244.38532451 -8.21765137 241.74278259 C-8.24216889 233.8003092 -8.25679982 225.85782957 -8.26971143 217.91532999 C-8.27342328 215.6726533 -8.2773965 213.42997723 -8.2814641 211.18730116 C-8.30669614 197.26418454 -8.32875177 183.34106694 -8.34119225 169.41793251 C-8.34412199 166.19333518 -8.34708365 162.96873788 -8.35009766 159.74414062 C-8.35084371 158.94267331 -8.35158976 158.14120599 -8.35235842 157.31545179 C-8.36501929 144.32446857 -8.39825294 131.333622 -8.43989949 118.3427027 C-8.48229341 105.00956634 -8.50588416 91.6765 -8.51111281 78.34329641 C-8.51452939 70.85532353 -8.52631377 63.36756436 -8.55921555 55.87965775 C-8.58718213 49.50446934 -8.59823037 43.12953845 -8.58702008 36.75429346 C-8.58182488 33.50083901 -8.58748769 30.24803855 -8.60948563 26.99463844 C-8.63203325 23.46875899 -8.6239478 19.94424995 -8.60800171 16.41836548 C-8.6218838 15.38831095 -8.63576588 14.35825643 -8.65006864 13.29698813 C-8.5973074 8.58009788 -8.54685439 6.35449345 -5.64949989 2.48947716 C-3 0.625 -3 0.625 0 0 Z " fill="#F72E44" transform="translate(296,111.375)"/>
<path d="M0 0 C5.66786803 2.97088994 9.84980113 8.07083467 12.44140625 13.87109375 C14.45961234 20.6900031 13.76574213 27.64532535 10.5625 33.9609375 C6.99748523 39.18454203 2.4469253 43.07813146 -3.3359375 45.6015625 C-11.34594053 46.72577345 -18.16515126 47.15152718 -24.8984375 42.1015625 C-31.53288654 35.90235214 -34.84647204 30.86864646 -35.2734375 21.7265625 C-35.10055824 15.00246918 -33.44358783 10.77492003 -28.8046875 5.90234375 C-20.11609752 -2.16356395 -11.3184251 -4.27940454 0 0 Z " fill="#4ABCE2" transform="translate(66.8984375,441.8984375)"/>
<path d="M0 0 C5.54772645 3.80646925 10.10735833 9.01188853 12.140625 15.46875 C13.09069505 22.75998523 12.33076924 29.32918036 8.140625 35.46875 C2.74775959 41.5070935 -2.06551662 44.87792892 -10.234375 45.7109375 C-16.32393348 46.02655486 -20.93744972 45.16019396 -25.859375 41.46875 C-32.49382404 35.26953964 -35.80740954 30.23583396 -36.234375 21.09375 C-36.06149574 14.36965668 -34.40452533 10.14210753 -29.765625 5.26953125 C-21.0360648 -2.83441047 -11.14510397 -5.61264228 0 0 Z " fill="#FAA02D" transform="translate(203.859375,338.53125)"/>
<path d="M0 0 C5.54772645 3.80646925 10.10735833 9.01188853 12.140625 15.46875 C13.09069505 22.75998523 12.33076924 29.32918036 8.140625 35.46875 C2.74775959 41.5070935 -2.06551662 44.87792892 -10.234375 45.7109375 C-16.32393348 46.02655486 -20.93744972 45.16019396 -25.859375 41.46875 C-32.49382404 35.26953964 -35.80740954 30.23583396 -36.234375 21.09375 C-36.06149574 14.36965668 -34.40452533 10.14210753 -29.765625 5.26953125 C-21.0360648 -2.83441047 -11.14510397 -5.61264228 0 0 Z " fill="#FAA02D" transform="translate(203.859375,234.53125)"/>
<path d="M0 0 C5.54772645 3.80646925 10.10735833 9.01188853 12.140625 15.46875 C13.09069505 22.75998523 12.33076924 29.32918036 8.140625 35.46875 C2.74775959 41.5070935 -2.06551662 44.87792892 -10.234375 45.7109375 C-16.32393348 46.02655486 -20.93744972 45.16019396 -25.859375 41.46875 C-32.49382404 35.26953964 -35.80740954 30.23583396 -36.234375 21.09375 C-36.06149574 14.36965668 -34.40452533 10.14210753 -29.765625 5.26953125 C-21.0360648 -2.83441047 -11.14510397 -5.61264228 0 0 Z " fill="#FAA02D" transform="translate(203.859375,130.53125)"/>
<path d="M0 0 C5.66786803 2.97088994 9.84980113 8.07083467 12.44140625 13.87109375 C14.45961234 20.6900031 13.76574213 27.64532535 10.5625 33.9609375 C6.99748523 39.18454203 2.4469253 43.07813146 -3.3359375 45.6015625 C-11.34594053 46.72577345 -18.16515126 47.15152718 -24.8984375 42.1015625 C-31.53288654 35.90235214 -34.84647204 30.86864646 -35.2734375 21.7265625 C-35.10055824 15.00246918 -33.44358783 10.77492003 -28.8046875 5.90234375 C-20.11609752 -2.16356395 -11.3184251 -4.27940454 0 0 Z " fill="#4ABCE2" transform="translate(66.8984375,25.8984375)"/>
<path d="M0 0 C6.4914144 3.67586116 11.89501919 8.78457824 13.9453125 16.1015625 C14.98346364 23.40106268 14.14423207 29.94913489 9.9453125 36.1015625 C4.55244709 42.139906 -0.26082912 45.51074142 -8.4296875 46.34375 C-14.51924598 46.65936736 -19.13276222 45.79300646 -24.0546875 42.1015625 C-30.68913654 35.90235214 -34.00272204 30.86864646 -34.4296875 21.7265625 C-34.25680824 15.00246918 -32.59983783 10.77492003 -27.9609375 5.90234375 C-19.7156089 -1.75206963 -10.78488932 -4.67199659 0 0 Z " fill="#4ABCE2" transform="translate(66.0546875,337.8984375)"/>
<path d="M0 0 C6.4914144 3.67586116 11.89501919 8.78457824 13.9453125 16.1015625 C14.98346364 23.40106268 14.14423207 29.94913489 9.9453125 36.1015625 C4.55244709 42.139906 -0.26082912 45.51074142 -8.4296875 46.34375 C-14.51924598 46.65936736 -19.13276222 45.79300646 -24.0546875 42.1015625 C-30.68913654 35.90235214 -34.00272204 30.86864646 -34.4296875 21.7265625 C-34.25680824 15.00246918 -32.59983783 10.77492003 -27.9609375 5.90234375 C-19.7156089 -1.75206963 -10.78488932 -4.67199659 0 0 Z " fill="#4ABCE2" transform="translate(66.0546875,233.8984375)"/>
<path d="M0 0 C6.4914144 3.67586116 11.89501919 8.78457824 13.9453125 16.1015625 C14.98346364 23.40106268 14.14423207 29.94913489 9.9453125 36.1015625 C4.55244709 42.139906 -0.26082912 45.51074142 -8.4296875 46.34375 C-14.51924598 46.65936736 -19.13276222 45.79300646 -24.0546875 42.1015625 C-30.68913654 35.90235214 -34.00272204 30.86864646 -34.4296875 21.7265625 C-34.25680824 15.00246918 -32.59983783 10.77492003 -27.9609375 5.90234375 C-19.7156089 -1.75206963 -10.78488932 -4.67199659 0 0 Z " fill="#4ABCE2" transform="translate(66.0546875,129.8984375)"/>
<path d="M0 0 C5.28 0 10.56 0 16 0 C16 5.28 16 10.56 16 16 C10.72 16 5.44 16 0 16 C0 10.72 0 5.44 0 0 Z " fill="#171526" transform="translate(240,312)"/>
<path d="M0 0 C5.28 0 10.56 0 16 0 C16 5.28 16 10.56 16 16 C10.72 16 5.44 16 0 16 C0 10.72 0 5.44 0 0 Z " fill="#171526" transform="translate(240,280)"/>
<path d="M0 0 C5.28 0 10.56 0 16 0 C16 5.28 16 10.56 16 16 C10.72 16 5.44 16 0 16 C0 10.72 0 5.44 0 0 Z " fill="#171526" transform="translate(240,216)"/>
<path d="M0 0 C5.28 0 10.56 0 16 0 C16 5.28 16 10.56 16 16 C10.72 16 5.44 16 0 16 C0 10.72 0 5.44 0 0 Z " fill="#171526" transform="translate(240,184)"/>
<path d="M0 0 C4.0743356 0.84881992 5.54405875 2.30225596 8 5.625 C8.625 8.625 8.625 8.625 8 11.625 C5.54405875 14.94774404 4.0743356 16.40118008 0 17.25 C-4.0743356 16.40118008 -5.54405875 14.94774404 -8 11.625 C-8.625 8.625 -8.625 8.625 -8 5.625 C-5.54405875 2.30225596 -4.0743356 0.84881992 0 0 Z " fill="#F29B2D" transform="translate(472,463.375)"/>
<path d="M0 0 C4.0743356 0.84881992 5.54405875 2.30225596 8 5.625 C8.625 8.625 8.625 8.625 8 11.625 C5.54405875 14.94774404 4.0743356 16.40118008 0 17.25 C-4.0743356 16.40118008 -5.54405875 14.94774404 -8 11.625 C-8.625 8.625 -8.625 8.625 -8 5.625 C-5.54405875 2.30225596 -4.0743356 0.84881992 0 0 Z " fill="#F29B2D" transform="translate(472,391.375)"/>
<path d="M0 0 C4.0743356 0.84881992 5.54405875 2.30225596 8 5.625 C8.625 8.625 8.625 8.625 8 11.625 C5.54405875 14.94774404 4.0743356 16.40118008 0 17.25 C-4.0743356 16.40118008 -5.54405875 14.94774404 -8 11.625 C-8.625 8.625 -8.625 8.625 -8 5.625 C-5.54405875 2.30225596 -4.0743356 0.84881992 0 0 Z " fill="#F29B2D" transform="translate(472,319.375)"/>
<path d="M0 0 C4.0743356 0.84881992 5.54405875 2.30225596 8 5.625 C8.625 8.625 8.625 8.625 8 11.625 C5.54405875 14.94774404 4.0743356 16.40118008 0 17.25 C-4.0743356 16.40118008 -5.54405875 14.94774404 -8 11.625 C-8.625 8.625 -8.625 8.625 -8 5.625 C-5.54405875 2.30225596 -4.0743356 0.84881992 0 0 Z " fill="#F29B2D" transform="translate(472,247.375)"/>
<path d="M0 0 C4.0743356 0.84881992 5.54405875 2.30225596 8 5.625 C8.625 8.625 8.625 8.625 8 11.625 C5.54405875 14.94774404 4.0743356 16.40118008 0 17.25 C-4.0743356 16.40118008 -5.54405875 14.94774404 -8 11.625 C-8.625 8.625 -8.625 8.625 -8 5.625 C-5.54405875 2.30225596 -4.0743356 0.84881992 0 0 Z " fill="#F29B2D" transform="translate(472,175.375)"/>
<path d="M0 0 C4.0743356 0.84881992 5.54405875 2.30225596 8 5.625 C8.625 8.625 8.625 8.625 8 11.625 C5.54405875 14.94774404 4.0743356 16.40118008 0 17.25 C-4.0743356 16.40118008 -5.54405875 14.94774404 -8 11.625 C-8.625 8.625 -8.625 8.625 -8 5.625 C-5.54405875 2.30225596 -4.0743356 0.84881992 0 0 Z " fill="#F29B2D" transform="translate(472,103.375)"/>
<path d="M0 0 C4.0743356 0.84881992 5.54405875 2.30225596 8 5.625 C8.625 8.625 8.625 8.625 8 11.625 C5.54405875 14.94774404 4.0743356 16.40118008 0 17.25 C-4.0743356 16.40118008 -5.54405875 14.94774404 -8 11.625 C-8.625 8.625 -8.625 8.625 -8 5.625 C-5.54405875 2.30225596 -4.0743356 0.84881992 0 0 Z " fill="#F29B2D" transform="translate(472,31.375)"/>
</svg>
