<?xml version="1.0" encoding="UTF-8"?>
<svg version="1.1" xmlns="http://www.w3.org/2000/svg" width="512" height="512">
<path d="M0 0 C1.16388748 0.00264359 1.16388748 0.00264359 2.35128784 0.00534058 C42.57218074 0.20745045 78.69317196 15.69759414 107.5 43.5 C108.35207031 44.28890625 109.20414062 45.0778125 110.08203125 45.890625 C127.48920384 62.44799862 141.38822859 86.26767638 147.5 109.5 C147.5 110.49 147.5 111.48 147.5 112.5 C148.20906494 112.47905273 148.91812988 112.45810547 149.64868164 112.43652344 C173.53293031 111.82465294 195.18273872 114.7537447 213.5 131.5 C214.39203125 132.30050781 215.2840625 133.10101563 216.203125 133.92578125 C226.22664365 143.38787331 232.99382411 154.45940007 237.5 167.5 C237.97953125 168.88445312 237.97953125 168.88445312 238.46875 170.296875 C244.48518687 191.35440403 240.85692109 213.99084233 230.5625 232.9453125 C227.95743839 237.53300864 225.06271539 241.60305782 221.5 245.5 C220.69949219 246.39203125 219.89898437 247.2840625 219.07421875 248.203125 C206.40663486 261.62233109 188.7194196 271.32845193 170.07249451 272.76383972 C166.37286799 272.84416326 162.68458474 272.8379979 158.984375 272.79296875 C157.63389564 272.78735611 156.28341008 272.78309393 154.93292236 272.78010559 C151.42134995 272.76878765 147.91016472 272.73943768 144.39874268 272.70599365 C140.79843377 272.67500676 137.19806078 272.66153987 133.59765625 272.64648438 C126.56494818 272.61455159 119.5324997 272.56351892 112.5 272.5 C112.52094727 273.3971875 112.54189453 274.294375 112.56347656 275.21875 C112.63207616 278.58099859 112.68200294 281.94249235 112.71972656 285.30517578 C112.73971295 286.75418917 112.76691197 288.20312325 112.80175781 289.65185547 C113.02220504 299.05976527 113.07853743 306.2751879 106.53515625 313.7421875 C100.12205112 319.05046066 97.18887267 320.5 88.5 320.5 C88.5 331.06 88.5 341.62 88.5 352.5 C117.87 352.5 147.24 352.5 177.5 352.5 C177.83 350.52 178.16 348.54 178.5 346.5 C182.37999215 338.44465298 188.28363744 333.75876566 196 329.625 C204.75279449 326.73623186 216.13777137 327.28192552 224.390625 331.2421875 C232.73530507 336.21808932 237.92449508 343.10564727 240.5 352.5 C241.49851512 363.59977272 240.84947202 373.2344866 233.75 382.3125 C228.09230513 388.3702339 221.04573908 392.09107368 212.765625 392.8359375 C202.15789262 393.0746082 193.19841766 391.87922737 185.10546875 384.34375 C181.00841987 379.6386233 177.5 374.82702476 177.5 368.5 C176.24354675 368.50888245 174.98709351 368.51776489 173.69256592 368.5269165 C161.86208148 368.60793997 150.0316532 368.66793553 138.20095444 368.70724869 C132.11838992 368.72813934 126.03604906 368.75648445 119.95361328 368.80175781 C114.08568366 368.8451621 108.2179694 368.86912597 102.34989166 368.87950897 C100.10912942 368.88691003 97.8683792 368.90136224 95.62770844 368.92292023 C92.49340679 368.95188158 89.35999947 368.95595896 86.22558594 368.95410156 C85.29554245 368.96848267 84.36549896 368.98286377 83.40727234 368.99768066 C77.17546308 368.95761817 77.17546308 368.95761817 73.92053223 366.75244141 C72.33097395 364.23198688 72.01193443 362.96170434 72.04589844 360.00683594 C72.04635162 358.68591949 72.04635162 358.68591949 72.04681396 357.33831787 C72.06745911 356.39651672 72.08810425 355.45471558 72.109375 354.484375 C72.11503479 353.51340881 72.12069458 352.54244263 72.12652588 351.54205322 C72.14889689 348.44419831 72.19909527 345.34750467 72.25 342.25 C72.27006403 340.14845422 72.28831497 338.04689028 72.3046875 335.9453125 C72.3487642 330.7964283 72.41779742 325.64841097 72.5 320.5 C67.22 320.5 61.94 320.5 56.5 320.5 C56.5 341.62 56.5 362.74 56.5 384.5 C63.79351562 384.43039062 63.79351562 384.43039062 71.234375 384.359375 C74.31512552 384.33893631 77.39579243 384.31968068 80.4765625 384.3046875 C85.36638757 384.28077744 90.25591299 384.25249499 95.14550781 384.19824219 C99.08774345 384.1547747 103.02965777 384.13086105 106.97211456 384.12049103 C108.47604684 384.11310118 109.97996157 384.09867033 111.48375702 384.07707977 C113.59079459 384.04803188 115.69650529 384.04404429 117.80371094 384.04589844 C119.00284119 384.03701599 120.20197144 384.02813354 121.43743896 384.01898193 C125.12316224 384.59787635 126.29781639 385.53653681 128.5 388.5 C128.95410156 391.61621094 128.95410156 391.61621094 128.890625 395.234375 C128.87773437 396.52988281 128.86484375 397.82539063 128.8515625 399.16015625 C128.81814366 400.52344824 128.78428391 401.88672949 128.75 403.25 C128.72992707 404.62888064 128.71167767 406.00778912 128.6953125 407.38671875 C128.64815448 410.75851744 128.58234538 414.12890687 128.5 417.5 C129.44166016 417.64171631 130.38332031 417.78343262 131.35351562 417.92944336 C137.79966514 419.09833313 142.86575976 423.31857014 146.875 428.375 C152.94556271 437.37966802 153.43648835 445.94609202 152.5 456.5 C150.53084609 465.07750093 145.81075636 471.51307216 138.5 476.3125 C129.89241581 481.56671285 119.17735002 482.02032808 109.48046875 479.8125 C100.71137108 476.57965293 94.60604805 470.86588068 90.5 462.5 C87.15263946 454.18445171 87.00479993 443.40104268 90.125 434.9375 C94.12944811 426.63661278 100.07478661 421.29551692 108.5 417.5 C109.82 417.5 111.14 417.5 112.5 417.5 C112.5 411.89 112.5 406.28 112.5 400.5 C110.46102539 400.52094727 108.42205078 400.54189453 106.32128906 400.56347656 C99.58392794 400.62976058 92.8465524 400.67394087 86.10895157 400.70724869 C82.0239563 400.72812211 77.93929515 400.75643463 73.85449219 400.80175781 C69.91225655 400.8452253 65.97034223 400.86913895 62.02788544 400.87950897 C60.52395316 400.88689882 59.02003843 400.90132967 57.51624298 400.92292023 C55.40920541 400.95196812 53.30349471 400.95595571 51.19628906 400.95410156 C49.99715881 400.96298401 48.79802856 400.97186646 47.56256104 400.98101807 C44.5 400.5 44.5 400.5 42.10986328 398.93603516 C39.94951338 395.66700705 39.96766796 392.85694005 40.04589844 389.06933594 C40.04531433 388.32748047 40.04473022 387.585625 40.04412842 386.82128906 C40.04690975 384.37517098 40.07800214 381.93027953 40.109375 379.484375 C40.11683726 377.78615993 40.12253027 376.08793624 40.12652588 374.38970947 C40.14178349 369.9244399 40.18106611 365.45969247 40.2253418 360.99462891 C40.26629193 356.43659529 40.28453633 351.87847713 40.3046875 347.3203125 C40.34756064 338.37994226 40.41791125 329.44009628 40.5 320.5 C29.94 320.5 19.38 320.5 8.5 320.5 C8.5 347.23 8.5 373.96 8.5 401.5 C10.48 401.83 12.46 402.16 14.5 402.5 C22.55534702 406.37999215 27.24123434 412.28363744 31.375 420 C34.26376814 428.75279449 33.71807448 440.13777137 29.7578125 448.390625 C24.78191068 456.73530507 17.89435273 461.92449508 8.5 464.5 C-2.59977272 465.49851512 -12.2344866 464.84947202 -21.3125 457.75 C-27.3702339 452.09230513 -31.09107368 445.04573908 -31.8359375 436.765625 C-32.0746082 426.15789262 -30.87922737 417.19841766 -23.34375 409.10546875 C-18.6386233 405.00841987 -13.82702476 401.5 -7.5 401.5 C-7.5 374.77 -7.5 348.04 -7.5 320.5 C-18.06 320.5 -28.62 320.5 -39.5 320.5 C-39.47905273 322.78131836 -39.45810547 325.06263672 -39.43652344 327.41308594 C-39.37025825 334.94873492 -39.32606658 342.48439674 -39.29275131 350.02025986 C-39.27187235 354.58950964 -39.24354929 359.15846102 -39.19824219 363.72753906 C-39.15479512 368.13660873 -39.13086522 372.5453913 -39.12049103 376.95465851 C-39.11309757 378.63721487 -39.09865983 380.31975543 -39.07707977 382.00218964 C-39.04805997 384.35825101 -39.04404325 386.71312473 -39.04589844 389.06933594 C-39.03151733 389.76561096 -39.01713623 390.46188599 -39.00231934 391.17926025 C-39.02947032 394.36398122 -39.34019125 396.25817838 -41.10986328 398.93603516 C-44.29894041 401.0227796 -46.39557688 400.98225499 -50.19628906 400.95410156 C-50.86011597 400.95468567 -51.52394287 400.95526978 -52.20788574 400.95587158 C-54.39433738 400.95309265 -56.57941262 400.92201328 -58.765625 400.890625 C-60.28447729 400.88316184 -61.80333922 400.87746926 -63.32220459 400.87347412 C-67.31403325 400.85822341 -71.30527697 400.81894723 -75.296875 400.7746582 C-79.37231534 400.73369289 -83.44785048 400.71546046 -87.5234375 400.6953125 C-95.51592296 400.65245159 -103.50782126 400.5821071 -111.5 400.5 C-111.5 406.11 -111.5 411.72 -111.5 417.5 C-109.52 417.83 -107.54 418.16 -105.5 418.5 C-97.44465298 422.37999215 -92.75876566 428.28363744 -88.625 436 C-85.73623186 444.75279449 -86.28192552 456.13777137 -90.2421875 464.390625 C-95.21808932 472.73530507 -102.10564727 477.92449508 -111.5 480.5 C-122.59977272 481.49851512 -132.2344866 480.84947202 -141.3125 473.75 C-147.3702339 468.09230513 -151.09107368 461.04573908 -151.8359375 452.765625 C-152.0746082 442.15789262 -150.87922737 433.19841766 -143.34375 425.10546875 C-138.6386233 421.00841987 -133.82702476 417.5 -127.5 417.5 C-127.5314209 416.21367676 -127.5314209 416.21367676 -127.56347656 414.90136719 C-127.63176527 411.71081528 -127.68185513 408.52063654 -127.71972656 405.32958984 C-127.73980642 403.9502332 -127.76707666 402.57096131 -127.80175781 401.19189453 C-127.85042817 399.20643021 -127.87086418 397.22033746 -127.890625 395.234375 C-127.91157227 394.04038086 -127.93251953 392.84638672 -127.95410156 391.61621094 C-127.39245381 387.76197874 -126.56001049 386.84751878 -123.5 384.5 C-120.43743896 384.01898193 -120.43743896 384.01898193 -116.80371094 384.04589844 C-116.13988403 384.04531433 -115.47605713 384.04473022 -114.79211426 384.04412842 C-112.60566262 384.04690735 -110.42058738 384.07798672 -108.234375 384.109375 C-106.71552271 384.11683816 -105.19666078 384.12253074 -103.67779541 384.12652588 C-99.68596675 384.14177659 -95.69472303 384.18105277 -91.703125 384.2253418 C-86.91077767 384.27351328 -82.11823441 384.29183128 -77.32571411 384.31515503 C-70.05006962 384.35390502 -62.77570782 384.43056058 -55.5 384.5 C-55.5 363.38 -55.5 342.26 -55.5 320.5 C-60.78 320.5 -66.06 320.5 -71.5 320.5 C-71.47905273 321.81194336 -71.45810547 323.12388672 -71.43652344 324.47558594 C-71.3641203 329.34331344 -71.31819887 334.21099335 -71.28027344 339.07910156 C-71.26015874 341.18595382 -71.23286333 343.29275025 -71.19824219 345.39941406 C-71.14971832 348.42787447 -71.12702984 351.45559678 -71.109375 354.484375 C-71.08872986 355.42617615 -71.06808472 356.36797729 -71.04681396 357.33831787 C-71.04651184 358.21892883 -71.04620972 359.09953979 -71.04589844 360.00683594 C-71.03701599 360.77960876 -71.02813354 361.55238159 -71.01898193 362.34857178 C-71.74794554 365.60897505 -72.72137865 366.61751724 -75.5 368.5 C-78.74269095 369.0752967 -81.94029019 369.00490153 -85.22558594 368.95410156 C-86.21128067 368.95468567 -87.1969754 368.95526978 -88.21253967 368.95587158 C-91.4701765 368.95308515 -94.72689804 368.9219659 -97.984375 368.890625 C-100.24309794 368.88316462 -102.50182736 368.87747073 -104.76055908 368.87347412 C-110.70536165 368.85820193 -116.64977328 368.81890597 -122.59442139 368.7746582 C-128.66055004 368.73373997 -134.72674187 368.71547044 -140.79296875 368.6953125 C-152.69548426 368.65241366 -164.59770962 368.58414277 -176.5 368.5 C-176.64171631 369.44166016 -176.78343262 370.38332031 -176.92944336 371.35351562 C-178.09833313 377.79966514 -182.31857014 382.86575976 -187.375 386.875 C-196.37966802 392.94556271 -204.94609202 393.43648835 -215.5 392.5 C-224.07750093 390.53084609 -230.51307216 385.81075636 -235.3125 378.5 C-240.56671285 369.89241581 -241.02032808 359.17735002 -238.8125 349.48046875 C-235.57965293 340.71137108 -229.86588068 334.60604805 -221.5 330.5 C-213.18445171 327.15263946 -202.40104268 327.00479993 -193.9375 330.125 C-185.63661278 334.12944811 -180.29551692 340.07478661 -176.5 348.5 C-176.5 349.82 -176.5 351.14 -176.5 352.5 C-147.13 352.5 -117.76 352.5 -87.5 352.5 C-87.5 341.94 -87.5 331.38 -87.5 320.5 C-89.81 320.5 -92.12 320.5 -94.5 320.5 C-101.08594643 318.71238597 -105.71276784 313.99660452 -109.5 308.5 C-111.57094738 304.31871221 -111.73348079 300.86791539 -111.6953125 296.23046875 C-111.6924826 295.54946609 -111.68965271 294.86846344 -111.68673706 294.16682434 C-111.67560525 292.00686545 -111.65051457 289.84733206 -111.625 287.6875 C-111.61496111 286.21680289 -111.60583685 284.74609924 -111.59765625 283.27539062 C-111.57568913 279.68345714 -111.5412082 276.09177015 -111.5 272.5 C-112.80445068 272.52094727 -114.10890137 272.54189453 -115.45288086 272.56347656 C-120.37496603 272.6368504 -125.29700481 272.68214753 -130.21948242 272.71972656 C-132.33447445 272.73962331 -134.4494131 272.76675065 -136.56420898 272.80175781 C-164.87708587 273.2580924 -188.98933241 266.65640193 -210.12890625 246.8359375 C-228.59547035 228.64317748 -239.32466835 206.14205487 -239.97290039 180.18115234 C-240.18216328 151.75533416 -231.73871673 128.0433128 -211.5 107.5 C-194.43471782 90.40618056 -171.86668082 80.41931176 -147.75146484 80.23193359 C-142.99871216 80.25784369 -138.25024222 80.34403801 -133.5 80.5 C-133.17322266 79.26636719 -133.17322266 79.26636719 -132.83984375 78.0078125 C-131.16378957 73.61977562 -128.79192163 70.17243754 -126.0625 66.375 C-125.52898926 65.62726318 -124.99547852 64.87952637 -124.44580078 64.10913086 C-119.58446815 57.41169371 -114.2805676 51.41779176 -108.5 45.5 C-107.71367187 44.65179688 -106.92734375 43.80359375 -106.1171875 42.9296875 C-89.67101732 25.61507269 -67.32545966 13.21755465 -44.625 6.25 C-43.87202637 6.01587402 -43.11905273 5.78174805 -42.34326172 5.54052734 C-28.37470098 1.46648548 -14.49333918 -0.08903865 0 0 Z " fill="#00074E" transform="translate(255.5,15.5)"/>
<path d="M0 0 C0.83015625 0.70898438 1.6603125 1.41796875 2.515625 2.1484375 C22.71321577 19.80584048 37.10922541 43.05412425 44 69 C44.53368228 70.89809642 45.07478951 72.79412861 45.625 74.6875 C45.84414063 75.47511719 46.06328125 76.26273437 46.2890625 77.07421875 C46.92133099 79.20030486 46.92133099 79.20030486 49 81 C52.58044824 81.17608762 55.72898469 81.28319113 59.2265625 80.50390625 C69.98436886 78.5493189 81.72311062 79.43542858 92 83 C92.99386719 83.3403125 93.98773438 83.680625 95.01171875 84.03125 C111.19778475 90.16578974 123.05953763 101.5861578 130.48046875 117.09375 C134.16168465 125.6436708 136.38193256 133.4500619 136.3125 142.75 C136.30758545 143.53713379 136.3026709 144.32426758 136.29760742 145.13525391 C136.16563554 151.75550473 135.17657273 157.7248004 133 164 C132.6596875 164.99386719 132.319375 165.98773438 131.96875 167.01171875 C125.35170921 184.47087029 113.02884616 195.81172426 96.45483398 203.68383789 C82.39163702 209.43373271 67.87842789 208.70698824 52.95031738 208.4119873 C49.45017672 208.34960611 45.94975996 208.32299617 42.44921875 208.29296875 C35.63215627 208.22942379 28.81615769 208.12760222 22 208 C17.9296875 201.3125 17.9296875 201.3125 18.5625 198.5 C19.036875 197.675 19.51125 196.85 20 196 C22.95445018 190.2466456 23.45502808 185.61188955 23.43359375 179.19140625 C23.4388356 178.26585434 23.44407745 177.34030243 23.44947815 176.38670349 C23.45587464 174.43774413 23.45459225 172.48874604 23.44604492 170.53979492 C23.43753488 167.57465191 23.46632957 164.61143753 23.49804688 161.64648438 C23.49965925 159.74479224 23.49908066 157.84309672 23.49609375 155.94140625 C23.51294472 154.62542198 23.51294472 154.62542198 23.53013611 153.28285217 C23.47069476 147.97489642 22.61782102 144.35467396 19.8575592 139.79112244 C19 138 19 138 19 134 C19.85632324 131.99232483 19.85632324 131.99232483 20.96679688 129.87524414 C23.30112214 124.83038633 23.5824947 120.4960716 23.53125 114.99609375 C23.53699036 113.61201073 23.53699036 113.61201073 23.54284668 112.19996643 C23.54555087 110.26293842 23.53829515 108.32587296 23.52148438 106.38891602 C23.50002828 103.44138532 23.52134952 100.49628479 23.546875 97.54882812 C23.54423194 95.65624468 23.5391074 93.76366273 23.53125 91.87109375 C23.54339539 90.56452065 23.54339539 90.56452065 23.55578613 89.23155212 C23.45043526 82.2861779 21.60850872 77.08718351 17.10546875 71.7578125 C16.47253906 71.21898437 15.83960938 70.68015625 15.1875 70.125 C14.24970703 69.29355469 14.24970703 69.29355469 13.29296875 68.4453125 C8.00720949 65.11357327 2.24986405 64.70550618 -3.84922791 64.73257446 C-4.98904368 64.72577779 -4.98904368 64.72577779 -6.15188605 64.71884382 C-8.68196809 64.70624768 -11.21183356 64.70781705 -13.74194336 64.70947266 C-15.56248754 64.70348452 -17.38302918 64.69667832 -19.2035675 64.68911743 C-24.13743072 64.67148193 -29.07122453 64.66676316 -34.00511622 64.66548586 C-37.08958006 64.66406262 -40.17402633 64.65978981 -43.25848579 64.65449142 C-54.02446739 64.63600115 -64.79039953 64.62781979 -75.55639648 64.62939453 C-85.58403444 64.63059652 -95.61145736 64.60948024 -105.63904089 64.5779072 C-114.25665578 64.55174266 -122.87420042 64.54102727 -131.49185473 64.54230535 C-136.63520504 64.54281481 -141.77836407 64.5371398 -146.92167473 64.51594925 C-151.75874455 64.49656325 -156.59544061 64.49644491 -161.43252373 64.51098251 C-163.20460049 64.51307107 -164.97670069 64.50836694 -166.74873734 64.4962616 C-180.50490664 64.29423258 -180.50490664 64.29423258 -192.2421875 70.96484375 C-192.78101563 71.61582031 -193.31984375 72.26679688 -193.875 72.9375 C-194.42929688 73.58589844 -194.98359375 74.23429687 -195.5546875 74.90234375 C-199.26826094 80.29204358 -199.32002072 85.23806003 -199.3359375 91.578125 C-199.3425943 92.50413513 -199.3492511 93.43014526 -199.35610962 94.38421631 C-199.36621653 96.34092225 -199.37092725 98.29766252 -199.37060547 100.25439453 C-199.37496505 103.2261747 -199.41126772 106.1964524 -199.44921875 109.16796875 C-199.45509028 111.0755158 -199.45905742 112.98306984 -199.4609375 114.890625 C-199.47530853 115.76906067 -199.48967957 116.64749634 -199.50448608 117.55255127 C-199.46402899 123.1022576 -198.44894264 127.07325318 -195.85879517 131.99603271 C-195 134 -195 134 -195 138 C-195.85632324 139.79359436 -195.85632324 139.79359436 -196.96679688 141.63305664 C-199.45886554 146.3958065 -199.58051014 150.5717996 -199.53125 155.87109375 C-199.5350769 156.79285904 -199.53890381 157.71462433 -199.54284668 158.6643219 C-199.5455543 160.60313008 -199.53827417 162.54197552 -199.52148438 164.48071289 C-199.50008259 167.42613336 -199.52131246 170.36910818 -199.546875 173.31445312 C-199.54423104 175.20833865 -199.53910466 177.10222267 -199.53125 178.99609375 C-199.53934692 179.86511826 -199.54744385 180.73414276 -199.55578613 181.62950134 C-199.47258692 187.13530231 -198.41925992 191.10617212 -195.85632324 195.99232483 C-195 198 -195 198 -195 202 C-195.93704257 204.0302589 -196.92925408 206.03696582 -198 208 C-203.95494906 208.10028413 -209.90938662 208.17212362 -215.86499023 208.21972656 C-217.88298118 208.23960983 -219.90091635 208.26672625 -221.91870117 208.30175781 C-237.75075599 208.56936401 -253.2710027 207.98778067 -267.5 200.1875 C-268.15597168 199.84420654 -268.81194336 199.50091309 -269.48779297 199.1472168 C-274.78176306 196.2997919 -279.4608779 192.94109521 -284 189 C-285.5159375 187.8553125 -285.5159375 187.8553125 -287.0625 186.6875 C-298.90799401 175.85013314 -305.64841518 162.18980171 -310 147 C-310.36867188 145.73929688 -310.73734375 144.47859375 -311.1171875 143.1796875 C-315.62038521 124.67571993 -310.85108162 104.41895348 -302 88 C-299.56734718 84.11444648 -296.90412756 80.54303563 -294 77 C-293.18789063 75.94425781 -293.18789063 75.94425781 -292.359375 74.8671875 C-281.11655689 60.95010682 -261.97288702 50.60507585 -244.25512695 48.16772461 C-241.35322615 47.95189633 -238.49508692 48.01321751 -235.5859375 48.078125 C-234.41289062 48.10390625 -233.23984375 48.1296875 -232.03125 48.15625 C-229.58549368 48.2189617 -227.14008803 48.29719409 -224.6953125 48.390625 C-217.83846807 48.64856119 -217.83846807 48.64856119 -211.83203125 45.79296875 C-210.16387639 43.24983288 -208.64683287 40.79430451 -207.3125 38.0625 C-191.59025408 8.25824247 -162.93363729 -15.47144779 -130.85546875 -25.6875 C-85.91737734 -39.33871057 -35.93108977 -31.22869883 0 0 Z " fill="#00CFCD" transform="translate(344,64)"/>
<path d="M0 0 C1.1250293 -0.00950684 2.25005859 -0.01901367 3.40917969 -0.02880859 C4.99134277 -0.02228271 4.99134277 -0.02228271 6.60546875 -0.015625 C7.5596167 -0.01336914 8.51376465 -0.01111328 9.49682617 -0.00878906 C11.8125 0.25 11.8125 0.25 13.8125 2.25 C12.83152344 2.65089844 11.85054687 3.05179688 10.83984375 3.46484375 C-3.10121696 9.28609855 -15.73644607 16.30261982 -27.1875 26.25 C-28.39792969 27.27867188 -28.39792969 27.27867188 -29.6328125 28.328125 C-44.54280382 41.32178515 -54.9028642 55.89932451 -64.1875 73.25 C-64.90591064 73.22381592 -65.62432129 73.19763184 -66.36450195 73.1706543 C-94.94403592 72.27034997 -117.21741854 77.51630448 -139.1875 96.25 C-139.85007812 96.79914063 -140.51265625 97.34828125 -141.1953125 97.9140625 C-156.30552985 111.61867824 -165.30793203 133.87625207 -166.640625 153.86328125 C-167.64251225 178.64235181 -159.79513233 201.69497216 -143.1875 220.25 C-136.75748156 226.98575483 -129.83796838 232.01524546 -121.83984375 236.65625 C-119.1875 238.25 -119.1875 238.25 -117.1875 240.25 C-122.00311535 240.35072078 -126.81808574 240.42231603 -131.63452148 240.46972656 C-133.26451323 240.48954021 -134.89443696 240.51659923 -136.52416992 240.55175781 C-151.12261481 240.85823952 -165.62173068 239.60010365 -178.6875 232.4375 C-179.34347168 232.09420654 -179.99944336 231.75091309 -180.67529297 231.3972168 C-185.96926306 228.5497919 -190.6483779 225.19109521 -195.1875 221.25 C-196.7034375 220.1053125 -196.7034375 220.1053125 -198.25 218.9375 C-210.09549401 208.10013314 -216.83591518 194.43980171 -221.1875 179.25 C-221.55617187 177.98929688 -221.92484375 176.72859375 -222.3046875 175.4296875 C-226.80788521 156.92571993 -222.03858162 136.66895348 -213.1875 120.25 C-210.75484718 116.36444648 -208.09162756 112.79303563 -205.1875 109.25 C-204.37539062 108.19425781 -204.37539062 108.19425781 -203.546875 107.1171875 C-192.30405689 93.20010682 -173.16038702 82.85507585 -155.44262695 80.41772461 C-152.54072615 80.20189633 -149.68258692 80.26321751 -146.7734375 80.328125 C-145.60039062 80.35390625 -144.42734375 80.3796875 -143.21875 80.40625 C-140.77299368 80.4689617 -138.32758803 80.54719409 -135.8828125 80.640625 C-129.02596807 80.89856119 -129.02596807 80.89856119 -123.01953125 78.04296875 C-121.35137639 75.49983288 -119.83433287 73.04430451 -118.5 70.3125 C-102.77775408 40.50824247 -74.12113729 16.77855221 -42.04296875 6.5625 C-27.90712468 2.26833935 -14.79247944 0.10598714 0 0 Z " fill="#00A4AA" transform="translate(255.1875,31.75)"/>
<path d="M0 0 C0.73986727 -0.00638882 1.47973454 -0.01277764 2.24202204 -0.01936007 C4.716711 -0.03459874 7.18979597 -0.01415803 9.66442871 0.00622559 C11.44028758 0.00272403 13.21614331 -0.00293495 14.99198914 -0.0105896 C19.81233119 -0.02484227 24.63210312 -0.00777134 29.45239067 0.01569557 C34.49625313 0.03579624 39.54009172 0.02992542 44.58398438 0.02758789 C53.05441699 0.02764147 61.5246266 0.04740347 69.99499512 0.07946777 C79.78860712 0.11636091 89.58192696 0.1251434 99.37559938 0.11817026 C108.79586515 0.1118655 118.2160307 0.12261908 127.63627625 0.14213562 C131.64574104 0.1503114 135.65515464 0.15301883 139.66462708 0.15144348 C144.38592849 0.15056468 149.10695217 0.16477968 153.82818031 0.19067001 C155.56118231 0.19783351 157.29421386 0.19991455 159.0272274 0.19655228 C161.39239519 0.19283876 163.75675188 0.20757984 166.12182617 0.22705078 C166.80811301 0.22172286 167.49439984 0.21639493 168.20148325 0.21090555 C172.47091411 0.27157191 175.15680272 1.02426432 178.56091309 3.62145996 C180.1509784 6.80159059 179.74508385 10.24116653 179.76403809 13.73474121 C179.76973816 14.54130661 179.77543823 15.34787201 179.78131104 16.17887878 C179.79076504 17.88783454 179.79729661 19.59680856 179.80114746 21.30578613 C179.81083628 23.91329037 179.84184808 26.52000074 179.87341309 29.12731934 C179.87994493 30.78812195 179.88519469 32.4489302 179.88903809 34.10974121 C179.90138489 34.88699051 179.91373169 35.66423981 179.92645264 36.46504211 C179.90785737 41.01261479 179.4844139 44.0604236 176.56091309 47.62145996 C173.08314014 48.78071761 169.9725768 48.76642562 166.35560608 48.76190186 C165.61674209 48.76487298 164.8778781 48.7678441 164.1166243 48.77090526 C161.63393117 48.7795962 159.15128624 48.78110082 156.6685791 48.78259277 C154.89139706 48.78722058 153.11421602 48.79224519 151.33703613 48.79763794 C146.50445508 48.81076553 141.67188791 48.81720733 136.83929181 48.8216486 C133.82189003 48.8245781 130.80449207 48.82868262 127.78709221 48.83315277 C118.35137784 48.84682722 108.91567217 48.85649474 99.47994858 48.86035466 C88.57793633 48.86483866 77.67604926 48.88240262 66.77407509 48.91135526 C58.35278774 48.93294589 49.93153569 48.9430575 41.51022094 48.94439578 C36.47763157 48.94544548 31.44515987 48.95138845 26.41259956 48.96921539 C21.68071189 48.98565137 16.94903092 48.98787344 12.21712494 48.97907639 C10.47884761 48.97830367 8.74055936 48.98267952 7.0023098 48.99253464 C4.63235923 49.00518514 2.26314849 48.99941552 -0.10679626 48.98895264 C-1.14264214 49.00103724 -1.14264214 49.00103724 -2.19941419 49.01336598 C-5.19094246 48.98239923 -7.20068878 48.75434976 -9.83485508 47.28599167 C-14.38732716 42.56240125 -12.74578208 33.07880789 -12.78918457 26.86169434 C-12.80575333 25.12164952 -12.83305581 23.38167301 -12.87121582 21.64196777 C-12.92605572 19.1269621 -12.94786552 16.61354589 -12.96252441 14.09802246 C-12.98519379 13.32391022 -13.00786316 12.54979797 -13.03121948 11.75222778 C-13.0164606 7.96826838 -12.68981634 5.94897649 -10.36756134 2.91551971 C-6.83063109 0.14481792 -4.31278289 -0.07866501 0 0 Z " fill="#FED547" transform="translate(172.4390869140625,271.3785400390625)"/>
<path d="M0 0 C0.73986727 -0.00638882 1.47973454 -0.01277764 2.24202204 -0.01936007 C4.716711 -0.03459874 7.18979597 -0.01415803 9.66442871 0.00622559 C11.44028758 0.00272403 13.21614331 -0.00293495 14.99198914 -0.0105896 C19.81233119 -0.02484227 24.63210312 -0.00777134 29.45239067 0.01569557 C34.49625313 0.03579624 39.54009172 0.02992542 44.58398438 0.02758789 C53.05441699 0.02764147 61.5246266 0.04740347 69.99499512 0.07946777 C79.78860712 0.11636091 89.58192696 0.1251434 99.37559938 0.11817026 C108.79586515 0.1118655 118.2160307 0.12261908 127.63627625 0.14213562 C131.64574104 0.1503114 135.65515464 0.15301883 139.66462708 0.15144348 C144.38592849 0.15056468 149.10695217 0.16477968 153.82818031 0.19067001 C155.56118231 0.19783351 157.29421386 0.19991455 159.0272274 0.19655228 C161.39239519 0.19283876 163.75675188 0.20757984 166.12182617 0.22705078 C166.80811301 0.22172286 167.49439984 0.21639493 168.20148325 0.21090555 C172.47091411 0.27157191 175.15680272 1.02426432 178.56091309 3.62145996 C180.1509784 6.80159059 179.74508385 10.24116653 179.76403809 13.73474121 C179.76973816 14.54130661 179.77543823 15.34787201 179.78131104 16.17887878 C179.79076504 17.88783454 179.79729661 19.59680856 179.80114746 21.30578613 C179.81083628 23.91329037 179.84184808 26.52000074 179.87341309 29.12731934 C179.87994493 30.78812195 179.88519469 32.4489302 179.88903809 34.10974121 C179.90138489 34.88699051 179.91373169 35.66423981 179.92645264 36.46504211 C179.90785737 41.01261479 179.4844139 44.0604236 176.56091309 47.62145996 C173.08314014 48.78071761 169.9725768 48.76642562 166.35560608 48.76190186 C165.61674209 48.76487298 164.8778781 48.7678441 164.1166243 48.77090526 C161.63393117 48.7795962 159.15128624 48.78110082 156.6685791 48.78259277 C154.89139706 48.78722058 153.11421602 48.79224519 151.33703613 48.79763794 C146.50445508 48.81076553 141.67188791 48.81720733 136.83929181 48.8216486 C133.82189003 48.8245781 130.80449207 48.82868262 127.78709221 48.83315277 C118.35137784 48.84682722 108.91567217 48.85649474 99.47994858 48.86035466 C88.57793633 48.86483866 77.67604926 48.88240262 66.77407509 48.91135526 C58.35278774 48.93294589 49.93153569 48.9430575 41.51022094 48.94439578 C36.47763157 48.94544548 31.44515987 48.95138845 26.41259956 48.96921539 C21.68071189 48.98565137 16.94903092 48.98787344 12.21712494 48.97907639 C10.47884761 48.97830367 8.74055936 48.98267952 7.0023098 48.99253464 C4.63235923 49.00518514 2.26314849 48.99941552 -0.10679626 48.98895264 C-1.14264214 49.00103724 -1.14264214 49.00103724 -2.19941419 49.01336598 C-5.19094246 48.98239923 -7.20068878 48.75434976 -9.83485508 47.28599167 C-14.38732716 42.56240125 -12.74578208 33.07880789 -12.78918457 26.86169434 C-12.80575333 25.12164952 -12.83305581 23.38167301 -12.87121582 21.64196777 C-12.92605572 19.1269621 -12.94786552 16.61354589 -12.96252441 14.09802246 C-12.98519379 13.32391022 -13.00786316 12.54979797 -13.03121948 11.75222778 C-13.0164606 7.96826838 -12.68981634 5.94897649 -10.36756134 2.91551971 C-6.83063109 0.14481792 -4.31278289 -0.07866501 0 0 Z " fill="#FED547" transform="translate(172.4390869140625,207.3785400390625)"/>
<path d="M0 0 C0.73986727 -0.00638882 1.47973454 -0.01277764 2.24202204 -0.01936007 C4.716711 -0.03459874 7.18979597 -0.01415803 9.66442871 0.00622559 C11.44028758 0.00272403 13.21614331 -0.00293495 14.99198914 -0.0105896 C19.81233119 -0.02484227 24.63210312 -0.00777134 29.45239067 0.01569557 C34.49625313 0.03579624 39.54009172 0.02992542 44.58398438 0.02758789 C53.05441699 0.02764147 61.5246266 0.04740347 69.99499512 0.07946777 C79.78860712 0.11636091 89.58192696 0.1251434 99.37559938 0.11817026 C108.79586515 0.1118655 118.2160307 0.12261908 127.63627625 0.14213562 C131.64574104 0.1503114 135.65515464 0.15301883 139.66462708 0.15144348 C144.38592849 0.15056468 149.10695217 0.16477968 153.82818031 0.19067001 C155.56118231 0.19783351 157.29421386 0.19991455 159.0272274 0.19655228 C161.39239519 0.19283876 163.75675188 0.20757984 166.12182617 0.22705078 C166.80811301 0.22172286 167.49439984 0.21639493 168.20148325 0.21090555 C172.47091411 0.27157191 175.15680272 1.02426432 178.56091309 3.62145996 C180.1509784 6.80159059 179.74508385 10.24116653 179.76403809 13.73474121 C179.76973816 14.54130661 179.77543823 15.34787201 179.78131104 16.17887878 C179.79076504 17.88783454 179.79729661 19.59680856 179.80114746 21.30578613 C179.81083628 23.91329037 179.84184808 26.52000074 179.87341309 29.12731934 C179.87994493 30.78812195 179.88519469 32.4489302 179.88903809 34.10974121 C179.90138489 34.88699051 179.91373169 35.66423981 179.92645264 36.46504211 C179.90785737 41.01261479 179.4844139 44.0604236 176.56091309 47.62145996 C173.08314014 48.78071761 169.9725768 48.76642562 166.35560608 48.76190186 C165.61674209 48.76487298 164.8778781 48.7678441 164.1166243 48.77090526 C161.63393117 48.7795962 159.15128624 48.78110082 156.6685791 48.78259277 C154.89139706 48.78722058 153.11421602 48.79224519 151.33703613 48.79763794 C146.50445508 48.81076553 141.67188791 48.81720733 136.83929181 48.8216486 C133.82189003 48.8245781 130.80449207 48.82868262 127.78709221 48.83315277 C118.35137784 48.84682722 108.91567217 48.85649474 99.47994858 48.86035466 C88.57793633 48.86483866 77.67604926 48.88240262 66.77407509 48.91135526 C58.35278774 48.93294589 49.93153569 48.9430575 41.51022094 48.94439578 C36.47763157 48.94544548 31.44515987 48.95138845 26.41259956 48.96921539 C21.68071189 48.98565137 16.94903092 48.98787344 12.21712494 48.97907639 C10.47884761 48.97830367 8.74055936 48.98267952 7.0023098 48.99253464 C4.63235923 49.00518514 2.26314849 48.99941552 -0.10679626 48.98895264 C-1.14264214 49.00103724 -1.14264214 49.00103724 -2.19941419 49.01336598 C-5.19094246 48.98239923 -7.20068878 48.75434976 -9.83485508 47.28599167 C-14.38732716 42.56240125 -12.74578208 33.07880789 -12.78918457 26.86169434 C-12.80575333 25.12164952 -12.83305581 23.38167301 -12.87121582 21.64196777 C-12.92605572 19.1269621 -12.94786552 16.61354589 -12.96252441 14.09802246 C-12.98519379 13.32391022 -13.00786316 12.54979797 -13.03121948 11.75222778 C-13.0164606 7.96826838 -12.68981634 5.94897649 -10.36756134 2.91551971 C-6.83063109 0.14481792 -4.31278289 -0.07866501 0 0 Z " fill="#FED547" transform="translate(172.4390869140625,143.3785400390625)"/>
<path d="M0 0 C8.58 0 17.16 0 26 0 C27.32 2.64 28.64 5.28 30 8 C31.96822886 9.96822886 35.34808709 9.66248381 38 10 C38.07433795 15.87155408 38.12869117 21.74283219 38.16479492 27.61474609 C38.17985098 29.61088841 38.20030027 31.60699781 38.22631836 33.60302734 C38.26284161 36.47762185 38.27975837 39.35177772 38.29296875 42.2265625 C38.30845261 43.11429352 38.32393646 44.00202454 38.33988953 44.91665649 C38.34147199 50.78592318 37.53459896 55.09365985 33.53515625 59.6796875 C30.31342847 62.29467079 29.28843946 63 25 63 C25 63.66 25 64.32 25 65 C25.86625 65.020625 26.7325 65.04125 27.625 65.0625 C32.24124645 66.34479068 34.4651244 69.01190581 37 73 C38.2648664 77.19114266 38.18044387 81.36879179 38.203125 85.7109375 C38.20882507 86.55669342 38.21452515 87.40244934 38.22039795 88.27383423 C38.22983001 90.0607987 38.2363748 91.84778043 38.24023438 93.63476562 C38.24994078 96.35838347 38.28098097 99.08124658 38.3125 101.8046875 C38.31903066 103.54426637 38.32428088 105.28385062 38.328125 107.0234375 C38.3404718 107.83299896 38.3528186 108.64256042 38.36553955 109.47665405 C38.34352884 115.10526555 37.35811756 119.2960252 33.53515625 123.6796875 C30.31342847 126.29467079 29.28843946 127 25 127 C25 127.66 25 128.32 25 129 C25.721875 129.0825 26.44375 129.165 27.1875 129.25 C30.58926868 130.15713831 32.45466084 131.60010879 35 134 C35 134.66 35 135.32 35 136 C24.77 136 14.54 136 4 136 C0 129 0 129 0.5625 126.5 C1.036875 125.675 1.51125 124.85 2 124 C4.95445018 118.2466456 5.45502808 113.61188955 5.43359375 107.19140625 C5.44145653 105.80307838 5.44145653 105.80307838 5.44947815 104.38670349 C5.45587464 102.43774413 5.45459225 100.48874604 5.44604492 98.53979492 C5.43753488 95.57465191 5.46632957 92.61143753 5.49804688 89.64648438 C5.49965925 87.74479224 5.49908066 85.84309672 5.49609375 83.94140625 C5.50732773 83.0640834 5.51856171 82.18676056 5.53013611 81.28285217 C5.47069476 75.97489642 4.61782102 72.35467396 1.8575592 67.79112244 C1 66 1 66 1 62 C1.85632324 59.99232483 1.85632324 59.99232483 2.96679688 57.87524414 C5.30112214 52.83038633 5.5824947 48.4960716 5.53125 42.99609375 C5.5350769 42.07337173 5.53890381 41.15064972 5.54284668 40.19996643 C5.54555087 38.26293842 5.53829515 36.32587296 5.52148438 34.38891602 C5.50002828 31.44138532 5.52134952 28.49628479 5.546875 25.54882812 C5.54423194 23.65624468 5.5391074 21.76366273 5.53125 19.87109375 C5.54339539 18.56452065 5.54339539 18.56452065 5.55578613 17.23155212 C5.4648293 11.2351213 4.06100041 7.12835073 1 2 C0.67 1.34 0.34 0.68 0 0 Z " fill="#00A4AA" transform="translate(362,136)"/>
<path d="M0 0 C0.99174728 0.00707474 1.98349457 0.01414948 3.0052948 0.0214386 C6.16446217 0.04936692 9.32183957 0.11210405 12.48046875 0.17578125 C14.6256254 0.20086607 16.7708099 0.22367891 18.91601562 0.24414062 C24.16727459 0.29918798 29.41749378 0.38279815 34.66796875 0.48828125 C34.33796875 1.47828125 34.00796875 2.46828125 33.66796875 3.48828125 C33.33796875 7.77828125 33.00796875 12.06828125 32.66796875 16.48828125 C22.10796875 16.48828125 11.54796875 16.48828125 0.66796875 16.48828125 C0.66796875 21.76828125 0.66796875 27.04828125 0.66796875 32.48828125 C11.22796875 32.48828125 21.78796875 32.48828125 32.66796875 32.48828125 C33.32796875 37.76828125 33.98796875 43.04828125 34.66796875 48.48828125 C28.3325456 48.56243536 21.99737507 48.61688565 15.66162109 48.65307617 C13.50630289 48.66816307 11.35101539 48.68863514 9.19580078 48.71459961 C6.09790471 48.75098669 3.00041452 48.76800864 -0.09765625 48.78125 C-1.06133118 48.79673386 -2.0250061 48.81221771 -3.0178833 48.82817078 C-4.36883087 48.82851067 -4.36883087 48.82851067 -5.74707031 48.82885742 C-6.53760803 48.83551926 -7.32814575 48.84218109 -8.14263916 48.8490448 C-10.93054257 48.38965978 -12.28457876 47.40923246 -14.33203125 45.48828125 C-16.29025079 39.61362262 -15.63909411 32.89295954 -15.68212891 26.72851562 C-15.69869767 24.9884708 -15.72600014 23.2484943 -15.76416016 21.50878906 C-15.81900006 18.99378339 -15.84080985 16.48036718 -15.85546875 13.96484375 C-15.87813812 13.19073151 -15.9008075 12.41661926 -15.92416382 11.61904907 C-15.90959655 7.88421737 -15.44373228 5.66582649 -13.44506836 2.48901367 C-8.95672745 -0.3956192 -5.22732015 -0.14073713 0 0 Z " fill="#FEB200" transform="translate(175.33203125,271.51171875)"/>
<path d="M0 0 C0.99174728 0.00707474 1.98349457 0.01414948 3.0052948 0.0214386 C6.16446217 0.04936692 9.32183957 0.11210405 12.48046875 0.17578125 C14.6256254 0.20086607 16.7708099 0.22367891 18.91601562 0.24414062 C24.16727459 0.29918798 29.41749378 0.38279815 34.66796875 0.48828125 C34.33796875 1.47828125 34.00796875 2.46828125 33.66796875 3.48828125 C33.33796875 7.77828125 33.00796875 12.06828125 32.66796875 16.48828125 C22.10796875 16.48828125 11.54796875 16.48828125 0.66796875 16.48828125 C0.66796875 21.76828125 0.66796875 27.04828125 0.66796875 32.48828125 C11.22796875 32.48828125 21.78796875 32.48828125 32.66796875 32.48828125 C33.32796875 37.76828125 33.98796875 43.04828125 34.66796875 48.48828125 C28.3325456 48.56243536 21.99737507 48.61688565 15.66162109 48.65307617 C13.50630289 48.66816307 11.35101539 48.68863514 9.19580078 48.71459961 C6.09790471 48.75098669 3.00041452 48.76800864 -0.09765625 48.78125 C-1.06133118 48.79673386 -2.0250061 48.81221771 -3.0178833 48.82817078 C-4.36883087 48.82851067 -4.36883087 48.82851067 -5.74707031 48.82885742 C-6.53760803 48.83551926 -7.32814575 48.84218109 -8.14263916 48.8490448 C-10.93054257 48.38965978 -12.28457876 47.40923246 -14.33203125 45.48828125 C-16.29025079 39.61362262 -15.63909411 32.89295954 -15.68212891 26.72851562 C-15.69869767 24.9884708 -15.72600014 23.2484943 -15.76416016 21.50878906 C-15.81900006 18.99378339 -15.84080985 16.48036718 -15.85546875 13.96484375 C-15.87813812 13.19073151 -15.9008075 12.41661926 -15.92416382 11.61904907 C-15.90959655 7.88421737 -15.44373228 5.66582649 -13.44506836 2.48901367 C-8.95672745 -0.3956192 -5.22732015 -0.14073713 0 0 Z " fill="#FEB200" transform="translate(175.33203125,207.51171875)"/>
<path d="M0 0 C0.99174728 0.00707474 1.98349457 0.01414948 3.0052948 0.0214386 C6.16446217 0.04936692 9.32183957 0.11210405 12.48046875 0.17578125 C14.6256254 0.20086607 16.7708099 0.22367891 18.91601562 0.24414062 C24.16727459 0.29918798 29.41749378 0.38279815 34.66796875 0.48828125 C34.33796875 1.47828125 34.00796875 2.46828125 33.66796875 3.48828125 C33.33796875 7.77828125 33.00796875 12.06828125 32.66796875 16.48828125 C22.10796875 16.48828125 11.54796875 16.48828125 0.66796875 16.48828125 C0.66796875 21.76828125 0.66796875 27.04828125 0.66796875 32.48828125 C11.22796875 32.48828125 21.78796875 32.48828125 32.66796875 32.48828125 C33.32796875 37.76828125 33.98796875 43.04828125 34.66796875 48.48828125 C28.3325456 48.56243536 21.99737507 48.61688565 15.66162109 48.65307617 C13.50630289 48.66816307 11.35101539 48.68863514 9.19580078 48.71459961 C6.09790471 48.75098669 3.00041452 48.76800864 -0.09765625 48.78125 C-1.06133118 48.79673386 -2.0250061 48.81221771 -3.0178833 48.82817078 C-4.36883087 48.82851067 -4.36883087 48.82851067 -5.74707031 48.82885742 C-6.53760803 48.83551926 -7.32814575 48.84218109 -8.14263916 48.8490448 C-10.93054257 48.38965978 -12.28457876 47.40923246 -14.33203125 45.48828125 C-16.29025079 39.61362262 -15.63909411 32.89295954 -15.68212891 26.72851562 C-15.69869767 24.9884708 -15.72600014 23.2484943 -15.76416016 21.50878906 C-15.81900006 18.99378339 -15.84080985 16.48036718 -15.85546875 13.96484375 C-15.87813812 13.19073151 -15.9008075 12.41661926 -15.92416382 11.61904907 C-15.90959655 7.88421737 -15.44373228 5.66582649 -13.44506836 2.48901367 C-8.95672745 -0.3956192 -5.22732015 -0.14073713 0 0 Z " fill="#FEB200" transform="translate(175.33203125,143.51171875)"/>
<path d="M0 0 C31.68 0 63.36 0 96 0 C96 5.28 96 10.56 96 16 C64.32 16 32.64 16 0 16 C0 10.72 0 5.44 0 0 Z " fill="#00074E" transform="translate(176,288)"/>
<path d="M0 0 C31.68 0 63.36 0 96 0 C96 5.28 96 10.56 96 16 C64.32 16 32.64 16 0 16 C0 10.72 0 5.44 0 0 Z " fill="#00074E" transform="translate(176,224)"/>
<path d="M0 0 C31.68 0 63.36 0 96 0 C96 5.28 96 10.56 96 16 C64.32 16 32.64 16 0 16 C0 10.72 0 5.44 0 0 Z " fill="#00074E" transform="translate(176,160)"/>
<path d="M0 0 C4.98669007 2.49334503 8.49675474 5.99350949 11 11 C11.54360446 15.95482094 11.56437074 19.87125852 9.3125 24.375 C5.72054254 28.45235712 2.52833982 31.59004052 -3.05078125 32.23828125 C-8.58896758 32.42001793 -11.64755155 31.74513006 -16 28 C-20.3022759 23.23261319 -21.36282503 19.56252705 -21.28125 13.28125 C-20.69180611 8.50020514 -17.85179203 5.75038822 -14.375 2.6875 C-9.71860985 -0.62098774 -5.60468123 -0.62082623 0 0 Z " fill="#F8D048" transform="translate(469,360)"/>
<path d="M0 0 C4.98669007 2.49334503 8.49675474 5.99350949 11 11 C11.54360446 15.95482094 11.56437074 19.87125852 9.3125 24.375 C5.72054254 28.45235712 2.52833982 31.59004052 -3.05078125 32.23828125 C-8.58896758 32.42001793 -11.64755155 31.74513006 -16 28 C-20.3022759 23.23261319 -21.36282503 19.56252705 -21.28125 13.28125 C-20.69180611 8.50020514 -17.85179203 5.75038822 -14.375 2.6875 C-9.71860985 -0.62098774 -5.60468123 -0.62082623 0 0 Z " fill="#F8D048" transform="translate(53,360)"/>
<path d="M0 0 C5.67476113 1.96434039 9.31400331 5.62800662 12 11 C12.3962444 16.84460492 11.95926533 20.77196458 9 26 C5.10505806 30.11842222 1.36523384 32.12618404 -4.3125 32.3125 C-8.94226662 32.25237316 -11.4369151 31.06591027 -15 28 C-19.3022759 23.23261319 -20.36282503 19.56252705 -20.28125 13.28125 C-19.69180611 8.50020514 -16.85179203 5.75038822 -13.375 2.6875 C-8.92314854 -0.47565762 -5.3540278 -0.48837416 0 0 Z " fill="#F9D148" transform="translate(380,448)"/>
<path d="M0 0 C5.67476113 1.96434039 9.31400331 5.62800662 12 11 C12.3962444 16.84460492 11.95926533 20.77196458 9 26 C5.10505806 30.11842222 1.36523384 32.12618404 -4.3125 32.3125 C-8.94226662 32.25237316 -11.4369151 31.06591027 -15 28 C-19.3022759 23.23261319 -20.36282503 19.56252705 -20.28125 13.28125 C-19.69180611 8.50020514 -16.85179203 5.75038822 -13.375 2.6875 C-8.92314854 -0.47565762 -5.3540278 -0.48837416 0 0 Z " fill="#F9D148" transform="translate(140,448)"/>
<path d="M0 0 C5.67476113 1.96434039 9.31400331 5.62800662 12 11 C12.3962444 16.84460492 11.95926533 20.77196458 9 26 C5.10505806 30.11842222 1.36523384 32.12618404 -4.3125 32.3125 C-8.94226662 32.25237316 -11.4369151 31.06591027 -15 28 C-19.3022759 23.23261319 -20.36282503 19.56252705 -20.28125 13.28125 C-19.69180611 8.50020514 -16.85179203 5.75038822 -13.375 2.6875 C-8.92314854 -0.47565762 -5.3540278 -0.48837416 0 0 Z " fill="#F9D148" transform="translate(260,432)"/>
<path d="M0 0 C5.28 0 10.56 0 16 0 C16 5.28 16 10.56 16 16 C10.72 16 5.44 16 0 16 C0 10.72 0 5.44 0 0 Z " fill="#00074E" transform="translate(320,288)"/>
<path d="M0 0 C5.28 0 10.56 0 16 0 C16 5.28 16 10.56 16 16 C10.72 16 5.44 16 0 16 C0 10.72 0 5.44 0 0 Z " fill="#00074E" transform="translate(288,288)"/>
<path d="M0 0 C5.28 0 10.56 0 16 0 C16 5.28 16 10.56 16 16 C10.72 16 5.44 16 0 16 C0 10.72 0 5.44 0 0 Z " fill="#00074E" transform="translate(320,224)"/>
<path d="M0 0 C5.28 0 10.56 0 16 0 C16 5.28 16 10.56 16 16 C10.72 16 5.44 16 0 16 C0 10.72 0 5.44 0 0 Z " fill="#00074E" transform="translate(288,224)"/>
<path d="M0 0 C5.28 0 10.56 0 16 0 C16 5.28 16 10.56 16 16 C10.72 16 5.44 16 0 16 C0 10.72 0 5.44 0 0 Z " fill="#00074E" transform="translate(320,160)"/>
<path d="M0 0 C5.28 0 10.56 0 16 0 C16 5.28 16 10.56 16 16 C10.72 16 5.44 16 0 16 C0 10.72 0 5.44 0 0 Z " fill="#00074E" transform="translate(288,160)"/>
</svg>
